<ttFont>
<head>
    <!-- Most of this table will be recalculated by the compiler -->
    <tableVersion value="1.0"/>
    <fontRevision value="1.0"/>
    <checkSumAdjustment value="0xd230f9f6"/>
    <magicNumber value="0x5f0f3cf5"/>
    <flags value="00000001 00001001"/>
    <unitsPerEm value="1000"/>
    <created value="Mon Nov 27 16:54:12 2000"/>
    <modified value="Wed Oct 21 01:41:13 2015"/>
    <xMin value="-330"/>
    <yMin value="-268"/>
    <xMax value="1000"/>
    <yMax value="919"/>
    <macStyle value="00000000 00000000"/>
    <lowestRecPPEM value="9"/>
    <fontDirectionHint value="2"/>
    <indexToLocFormat value="0"/>
    <glyphDataFormat value="0"/>
  </head>
    <TTGlyph name=".notdef" xMin="50" yMin="0" xMax="450" yMax="512">
      <contour>
        <pt x="442" y="504" on="1"/>
        <pt x="58" y="504" on="1"/>
        <pt x="58" y="8" on="1"/>
        <pt x="442" y="8" on="1"/>
      </contour>
      <contour>
        <pt x="450" y="512" on="1"/>
        <pt x="450" y="0" on="1"/>
        <pt x="50" y="0" on="1"/>
        <pt x="50" y="512" on="1"/>
      </contour>
    </TTGlyph>
    <TTGlyph name="A" xMin="17" yMin="-2" xMax="650" yMax="698">
      <contour>
        <pt x="207" y="309" on="1"/>
        <pt x="233" y="309" on="0"/>
        <pt x="289" y="307" on="0"/>
        <pt x="315" y="307" on="1"/>
        <pt x="343" y="307" on="0"/>
        <pt x="399" y="308" on="0"/>
        <pt x="427" y="309" on="1"/>
        <pt x="316" y="563" on="1"/>
      </contour>
      <contour>
        <pt x="650" y="-2" on="1"/>
        <pt x="636" y="0" on="0"/>
        <pt x="611" y="0" on="0"/>
        <pt x="597" y="0" on="1"/>
        <pt x="583" y="0" on="0"/>
        <pt x="558" y="0" on="0"/>
        <pt x="544" y="-2" on="1"/>
        <pt x="537" y="21" on="0"/>
        <pt x="513" y="86" on="0"/>
        <pt x="484" y="157" on="0"/>
        <pt x="454" y="230" on="0"/>
        <pt x="441" y="263" on="1"/>
        <pt x="409" y="264" on="0"/>
        <pt x="343" y="265" on="0"/>
        <pt x="310" y="265" on="1"/>
        <pt x="279" y="265" on="0"/>
        <pt x="219" y="264" on="0"/>
        <pt x="188" y="263" on="1"/>
        <pt x="156" y="185" on="0"/>
        <pt x="104" y="44" on="0"/>
        <pt x="91" y="-2" on="1"/>
        <pt x="74" y="0" on="0"/>
        <pt x="54" y="0" on="1"/>
        <pt x="34" y="0" on="0"/>
        <pt x="17" y="-2" on="1"/>
        <pt x="98" y="173" on="0"/>
        <pt x="252" y="519" on="0"/>
        <pt x="330" y="698" on="1"/>
        <pt x="349" y="698" on="1"/>
        <pt x="373" y="640" on="0"/>
        <pt x="429" y="505" on="0"/>
        <pt x="487" y="367" on="0"/>
        <pt x="545" y="231" on="0"/>
        <pt x="596" y="114" on="0"/>
        <pt x="637" y="22" on="0"/>
      </contour>
    </TTGlyph>
    <TTGlyph name="AE" xMin="-3" yMin="-2" xMax="785" yMax="685">
      <contour>
        <pt x="440" y="607" on="1"/>
        <pt x="242" y="294" on="1"/>
        <pt x="451" y="288" on="1"/>
        <pt x="451" y="607" on="1"/>
      </contour>
      <contour>
        <pt x="220" y="252" on="1"/>
        <pt x="141" y="122" on="0"/>
        <pt x="80" y="-2" on="1"/>
        <pt x="60" y="0" on="0"/>
        <pt x="39" y="0" on="1"/>
        <pt x="29" y="0" on="0"/>
        <pt x="7" y="0" on="0"/>
        <pt x="-3" y="-2" on="1"/>
        <pt x="40" y="61" on="0"/>
        <pt x="151" y="228" on="0"/>
        <pt x="270" y="411" on="0"/>
        <pt x="389" y="599" on="0"/>
        <pt x="443" y="685" on="1"/>
        <pt x="485" y="683" on="0"/>
        <pt x="569" y="680" on="0"/>
        <pt x="612" y="680" on="1"/>
        <pt x="654" y="680" on="0"/>
        <pt x="736" y="683" on="0"/>
        <pt x="778" y="685" on="1"/>
        <pt x="773" y="667" on="0"/>
        <pt x="773" y="654" on="1"/>
        <pt x="773" y="641" on="0"/>
        <pt x="778" y="623" on="1"/>
        <pt x="763" y="626" on="0"/>
        <pt x="732" y="631" on="0"/>
        <pt x="681" y="636" on="0"/>
        <pt x="601" y="638" on="0"/>
        <pt x="538" y="638" on="1"/>
        <pt x="536" y="593" on="0"/>
        <pt x="533" y="508" on="0"/>
        <pt x="533" y="463" on="1"/>
        <pt x="533" y="381" on="1"/>
        <pt x="595" y="381" on="0"/>
        <pt x="670" y="382" on="0"/>
        <pt x="717" y="384" on="0"/>
        <pt x="745" y="387" on="0"/>
        <pt x="758" y="388" on="1"/>
        <pt x="753" y="371" on="0"/>
        <pt x="753" y="360" on="1"/>
        <pt x="753" y="349" on="0"/>
        <pt x="758" y="332" on="1"/>
        <pt x="744" y="333" on="0"/>
        <pt x="716" y="336" on="0"/>
        <pt x="669" y="338" on="0"/>
        <pt x="594" y="339" on="0"/>
        <pt x="533" y="339" on="1"/>
        <pt x="533" y="238" on="1"/>
        <pt x="533" y="189" on="0"/>
        <pt x="536" y="91" on="0"/>
        <pt x="538" y="42" on="1"/>
        <pt x="647" y="42" on="0"/>
        <pt x="761" y="49" on="0"/>
        <pt x="785" y="53" on="1"/>
        <pt x="783" y="45" on="0"/>
        <pt x="780" y="32" on="0"/>
        <pt x="780" y="24" on="1"/>
        <pt x="780" y="16" on="0"/>
        <pt x="783" y="3" on="0"/>
        <pt x="785" y="-2" on="1"/>
        <pt x="740" y="0" on="0"/>
        <pt x="656" y="0" on="0"/>
        <pt x="614" y="0" on="1"/>
        <pt x="571" y="0" on="0"/>
        <pt x="486" y="0" on="0"/>
        <pt x="443" y="-2" on="1"/>
        <pt x="449" y="59" on="0"/>
        <pt x="451" y="183" on="0"/>
        <pt x="451" y="246" on="1"/>
      </contour>
    </TTGlyph>
    <TTGlyph name="Aacute" xMin="17" yMin="-2" xMax="650" yMax="904">
      <contour>
        <pt x="412" y="880" on="1"/>
        <pt x="436" y="904" on="0"/>
        <pt x="457" y="904" on="1"/>
        <pt x="467" y="904" on="0"/>
        <pt x="490" y="888" on="0"/>
        <pt x="490" y="872" on="1"/>
        <pt x="490" y="854" on="0"/>
        <pt x="466" y="833" on="0"/>
        <pt x="454" y="825" on="1"/>
        <pt x="307" y="731" on="1"/>
        <pt x="265" y="731" on="1"/>
      </contour>
      <contour>
        <pt x="207" y="309" on="1"/>
        <pt x="233" y="309" on="0"/>
        <pt x="289" y="307" on="0"/>
        <pt x="315" y="307" on="1"/>
        <pt x="343" y="307" on="0"/>
        <pt x="399" y="308" on="0"/>
        <pt x="427" y="309" on="1"/>
        <pt x="316" y="563" on="1"/>
      </contour>
      <contour>
        <pt x="349" y="698" on="1"/>
        <pt x="373" y="640" on="0"/>
        <pt x="429" y="505" on="0"/>
        <pt x="487" y="367" on="0"/>
        <pt x="545" y="231" on="0"/>
        <pt x="596" y="114" on="0"/>
        <pt x="637" y="22" on="0"/>
        <pt x="650" y="-2" on="1"/>
        <pt x="636" y="0" on="0"/>
        <pt x="611" y="0" on="0"/>
        <pt x="597" y="0" on="1"/>
        <pt x="583" y="0" on="0"/>
        <pt x="558" y="0" on="0"/>
        <pt x="544" y="-2" on="1"/>
        <pt x="537" y="21" on="0"/>
        <pt x="513" y="86" on="0"/>
        <pt x="484" y="157" on="0"/>
        <pt x="454" y="230" on="0"/>
        <pt x="441" y="263" on="1"/>
        <pt x="409" y="264" on="0"/>
        <pt x="343" y="265" on="0"/>
        <pt x="310" y="265" on="1"/>
        <pt x="279" y="265" on="0"/>
        <pt x="219" y="264" on="0"/>
        <pt x="188" y="263" on="1"/>
        <pt x="156" y="185" on="0"/>
        <pt x="104" y="44" on="0"/>
        <pt x="91" y="-2" on="1"/>
        <pt x="74" y="0" on="0"/>
        <pt x="54" y="0" on="1"/>
        <pt x="34" y="0" on="0"/>
        <pt x="17" y="-2" on="1"/>
        <pt x="98" y="173" on="0"/>
        <pt x="252" y="519" on="0"/>
        <pt x="330" y="698" on="1"/>
      </contour>
    </TTGlyph>
    <TTGlyph name="Acircumflex" xMin="17" yMin="-2" xMax="650" yMax="898">
      <contour>
        <pt x="214" y="731" on="1"/>
        <pt x="177" y="731" on="1"/>
        <pt x="300" y="898" on="1"/>
        <pt x="367" y="898" on="1"/>
        <pt x="490" y="731" on="1"/>
        <pt x="453" y="731" on="1"/>
        <pt x="333" y="836" on="1"/>
      </contour>
      <contour>
        <pt x="207" y="309" on="1"/>
        <pt x="233" y="309" on="0"/>
        <pt x="289" y="307" on="0"/>
        <pt x="315" y="307" on="1"/>
        <pt x="343" y="307" on="0"/>
        <pt x="399" y="308" on="0"/>
        <pt x="427" y="309" on="1"/>
        <pt x="316" y="563" on="1"/>
      </contour>
      <contour>
        <pt x="349" y="698" on="1"/>
        <pt x="373" y="640" on="0"/>
        <pt x="429" y="505" on="0"/>
        <pt x="487" y="367" on="0"/>
        <pt x="545" y="231" on="0"/>
        <pt x="596" y="114" on="0"/>
        <pt x="637" y="22" on="0"/>
        <pt x="650" y="-2" on="1"/>
        <pt x="636" y="0" on="0"/>
        <pt x="611" y="0" on="0"/>
        <pt x="597" y="0" on="1"/>
        <pt x="583" y="0" on="0"/>
        <pt x="558" y="0" on="0"/>
        <pt x="544" y="-2" on="1"/>
        <pt x="537" y="21" on="0"/>
        <pt x="513" y="86" on="0"/>
        <pt x="484" y="157" on="0"/>
        <pt x="454" y="230" on="0"/>
        <pt x="441" y="263" on="1"/>
        <pt x="409" y="264" on="0"/>
        <pt x="343" y="265" on="0"/>
        <pt x="310" y="265" on="1"/>
        <pt x="279" y="265" on="0"/>
        <pt x="219" y="264" on="0"/>
        <pt x="188" y="263" on="1"/>
        <pt x="156" y="185" on="0"/>
        <pt x="104" y="44" on="0"/>
        <pt x="91" y="-2" on="1"/>
        <pt x="74" y="0" on="0"/>
        <pt x="54" y="0" on="1"/>
        <pt x="34" y="0" on="0"/>
        <pt x="17" y="-2" on="1"/>
        <pt x="98" y="173" on="0"/>
        <pt x="252" y="519" on="0"/>
        <pt x="330" y="698" on="1"/>
      </contour>
    </TTGlyph>
    <TTGlyph name="Adieresis" xMin="17" yMin="-2" xMax="650" yMax="860">
      <contour>
        <pt x="184" y="809" on="1"/>
        <pt x="184" y="830" on="0"/>
        <pt x="214" y="860" on="0"/>
        <pt x="235" y="860" on="1"/>
        <pt x="256" y="860" on="0"/>
        <pt x="286" y="830" on="0"/>
        <pt x="286" y="809" on="1"/>
        <pt x="286" y="788" on="0"/>
        <pt x="256" y="758" on="0"/>
        <pt x="235" y="758" on="1"/>
        <pt x="214" y="758" on="0"/>
        <pt x="184" y="788" on="0"/>
      </contour>
      <contour>
        <pt x="381" y="809" on="1"/>
        <pt x="381" y="830" on="0"/>
        <pt x="411" y="860" on="0"/>
        <pt x="432" y="860" on="1"/>
        <pt x="453" y="860" on="0"/>
        <pt x="483" y="830" on="0"/>
        <pt x="483" y="809" on="1"/>
        <pt x="483" y="788" on="0"/>
        <pt x="453" y="758" on="0"/>
        <pt x="432" y="758" on="1"/>
        <pt x="411" y="758" on="0"/>
        <pt x="381" y="788" on="0"/>
      </contour>
      <contour>
        <pt x="207" y="309" on="1"/>
        <pt x="233" y="309" on="0"/>
        <pt x="289" y="307" on="0"/>
        <pt x="315" y="307" on="1"/>
        <pt x="343" y="307" on="0"/>
        <pt x="399" y="308" on="0"/>
        <pt x="427" y="309" on="1"/>
        <pt x="316" y="563" on="1"/>
      </contour>
      <contour>
        <pt x="349" y="698" on="1"/>
        <pt x="373" y="640" on="0"/>
        <pt x="429" y="505" on="0"/>
        <pt x="487" y="367" on="0"/>
        <pt x="545" y="231" on="0"/>
        <pt x="596" y="114" on="0"/>
        <pt x="637" y="22" on="0"/>
        <pt x="650" y="-2" on="1"/>
        <pt x="636" y="0" on="0"/>
        <pt x="611" y="0" on="0"/>
        <pt x="597" y="0" on="1"/>
        <pt x="583" y="0" on="0"/>
        <pt x="558" y="0" on="0"/>
        <pt x="544" y="-2" on="1"/>
        <pt x="537" y="21" on="0"/>
        <pt x="513" y="86" on="0"/>
        <pt x="484" y="157" on="0"/>
        <pt x="454" y="230" on="0"/>
        <pt x="441" y="263" on="1"/>
        <pt x="409" y="264" on="0"/>
        <pt x="343" y="265" on="0"/>
        <pt x="310" y="265" on="1"/>
        <pt x="279" y="265" on="0"/>
        <pt x="219" y="264" on="0"/>
        <pt x="188" y="263" on="1"/>
        <pt x="156" y="185" on="0"/>
        <pt x="104" y="44" on="0"/>
        <pt x="91" y="-2" on="1"/>
        <pt x="74" y="0" on="0"/>
        <pt x="54" y="0" on="1"/>
        <pt x="34" y="0" on="0"/>
        <pt x="17" y="-2" on="1"/>
        <pt x="98" y="173" on="0"/>
        <pt x="252" y="519" on="0"/>
        <pt x="330" y="698" on="1"/>
      </contour>
    </TTGlyph>
    <TTGlyph name="Agrave" xMin="17" yMin="-2" xMax="650" yMax="904">
      <contour>
        <pt x="213" y="825" on="1"/>
        <pt x="201" y="833" on="0"/>
        <pt x="177" y="854" on="0"/>
        <pt x="177" y="872" on="1"/>
        <pt x="177" y="888" on="0"/>
        <pt x="200" y="904" on="0"/>
        <pt x="210" y="904" on="1"/>
        <pt x="231" y="904" on="0"/>
        <pt x="255" y="880" on="1"/>
        <pt x="402" y="731" on="1"/>
        <pt x="360" y="731" on="1"/>
      </contour>
      <contour>
        <pt x="207" y="309" on="1"/>
        <pt x="233" y="309" on="0"/>
        <pt x="289" y="307" on="0"/>
        <pt x="315" y="307" on="1"/>
        <pt x="343" y="307" on="0"/>
        <pt x="399" y="308" on="0"/>
        <pt x="427" y="309" on="1"/>
        <pt x="316" y="563" on="1"/>
      </contour>
      <contour>
        <pt x="349" y="698" on="1"/>
        <pt x="373" y="640" on="0"/>
        <pt x="429" y="505" on="0"/>
        <pt x="487" y="367" on="0"/>
        <pt x="545" y="231" on="0"/>
        <pt x="596" y="114" on="0"/>
        <pt x="637" y="22" on="0"/>
        <pt x="650" y="-2" on="1"/>
        <pt x="636" y="0" on="0"/>
        <pt x="611" y="0" on="0"/>
        <pt x="597" y="0" on="1"/>
        <pt x="583" y="0" on="0"/>
        <pt x="558" y="0" on="0"/>
        <pt x="544" y="-2" on="1"/>
        <pt x="537" y="21" on="0"/>
        <pt x="513" y="86" on="0"/>
        <pt x="484" y="157" on="0"/>
        <pt x="454" y="230" on="0"/>
        <pt x="441" y="263" on="1"/>
        <pt x="409" y="264" on="0"/>
        <pt x="343" y="265" on="0"/>
        <pt x="310" y="265" on="1"/>
        <pt x="279" y="265" on="0"/>
        <pt x="219" y="264" on="0"/>
        <pt x="188" y="263" on="1"/>
        <pt x="156" y="185" on="0"/>
        <pt x="104" y="44" on="0"/>
        <pt x="91" y="-2" on="1"/>
        <pt x="74" y="0" on="0"/>
        <pt x="54" y="0" on="1"/>
        <pt x="34" y="0" on="0"/>
        <pt x="17" y="-2" on="1"/>
        <pt x="98" y="173" on="0"/>
        <pt x="252" y="519" on="0"/>
        <pt x="330" y="698" on="1"/>
      </contour>
    </TTGlyph>
    <TTGlyph name="Aring" xMin="17" yMin="-2" xMax="650" yMax="919">
      <contour>
        <pt x="273" y="817" on="1"/>
        <pt x="273" y="792" on="0"/>
        <pt x="308" y="757" on="0"/>
        <pt x="333" y="757" on="1"/>
        <pt x="359" y="757" on="0"/>
        <pt x="394" y="792" on="0"/>
        <pt x="394" y="817" on="1"/>
        <pt x="394" y="842" on="0"/>
        <pt x="359" y="877" on="0"/>
        <pt x="334" y="877" on="1"/>
        <pt x="308" y="877" on="0"/>
        <pt x="273" y="842" on="0"/>
      </contour>
      <contour>
        <pt x="231" y="817" on="1"/>
        <pt x="231" y="838" on="0"/>
        <pt x="247" y="875" on="0"/>
        <pt x="275" y="903" on="0"/>
        <pt x="313" y="919" on="0"/>
        <pt x="334" y="919" on="1"/>
        <pt x="355" y="919" on="0"/>
        <pt x="392" y="903" on="0"/>
        <pt x="420" y="875" on="0"/>
        <pt x="436" y="838" on="0"/>
        <pt x="436" y="817" on="1"/>
        <pt x="436" y="796" on="0"/>
        <pt x="420" y="759" on="0"/>
        <pt x="392" y="731" on="0"/>
        <pt x="354" y="715" on="0"/>
        <pt x="333" y="715" on="1"/>
        <pt x="312" y="715" on="0"/>
        <pt x="275" y="731" on="0"/>
        <pt x="247" y="759" on="0"/>
        <pt x="231" y="796" on="0"/>
      </contour>
      <contour>
        <pt x="207" y="309" on="1"/>
        <pt x="233" y="309" on="0"/>
        <pt x="289" y="307" on="0"/>
        <pt x="315" y="307" on="1"/>
        <pt x="343" y="307" on="0"/>
        <pt x="399" y="308" on="0"/>
        <pt x="427" y="309" on="1"/>
        <pt x="316" y="563" on="1"/>
      </contour>
      <contour>
        <pt x="349" y="698" on="1"/>
        <pt x="373" y="640" on="0"/>
        <pt x="429" y="505" on="0"/>
        <pt x="487" y="367" on="0"/>
        <pt x="545" y="231" on="0"/>
        <pt x="596" y="114" on="0"/>
        <pt x="637" y="22" on="0"/>
        <pt x="650" y="-2" on="1"/>
        <pt x="636" y="0" on="0"/>
        <pt x="611" y="0" on="0"/>
        <pt x="597" y="0" on="1"/>
        <pt x="583" y="0" on="0"/>
        <pt x="558" y="0" on="0"/>
        <pt x="544" y="-2" on="1"/>
        <pt x="537" y="21" on="0"/>
        <pt x="513" y="86" on="0"/>
        <pt x="484" y="157" on="0"/>
        <pt x="454" y="230" on="0"/>
        <pt x="441" y="263" on="1"/>
        <pt x="409" y="264" on="0"/>
        <pt x="343" y="265" on="0"/>
        <pt x="310" y="265" on="1"/>
        <pt x="279" y="265" on="0"/>
        <pt x="219" y="264" on="0"/>
        <pt x="188" y="263" on="1"/>
        <pt x="156" y="185" on="0"/>
        <pt x="104" y="44" on="0"/>
        <pt x="91" y="-2" on="1"/>
        <pt x="74" y="0" on="0"/>
        <pt x="54" y="0" on="1"/>
        <pt x="34" y="0" on="0"/>
        <pt x="17" y="-2" on="1"/>
        <pt x="98" y="173" on="0"/>
        <pt x="252" y="519" on="0"/>
        <pt x="330" y="698" on="1"/>
      </contour>
    </TTGlyph>
    <TTGlyph name="Atilde" xMin="17" yMin="-2" xMax="650" yMax="863">
      <contour>
        <pt x="169" y="756" on="1"/>
        <pt x="172" y="774" on="0"/>
        <pt x="187" y="810" on="0"/>
        <pt x="213" y="840" on="0"/>
        <pt x="249" y="859" on="0"/>
        <pt x="273" y="859" on="1"/>
        <pt x="290" y="859" on="0"/>
        <pt x="318" y="849" on="0"/>
        <pt x="346" y="836" on="1"/>
        <pt x="374" y="822" on="0"/>
        <pt x="399" y="813" on="0"/>
        <pt x="412" y="813" on="1"/>
        <pt x="435" y="813" on="0"/>
        <pt x="463" y="843" on="0"/>
        <pt x="469" y="863" on="1"/>
        <pt x="498" y="863" on="1"/>
        <pt x="496" y="851" on="0"/>
        <pt x="484" y="815" on="0"/>
        <pt x="459" y="780" on="0"/>
        <pt x="419" y="756" on="0"/>
        <pt x="389" y="756" on="1"/>
        <pt x="375" y="756" on="0"/>
        <pt x="340" y="766" on="0"/>
        <pt x="317" y="779" on="1"/>
        <pt x="291" y="793" on="0"/>
        <pt x="264" y="802" on="0"/>
        <pt x="252" y="802" on="1"/>
        <pt x="229" y="802" on="0"/>
        <pt x="208" y="782" on="0"/>
        <pt x="199" y="756" on="1"/>
      </contour>
      <contour>
        <pt x="207" y="309" on="1"/>
        <pt x="233" y="309" on="0"/>
        <pt x="289" y="307" on="0"/>
        <pt x="315" y="307" on="1"/>
        <pt x="343" y="307" on="0"/>
        <pt x="399" y="308" on="0"/>
        <pt x="427" y="309" on="1"/>
        <pt x="316" y="563" on="1"/>
      </contour>
      <contour>
        <pt x="349" y="698" on="1"/>
        <pt x="373" y="640" on="0"/>
        <pt x="429" y="505" on="0"/>
        <pt x="487" y="367" on="0"/>
        <pt x="545" y="231" on="0"/>
        <pt x="596" y="114" on="0"/>
        <pt x="637" y="22" on="0"/>
        <pt x="650" y="-2" on="1"/>
        <pt x="636" y="0" on="0"/>
        <pt x="611" y="0" on="0"/>
        <pt x="597" y="0" on="1"/>
        <pt x="583" y="0" on="0"/>
        <pt x="558" y="0" on="0"/>
        <pt x="544" y="-2" on="1"/>
        <pt x="537" y="21" on="0"/>
        <pt x="513" y="86" on="0"/>
        <pt x="484" y="157" on="0"/>
        <pt x="454" y="230" on="0"/>
        <pt x="441" y="263" on="1"/>
        <pt x="409" y="264" on="0"/>
        <pt x="343" y="265" on="0"/>
        <pt x="310" y="265" on="1"/>
        <pt x="279" y="265" on="0"/>
        <pt x="219" y="264" on="0"/>
        <pt x="188" y="263" on="1"/>
        <pt x="156" y="185" on="0"/>
        <pt x="104" y="44" on="0"/>
        <pt x="91" y="-2" on="1"/>
        <pt x="74" y="0" on="0"/>
        <pt x="54" y="0" on="1"/>
        <pt x="34" y="0" on="0"/>
        <pt x="17" y="-2" on="1"/>
        <pt x="98" y="173" on="0"/>
        <pt x="252" y="519" on="0"/>
        <pt x="330" y="698" on="1"/>
      </contour>
    </TTGlyph>
    <TTGlyph name="B" xMin="90" yMin="-2" xMax="537" yMax="685">
      <contour>
        <pt x="180" y="239" on="1"/>
        <pt x="180" y="188" on="0"/>
        <pt x="184" y="88" on="0"/>
        <pt x="186" y="37" on="1"/>
        <pt x="205" y="35" on="0"/>
        <pt x="257" y="32" on="0"/>
        <pt x="284" y="32" on="1"/>
        <pt x="316" y="32" on="0"/>
        <pt x="375" y="54" on="0"/>
        <pt x="419" y="97" on="0"/>
        <pt x="445" y="160" on="0"/>
        <pt x="445" y="200" on="1"/>
        <pt x="445" y="243" on="0"/>
        <pt x="414" y="298" on="0"/>
        <pt x="356" y="329" on="0"/>
        <pt x="275" y="341" on="0"/>
        <pt x="225" y="341" on="1"/>
        <pt x="180" y="341" on="1"/>
      </contour>
      <contour>
        <pt x="234" y="378" on="1"/>
        <pt x="269" y="378" on="0"/>
        <pt x="338" y="392" on="0"/>
        <pt x="392" y="425" on="0"/>
        <pt x="425" y="480" on="0"/>
        <pt x="425" y="522" on="1"/>
        <pt x="425" y="563" on="0"/>
        <pt x="395" y="612" on="0"/>
        <pt x="349" y="639" on="0"/>
        <pt x="291" y="648" on="0"/>
        <pt x="262" y="648" on="1"/>
        <pt x="236" y="648" on="0"/>
        <pt x="200" y="645" on="0"/>
        <pt x="186" y="643" on="1"/>
        <pt x="184" y="595" on="0"/>
        <pt x="180" y="501" on="0"/>
        <pt x="180" y="453" on="1"/>
        <pt x="180" y="378" on="1"/>
      </contour>
      <contour>
        <pt x="98" y="427" on="1"/>
        <pt x="98" y="493" on="0"/>
        <pt x="93" y="621" on="0"/>
        <pt x="90" y="685" on="1"/>
        <pt x="116" y="683" on="0"/>
        <pt x="170" y="680" on="0"/>
        <pt x="196" y="680" on="1"/>
        <pt x="222" y="680" on="0"/>
        <pt x="276" y="685" on="0"/>
        <pt x="302" y="685" on="1"/>
        <pt x="345" y="685" on="0"/>
        <pt x="421" y="672" on="0"/>
        <pt x="479" y="639" on="0"/>
        <pt x="513" y="583" on="0"/>
        <pt x="513" y="541" on="1"/>
        <pt x="513" y="467" on="0"/>
        <pt x="420" y="383" on="0"/>
        <pt x="345" y="366" on="1"/>
        <pt x="345" y="364" on="1"/>
        <pt x="434" y="360" on="0"/>
        <pt x="537" y="282" on="0"/>
        <pt x="537" y="196" on="1"/>
        <pt x="537" y="140" on="0"/>
        <pt x="491" y="64" on="0"/>
        <pt x="417" y="17" on="0"/>
        <pt x="328" y="-2" on="0"/>
        <pt x="284" y="-2" on="1"/>
        <pt x="260" y="-2" on="0"/>
        <pt x="211" y="0" on="0"/>
        <pt x="187" y="0" on="1"/>
        <pt x="163" y="0" on="0"/>
        <pt x="114" y="0" on="0"/>
        <pt x="90" y="-2" on="1"/>
        <pt x="93" y="62" on="0"/>
        <pt x="98" y="189" on="0"/>
        <pt x="98" y="255" on="1"/>
      </contour>
    </TTGlyph>
    <TTGlyph name="C" xMin="42" yMin="-15" xMax="634" yMax="698">
      <contour>
        <pt x="615" y="39" on="1"/>
        <pt x="606" y="31" on="0"/>
        <pt x="567" y="12" on="0"/>
        <pt x="512" y="-3" on="0"/>
        <pt x="444" y="-15" on="0"/>
        <pt x="407" y="-15" on="1"/>
        <pt x="328" y="-15" on="0"/>
        <pt x="194" y="30" on="0"/>
        <pt x="97" y="122" on="0"/>
        <pt x="42" y="255" on="0"/>
        <pt x="42" y="340" on="1"/>
        <pt x="42" y="425" on="0"/>
        <pt x="97" y="558" on="0"/>
        <pt x="196" y="650" on="0"/>
        <pt x="334" y="698" on="0"/>
        <pt x="417" y="698" on="1"/>
        <pt x="483" y="698" on="0"/>
        <pt x="592" y="671" on="0"/>
        <pt x="634" y="652" on="1"/>
        <pt x="626" y="638" on="0"/>
        <pt x="616" y="590" on="0"/>
        <pt x="613" y="574" on="1"/>
        <pt x="607" y="572" on="1"/>
        <pt x="597" y="584" on="0"/>
        <pt x="561" y="614" on="0"/>
        <pt x="513" y="642" on="0"/>
        <pt x="453" y="661" on="0"/>
        <pt x="417" y="661" on="1"/>
        <pt x="358" y="661" on="0"/>
        <pt x="257" y="623" on="0"/>
        <pt x="182" y="544" on="0"/>
        <pt x="140" y="423" on="0"/>
        <pt x="140" y="340" on="1"/>
        <pt x="140" y="257" on="0"/>
        <pt x="182" y="136" on="0"/>
        <pt x="257" y="57" on="0"/>
        <pt x="358" y="19" on="0"/>
        <pt x="417" y="19" on="1"/>
        <pt x="453" y="19" on="0"/>
        <pt x="514" y="37" on="0"/>
        <pt x="565" y="62" on="0"/>
        <pt x="606" y="91" on="0"/>
        <pt x="620" y="102" on="1"/>
        <pt x="624" y="98" on="1"/>
        <pt x="615" y="39" on="1"/>
      </contour>
    </TTGlyph>
    <TTGlyph name="Ccedilla" xMin="42" yMin="-227" xMax="634" yMax="698">
      <contour>
        <pt x="360" y="-15" on="1"/>
        <pt x="290" y="-8" on="0"/>
        <pt x="173" y="44" on="0"/>
        <pt x="89" y="135" on="0"/>
        <pt x="42" y="261" on="0"/>
        <pt x="42" y="340" on="1"/>
        <pt x="42" y="425" on="0"/>
        <pt x="97" y="558" on="0"/>
        <pt x="196" y="650" on="0"/>
        <pt x="334" y="698" on="0"/>
        <pt x="417" y="698" on="1"/>
        <pt x="483" y="698" on="0"/>
        <pt x="592" y="671" on="0"/>
        <pt x="634" y="652" on="1"/>
        <pt x="626" y="638" on="0"/>
        <pt x="616" y="590" on="0"/>
        <pt x="613" y="574" on="1"/>
        <pt x="607" y="572" on="1"/>
        <pt x="597" y="584" on="0"/>
        <pt x="561" y="614" on="0"/>
        <pt x="513" y="642" on="0"/>
        <pt x="453" y="661" on="0"/>
        <pt x="417" y="661" on="1"/>
        <pt x="358" y="661" on="0"/>
        <pt x="257" y="623" on="0"/>
        <pt x="182" y="544" on="0"/>
        <pt x="140" y="423" on="0"/>
        <pt x="140" y="340" on="1"/>
        <pt x="140" y="257" on="0"/>
        <pt x="182" y="136" on="0"/>
        <pt x="257" y="57" on="0"/>
        <pt x="358" y="19" on="0"/>
        <pt x="417" y="19" on="1"/>
        <pt x="453" y="19" on="0"/>
        <pt x="514" y="37" on="0"/>
        <pt x="565" y="62" on="0"/>
        <pt x="606" y="91" on="0"/>
        <pt x="620" y="102" on="1"/>
        <pt x="624" y="98" on="1"/>
        <pt x="615" y="39" on="1"/>
        <pt x="606" y="31" on="0"/>
        <pt x="567" y="12" on="0"/>
        <pt x="512" y="-3" on="0"/>
        <pt x="444" y="-15" on="0"/>
        <pt x="407" y="-15" on="1"/>
        <pt x="395" y="-15" on="1"/>
        <pt x="374" y="-76" on="1"/>
        <pt x="380" y="-74" on="0"/>
        <pt x="393" y="-71" on="0"/>
        <pt x="403" y="-71" on="1"/>
        <pt x="442" y="-71" on="0"/>
        <pt x="486" y="-110" on="0"/>
        <pt x="486" y="-142" on="1"/>
        <pt x="486" y="-163" on="0"/>
        <pt x="467" y="-195" on="0"/>
        <pt x="434" y="-216" on="0"/>
        <pt x="391" y="-227" on="0"/>
        <pt x="367" y="-227" on="1"/>
        <pt x="336" y="-227" on="0"/>
        <pt x="292" y="-215" on="0"/>
        <pt x="278" y="-210" on="1"/>
        <pt x="292" y="-178" on="1"/>
        <pt x="303" y="-183" on="0"/>
        <pt x="341" y="-190" on="0"/>
        <pt x="364" y="-190" on="1"/>
        <pt x="389" y="-190" on="0"/>
        <pt x="424" y="-168" on="0"/>
        <pt x="424" y="-148" on="1"/>
        <pt x="424" y="-126" on="0"/>
        <pt x="394" y="-108" on="0"/>
        <pt x="373" y="-108" on="1"/>
        <pt x="340" y="-108" on="0"/>
        <pt x="330" y="-115" on="1"/>
        <pt x="323" y="-108" on="1"/>
        <pt x="360" y="-15" on="1"/>
      </contour>
    </TTGlyph>
    <TTGlyph name="D" xMin="90" yMin="-2" xMax="722" yMax="685">
      <contour>
        <pt x="98" y="426" on="1"/>
        <pt x="98" y="492" on="0"/>
        <pt x="93" y="619" on="0"/>
        <pt x="90" y="685" on="1"/>
        <pt x="128" y="683" on="0"/>
        <pt x="203" y="680" on="0"/>
        <pt x="241" y="680" on="1"/>
        <pt x="279" y="680" on="0"/>
        <pt x="354" y="685" on="0"/>
        <pt x="392" y="685" on="1"/>
        <pt x="480" y="685" on="0"/>
        <pt x="605" y="639" on="0"/>
        <pt x="685" y="554" on="0"/>
        <pt x="722" y="431" on="0"/>
        <pt x="722" y="354" on="1"/>
        <pt x="722" y="254" on="0"/>
        <pt x="653" y="117" on="0"/>
        <pt x="546" y="33" on="0"/>
        <pt x="417" y="-2" on="0"/>
        <pt x="358" y="-2" on="1"/>
        <pt x="324" y="-2" on="0"/>
        <pt x="258" y="0" on="0"/>
        <pt x="224" y="0" on="1"/>
        <pt x="190" y="0" on="0"/>
        <pt x="124" y="0" on="0"/>
        <pt x="90" y="-2" on="1"/>
        <pt x="93" y="60" on="0"/>
        <pt x="98" y="188" on="0"/>
        <pt x="98" y="254" on="1"/>
      </contour>
      <contour>
        <pt x="180" y="254" on="1"/>
        <pt x="180" y="146" on="0"/>
        <pt x="186" y="42" on="1"/>
        <pt x="207" y="37" on="0"/>
        <pt x="279" y="32" on="0"/>
        <pt x="317" y="32" on="1"/>
        <pt x="372" y="32" on="0"/>
        <pt x="482" y="58" on="0"/>
        <pt x="569" y="130" on="0"/>
        <pt x="624" y="255" on="0"/>
        <pt x="624" y="354" on="1"/>
        <pt x="624" y="441" on="0"/>
        <pt x="581" y="553" on="0"/>
        <pt x="506" y="618" on="0"/>
        <pt x="402" y="643" on="0"/>
        <pt x="340" y="643" on="1"/>
        <pt x="295" y="643" on="0"/>
        <pt x="217" y="637" on="0"/>
        <pt x="186" y="633" on="1"/>
        <pt x="183" y="585" on="0"/>
        <pt x="180" y="480" on="0"/>
        <pt x="180" y="426" on="1"/>
      </contour>
    </TTGlyph>
    <TTGlyph name="Delta" xMin="13" yMin="0" xMax="599" yMax="677">
      <contour>
        <pt x="13" y="0" on="1"/>
        <pt x="319" y="677" on="1"/>
        <pt x="599" y="0" on="1"/>
      </contour>
      <contour>
        <pt x="289" y="512" on="1"/>
        <pt x="74" y="40" on="1"/>
        <pt x="483" y="40" on="1"/>
      </contour>
    </TTGlyph>
    <TTGlyph name="E" xMin="90" yMin="-2" xMax="452" yMax="685">
      <contour>
        <pt x="98" y="427" on="1"/>
        <pt x="98" y="493" on="0"/>
        <pt x="93" y="621" on="0"/>
        <pt x="90" y="685" on="1"/>
        <pt x="135" y="683" on="0"/>
        <pt x="224" y="680" on="0"/>
        <pt x="269" y="680" on="1"/>
        <pt x="314" y="680" on="0"/>
        <pt x="402" y="683" on="0"/>
        <pt x="447" y="685" on="1"/>
        <pt x="444" y="670" on="0"/>
        <pt x="444" y="655" on="1"/>
        <pt x="444" y="640" on="0"/>
        <pt x="447" y="625" on="1"/>
        <pt x="415" y="627" on="0"/>
        <pt x="362" y="631" on="0"/>
        <pt x="303" y="635" on="0"/>
        <pt x="233" y="638" on="0"/>
        <pt x="184" y="638" on="1"/>
        <pt x="183" y="606" on="0"/>
        <pt x="180" y="548" on="0"/>
        <pt x="180" y="511" on="1"/>
        <pt x="180" y="472" on="0"/>
        <pt x="181" y="398" on="0"/>
        <pt x="181" y="379" on="1"/>
        <pt x="225" y="379" on="0"/>
        <pt x="295" y="381" on="0"/>
        <pt x="353" y="384" on="0"/>
        <pt x="402" y="387" on="0"/>
        <pt x="424" y="389" on="1"/>
        <pt x="421" y="374" on="0"/>
        <pt x="421" y="358" on="1"/>
        <pt x="421" y="343" on="0"/>
        <pt x="424" y="328" on="1"/>
        <pt x="398" y="331" on="0"/>
        <pt x="329" y="335" on="0"/>
        <pt x="260" y="336" on="0"/>
        <pt x="199" y="337" on="0"/>
        <pt x="181" y="337" on="1"/>
        <pt x="181" y="328" on="0"/>
        <pt x="180" y="307" on="0"/>
        <pt x="180" y="291" on="1"/>
        <pt x="180" y="252" on="1"/>
        <pt x="180" y="192" on="1"/>
        <pt x="180" y="135" on="0"/>
        <pt x="181" y="61" on="0"/>
        <pt x="182" y="42" on="1"/>
        <pt x="215" y="42" on="0"/>
        <pt x="252" y="42" on="1"/>
        <pt x="290" y="42" on="0"/>
        <pt x="363" y="45" on="0"/>
        <pt x="428" y="50" on="0"/>
        <pt x="452" y="55" on="1"/>
        <pt x="450" y="48" on="0"/>
        <pt x="449" y="31" on="0"/>
        <pt x="449" y="24" on="1"/>
        <pt x="449" y="8" on="0"/>
        <pt x="452" y="-2" on="1"/>
        <pt x="407" y="0" on="0"/>
        <pt x="318" y="0" on="0"/>
        <pt x="272" y="0" on="1"/>
        <pt x="226" y="0" on="0"/>
        <pt x="136" y="0" on="0"/>
        <pt x="90" y="-2" on="1"/>
        <pt x="93" y="62" on="0"/>
        <pt x="98" y="189" on="0"/>
        <pt x="98" y="255" on="1"/>
        <pt x="98" y="427" on="1"/>
      </contour>
    </TTGlyph>
    <TTGlyph name="Eacute" xMin="90" yMin="-2" xMax="452" yMax="904">
      <contour>
        <pt x="345" y="880" on="1"/>
        <pt x="369" y="904" on="0"/>
        <pt x="390" y="904" on="1"/>
        <pt x="400" y="904" on="0"/>
        <pt x="423" y="888" on="0"/>
        <pt x="423" y="872" on="1"/>
        <pt x="423" y="854" on="0"/>
        <pt x="399" y="833" on="0"/>
        <pt x="387" y="825" on="1"/>
        <pt x="240" y="731" on="1"/>
        <pt x="198" y="731" on="1"/>
      </contour>
      <contour>
        <pt x="98" y="427" on="1"/>
        <pt x="98" y="493" on="0"/>
        <pt x="93" y="621" on="0"/>
        <pt x="90" y="685" on="1"/>
        <pt x="135" y="683" on="0"/>
        <pt x="224" y="680" on="0"/>
        <pt x="269" y="680" on="1"/>
        <pt x="314" y="680" on="0"/>
        <pt x="402" y="683" on="0"/>
        <pt x="447" y="685" on="1"/>
        <pt x="444" y="670" on="0"/>
        <pt x="444" y="655" on="1"/>
        <pt x="444" y="640" on="0"/>
        <pt x="447" y="625" on="1"/>
        <pt x="415" y="627" on="0"/>
        <pt x="362" y="631" on="0"/>
        <pt x="303" y="635" on="0"/>
        <pt x="233" y="638" on="0"/>
        <pt x="184" y="638" on="1"/>
        <pt x="183" y="606" on="0"/>
        <pt x="180" y="548" on="0"/>
        <pt x="180" y="511" on="1"/>
        <pt x="180" y="472" on="0"/>
        <pt x="181" y="398" on="0"/>
        <pt x="181" y="379" on="1"/>
        <pt x="225" y="379" on="0"/>
        <pt x="295" y="381" on="0"/>
        <pt x="353" y="384" on="0"/>
        <pt x="402" y="387" on="0"/>
        <pt x="424" y="389" on="1"/>
        <pt x="421" y="374" on="0"/>
        <pt x="421" y="358" on="1"/>
        <pt x="421" y="343" on="0"/>
        <pt x="424" y="328" on="1"/>
        <pt x="398" y="331" on="0"/>
        <pt x="329" y="335" on="0"/>
        <pt x="260" y="336" on="0"/>
        <pt x="199" y="337" on="0"/>
        <pt x="181" y="337" on="1"/>
        <pt x="181" y="328" on="0"/>
        <pt x="180" y="307" on="0"/>
        <pt x="180" y="291" on="1"/>
        <pt x="180" y="252" on="1"/>
        <pt x="180" y="192" on="1"/>
        <pt x="180" y="135" on="0"/>
        <pt x="181" y="61" on="0"/>
        <pt x="182" y="42" on="1"/>
        <pt x="215" y="42" on="0"/>
        <pt x="252" y="42" on="1"/>
        <pt x="290" y="42" on="0"/>
        <pt x="363" y="45" on="0"/>
        <pt x="428" y="50" on="0"/>
        <pt x="452" y="55" on="1"/>
        <pt x="450" y="48" on="0"/>
        <pt x="449" y="31" on="0"/>
        <pt x="449" y="24" on="1"/>
        <pt x="449" y="8" on="0"/>
        <pt x="452" y="-2" on="1"/>
        <pt x="407" y="0" on="0"/>
        <pt x="318" y="0" on="0"/>
        <pt x="272" y="0" on="1"/>
        <pt x="226" y="0" on="0"/>
        <pt x="136" y="0" on="0"/>
        <pt x="90" y="-2" on="1"/>
        <pt x="93" y="62" on="0"/>
        <pt x="98" y="189" on="0"/>
        <pt x="98" y="255" on="1"/>
      </contour>
    </TTGlyph>
    <TTGlyph name="Ecircumflex" xMin="90" yMin="-2" xMax="452" yMax="898">
      <contour>
        <pt x="147" y="731" on="1"/>
        <pt x="110" y="731" on="1"/>
        <pt x="233" y="898" on="1"/>
        <pt x="300" y="898" on="1"/>
        <pt x="423" y="731" on="1"/>
        <pt x="386" y="731" on="1"/>
        <pt x="266" y="836" on="1"/>
      </contour>
      <contour>
        <pt x="98" y="427" on="1"/>
        <pt x="98" y="493" on="0"/>
        <pt x="93" y="621" on="0"/>
        <pt x="90" y="685" on="1"/>
        <pt x="135" y="683" on="0"/>
        <pt x="224" y="680" on="0"/>
        <pt x="269" y="680" on="1"/>
        <pt x="314" y="680" on="0"/>
        <pt x="402" y="683" on="0"/>
        <pt x="447" y="685" on="1"/>
        <pt x="444" y="670" on="0"/>
        <pt x="444" y="655" on="1"/>
        <pt x="444" y="640" on="0"/>
        <pt x="447" y="625" on="1"/>
        <pt x="415" y="627" on="0"/>
        <pt x="362" y="631" on="0"/>
        <pt x="303" y="635" on="0"/>
        <pt x="233" y="638" on="0"/>
        <pt x="184" y="638" on="1"/>
        <pt x="183" y="606" on="0"/>
        <pt x="180" y="548" on="0"/>
        <pt x="180" y="511" on="1"/>
        <pt x="180" y="472" on="0"/>
        <pt x="181" y="398" on="0"/>
        <pt x="181" y="379" on="1"/>
        <pt x="225" y="379" on="0"/>
        <pt x="295" y="381" on="0"/>
        <pt x="353" y="384" on="0"/>
        <pt x="402" y="387" on="0"/>
        <pt x="424" y="389" on="1"/>
        <pt x="421" y="374" on="0"/>
        <pt x="421" y="358" on="1"/>
        <pt x="421" y="343" on="0"/>
        <pt x="424" y="328" on="1"/>
        <pt x="398" y="331" on="0"/>
        <pt x="329" y="335" on="0"/>
        <pt x="260" y="336" on="0"/>
        <pt x="199" y="337" on="0"/>
        <pt x="181" y="337" on="1"/>
        <pt x="181" y="328" on="0"/>
        <pt x="180" y="307" on="0"/>
        <pt x="180" y="291" on="1"/>
        <pt x="180" y="252" on="1"/>
        <pt x="180" y="192" on="1"/>
        <pt x="180" y="135" on="0"/>
        <pt x="181" y="61" on="0"/>
        <pt x="182" y="42" on="1"/>
        <pt x="215" y="42" on="0"/>
        <pt x="252" y="42" on="1"/>
        <pt x="290" y="42" on="0"/>
        <pt x="363" y="45" on="0"/>
        <pt x="428" y="50" on="0"/>
        <pt x="452" y="55" on="1"/>
        <pt x="450" y="48" on="0"/>
        <pt x="449" y="31" on="0"/>
        <pt x="449" y="24" on="1"/>
        <pt x="449" y="8" on="0"/>
        <pt x="452" y="-2" on="1"/>
        <pt x="407" y="0" on="0"/>
        <pt x="318" y="0" on="0"/>
        <pt x="272" y="0" on="1"/>
        <pt x="226" y="0" on="0"/>
        <pt x="136" y="0" on="0"/>
        <pt x="90" y="-2" on="1"/>
        <pt x="93" y="62" on="0"/>
        <pt x="98" y="189" on="0"/>
        <pt x="98" y="255" on="1"/>
      </contour>
    </TTGlyph>
    <TTGlyph name="Edieresis" xMin="90" yMin="-2" xMax="452" yMax="860">
      <contour>
        <pt x="117" y="809" on="1"/>
        <pt x="117" y="830" on="0"/>
        <pt x="147" y="860" on="0"/>
        <pt x="168" y="860" on="1"/>
        <pt x="189" y="860" on="0"/>
        <pt x="219" y="830" on="0"/>
        <pt x="219" y="809" on="1"/>
        <pt x="219" y="788" on="0"/>
        <pt x="189" y="758" on="0"/>
        <pt x="168" y="758" on="1"/>
        <pt x="147" y="758" on="0"/>
        <pt x="117" y="788" on="0"/>
      </contour>
      <contour>
        <pt x="314" y="809" on="1"/>
        <pt x="314" y="830" on="0"/>
        <pt x="344" y="860" on="0"/>
        <pt x="365" y="860" on="1"/>
        <pt x="386" y="860" on="0"/>
        <pt x="416" y="830" on="0"/>
        <pt x="416" y="809" on="1"/>
        <pt x="416" y="788" on="0"/>
        <pt x="386" y="758" on="0"/>
        <pt x="365" y="758" on="1"/>
        <pt x="344" y="758" on="0"/>
        <pt x="314" y="788" on="0"/>
      </contour>
      <contour>
        <pt x="98" y="427" on="1"/>
        <pt x="98" y="493" on="0"/>
        <pt x="93" y="621" on="0"/>
        <pt x="90" y="685" on="1"/>
        <pt x="135" y="683" on="0"/>
        <pt x="224" y="680" on="0"/>
        <pt x="269" y="680" on="1"/>
        <pt x="314" y="680" on="0"/>
        <pt x="402" y="683" on="0"/>
        <pt x="447" y="685" on="1"/>
        <pt x="444" y="670" on="0"/>
        <pt x="444" y="655" on="1"/>
        <pt x="444" y="640" on="0"/>
        <pt x="447" y="625" on="1"/>
        <pt x="415" y="627" on="0"/>
        <pt x="362" y="631" on="0"/>
        <pt x="303" y="635" on="0"/>
        <pt x="233" y="638" on="0"/>
        <pt x="184" y="638" on="1"/>
        <pt x="183" y="606" on="0"/>
        <pt x="180" y="548" on="0"/>
        <pt x="180" y="511" on="1"/>
        <pt x="180" y="472" on="0"/>
        <pt x="181" y="398" on="0"/>
        <pt x="181" y="379" on="1"/>
        <pt x="225" y="379" on="0"/>
        <pt x="295" y="381" on="0"/>
        <pt x="353" y="384" on="0"/>
        <pt x="402" y="387" on="0"/>
        <pt x="424" y="389" on="1"/>
        <pt x="421" y="374" on="0"/>
        <pt x="421" y="358" on="1"/>
        <pt x="421" y="343" on="0"/>
        <pt x="424" y="328" on="1"/>
        <pt x="398" y="331" on="0"/>
        <pt x="329" y="335" on="0"/>
        <pt x="260" y="336" on="0"/>
        <pt x="199" y="337" on="0"/>
        <pt x="181" y="337" on="1"/>
        <pt x="181" y="328" on="0"/>
        <pt x="180" y="307" on="0"/>
        <pt x="180" y="291" on="1"/>
        <pt x="180" y="252" on="1"/>
        <pt x="180" y="192" on="1"/>
        <pt x="180" y="135" on="0"/>
        <pt x="181" y="61" on="0"/>
        <pt x="182" y="42" on="1"/>
        <pt x="215" y="42" on="0"/>
        <pt x="252" y="42" on="1"/>
        <pt x="290" y="42" on="0"/>
        <pt x="363" y="45" on="0"/>
        <pt x="428" y="50" on="0"/>
        <pt x="452" y="55" on="1"/>
        <pt x="450" y="48" on="0"/>
        <pt x="449" y="31" on="0"/>
        <pt x="449" y="24" on="1"/>
        <pt x="449" y="8" on="0"/>
        <pt x="452" y="-2" on="1"/>
        <pt x="407" y="0" on="0"/>
        <pt x="318" y="0" on="0"/>
        <pt x="272" y="0" on="1"/>
        <pt x="226" y="0" on="0"/>
        <pt x="136" y="0" on="0"/>
        <pt x="90" y="-2" on="1"/>
        <pt x="93" y="62" on="0"/>
        <pt x="98" y="189" on="0"/>
        <pt x="98" y="255" on="1"/>
      </contour>
    </TTGlyph>
    <TTGlyph name="Egrave" xMin="90" yMin="-2" xMax="452" yMax="904">
      <contour>
        <pt x="146" y="825" on="1"/>
        <pt x="134" y="833" on="0"/>
        <pt x="110" y="854" on="0"/>
        <pt x="110" y="872" on="1"/>
        <pt x="110" y="888" on="0"/>
        <pt x="133" y="904" on="0"/>
        <pt x="143" y="904" on="1"/>
        <pt x="164" y="904" on="0"/>
        <pt x="188" y="880" on="1"/>
        <pt x="335" y="731" on="1"/>
        <pt x="293" y="731" on="1"/>
      </contour>
      <contour>
        <pt x="98" y="427" on="1"/>
        <pt x="98" y="493" on="0"/>
        <pt x="93" y="621" on="0"/>
        <pt x="90" y="685" on="1"/>
        <pt x="135" y="683" on="0"/>
        <pt x="224" y="680" on="0"/>
        <pt x="269" y="680" on="1"/>
        <pt x="314" y="680" on="0"/>
        <pt x="402" y="683" on="0"/>
        <pt x="447" y="685" on="1"/>
        <pt x="444" y="670" on="0"/>
        <pt x="444" y="655" on="1"/>
        <pt x="444" y="640" on="0"/>
        <pt x="447" y="625" on="1"/>
        <pt x="415" y="627" on="0"/>
        <pt x="362" y="631" on="0"/>
        <pt x="303" y="635" on="0"/>
        <pt x="233" y="638" on="0"/>
        <pt x="184" y="638" on="1"/>
        <pt x="183" y="606" on="0"/>
        <pt x="180" y="548" on="0"/>
        <pt x="180" y="511" on="1"/>
        <pt x="180" y="472" on="0"/>
        <pt x="181" y="398" on="0"/>
        <pt x="181" y="379" on="1"/>
        <pt x="225" y="379" on="0"/>
        <pt x="295" y="381" on="0"/>
        <pt x="353" y="384" on="0"/>
        <pt x="402" y="387" on="0"/>
        <pt x="424" y="389" on="1"/>
        <pt x="421" y="374" on="0"/>
        <pt x="421" y="358" on="1"/>
        <pt x="421" y="343" on="0"/>
        <pt x="424" y="328" on="1"/>
        <pt x="398" y="331" on="0"/>
        <pt x="329" y="335" on="0"/>
        <pt x="260" y="336" on="0"/>
        <pt x="199" y="337" on="0"/>
        <pt x="181" y="337" on="1"/>
        <pt x="181" y="328" on="0"/>
        <pt x="180" y="307" on="0"/>
        <pt x="180" y="291" on="1"/>
        <pt x="180" y="252" on="1"/>
        <pt x="180" y="192" on="1"/>
        <pt x="180" y="135" on="0"/>
        <pt x="181" y="61" on="0"/>
        <pt x="182" y="42" on="1"/>
        <pt x="215" y="42" on="0"/>
        <pt x="252" y="42" on="1"/>
        <pt x="290" y="42" on="0"/>
        <pt x="363" y="45" on="0"/>
        <pt x="428" y="50" on="0"/>
        <pt x="452" y="55" on="1"/>
        <pt x="450" y="48" on="0"/>
        <pt x="449" y="31" on="0"/>
        <pt x="449" y="24" on="1"/>
        <pt x="449" y="8" on="0"/>
        <pt x="452" y="-2" on="1"/>
        <pt x="407" y="0" on="0"/>
        <pt x="318" y="0" on="0"/>
        <pt x="272" y="0" on="1"/>
        <pt x="226" y="0" on="0"/>
        <pt x="136" y="0" on="0"/>
        <pt x="90" y="-2" on="1"/>
        <pt x="93" y="62" on="0"/>
        <pt x="98" y="189" on="0"/>
        <pt x="98" y="255" on="1"/>
      </contour>
    </TTGlyph>
    <TTGlyph name="Eth" xMin="0" yMin="-2" xMax="722" yMax="685">
      <contour>
        <pt x="98" y="426" on="1"/>
        <pt x="98" y="492" on="0"/>
        <pt x="93" y="619" on="0"/>
        <pt x="90" y="685" on="1"/>
        <pt x="128" y="683" on="0"/>
        <pt x="203" y="680" on="0"/>
        <pt x="241" y="680" on="1"/>
        <pt x="279" y="680" on="0"/>
        <pt x="354" y="685" on="0"/>
        <pt x="392" y="685" on="1"/>
        <pt x="480" y="685" on="0"/>
        <pt x="605" y="639" on="0"/>
        <pt x="685" y="554" on="0"/>
        <pt x="722" y="431" on="0"/>
        <pt x="722" y="354" on="1"/>
        <pt x="722" y="254" on="0"/>
        <pt x="653" y="117" on="0"/>
        <pt x="546" y="33" on="0"/>
        <pt x="417" y="-2" on="0"/>
        <pt x="358" y="-2" on="1"/>
        <pt x="324" y="-2" on="0"/>
        <pt x="258" y="0" on="0"/>
        <pt x="224" y="0" on="1"/>
        <pt x="190" y="0" on="0"/>
        <pt x="124" y="0" on="0"/>
        <pt x="90" y="-2" on="1"/>
        <pt x="93" y="60" on="0"/>
        <pt x="98" y="188" on="0"/>
        <pt x="98" y="254" on="1"/>
        <pt x="98" y="365" on="1"/>
        <pt x="51" y="365" on="1"/>
        <pt x="40" y="365" on="0"/>
        <pt x="14" y="364" on="0"/>
        <pt x="0" y="363" on="1"/>
        <pt x="1" y="368" on="0"/>
        <pt x="2" y="379" on="0"/>
        <pt x="2" y="384" on="1"/>
        <pt x="2" y="389" on="0"/>
        <pt x="1" y="399" on="0"/>
        <pt x="0" y="404" on="1"/>
        <pt x="14" y="403" on="0"/>
        <pt x="40" y="402" on="0"/>
        <pt x="51" y="402" on="1"/>
        <pt x="98" y="402" on="1"/>
      </contour>
      <contour>
        <pt x="180" y="254" on="1"/>
        <pt x="180" y="146" on="0"/>
        <pt x="186" y="42" on="1"/>
        <pt x="207" y="37" on="0"/>
        <pt x="279" y="32" on="0"/>
        <pt x="317" y="32" on="1"/>
        <pt x="372" y="32" on="0"/>
        <pt x="482" y="58" on="0"/>
        <pt x="569" y="130" on="0"/>
        <pt x="624" y="255" on="0"/>
        <pt x="624" y="354" on="1"/>
        <pt x="624" y="441" on="0"/>
        <pt x="581" y="553" on="0"/>
        <pt x="506" y="618" on="0"/>
        <pt x="402" y="643" on="0"/>
        <pt x="340" y="643" on="1"/>
        <pt x="295" y="643" on="0"/>
        <pt x="217" y="637" on="0"/>
        <pt x="186" y="633" on="1"/>
        <pt x="183" y="585" on="0"/>
        <pt x="180" y="480" on="0"/>
        <pt x="180" y="426" on="1"/>
        <pt x="180" y="402" on="1"/>
        <pt x="228" y="402" on="0"/>
        <pt x="326" y="403" on="0"/>
        <pt x="372" y="405" on="1"/>
        <pt x="369" y="395" on="0"/>
        <pt x="369" y="384" on="1"/>
        <pt x="369" y="373" on="0"/>
        <pt x="372" y="361" on="1"/>
        <pt x="326" y="363" on="0"/>
        <pt x="228" y="365" on="0"/>
        <pt x="180" y="365" on="1"/>
      </contour>
    </TTGlyph>
    <TTGlyph name="Euro" xMin="22" yMin="-10" xMax="548" yMax="672">
      <contour>
        <pt x="548" y="622" on="1"/>
        <pt x="540" y="602" on="0"/>
        <pt x="530" y="563" on="0"/>
        <pt x="525" y="543" on="1"/>
        <pt x="510" y="542" on="1"/>
        <pt x="486" y="584" on="0"/>
        <pt x="407" y="629" on="0"/>
        <pt x="370" y="629" on="1"/>
        <pt x="305" y="629" on="0"/>
        <pt x="207" y="519" on="0"/>
        <pt x="191" y="405" on="1"/>
        <pt x="357" y="405" on="1"/>
        <pt x="385" y="405" on="0"/>
        <pt x="441" y="406" on="0"/>
        <pt x="464" y="411" on="1"/>
        <pt x="459" y="401" on="0"/>
        <pt x="450" y="365" on="0"/>
        <pt x="448" y="354" on="1"/>
        <pt x="427" y="358" on="0"/>
        <pt x="375" y="360" on="0"/>
        <pt x="351" y="360" on="1"/>
        <pt x="187" y="360" on="1"/>
        <pt x="186" y="347" on="0"/>
        <pt x="185" y="320" on="0"/>
        <pt x="185" y="306" on="1"/>
        <pt x="185" y="298" on="1"/>
        <pt x="327" y="298" on="1"/>
        <pt x="355" y="298" on="0"/>
        <pt x="411" y="299" on="0"/>
        <pt x="434" y="304" on="1"/>
        <pt x="429" y="294" on="0"/>
        <pt x="420" y="258" on="0"/>
        <pt x="418" y="247" on="1"/>
        <pt x="397" y="251" on="0"/>
        <pt x="345" y="253" on="0"/>
        <pt x="321" y="253" on="1"/>
        <pt x="188" y="253" on="1"/>
        <pt x="200" y="148" on="0"/>
        <pt x="300" y="31" on="0"/>
        <pt x="369" y="31" on="1"/>
        <pt x="409" y="31" on="0"/>
        <pt x="489" y="70" on="0"/>
        <pt x="524" y="108" on="1"/>
        <pt x="532" y="96" on="1"/>
        <pt x="526" y="69" on="0"/>
        <pt x="523" y="38" on="1"/>
        <pt x="511" y="27" on="0"/>
        <pt x="472" y="9" on="0"/>
        <pt x="426" y="-3" on="0"/>
        <pt x="377" y="-10" on="0"/>
        <pt x="354" y="-10" on="1"/>
        <pt x="303" y="-10" on="0"/>
        <pt x="216" y="23" on="0"/>
        <pt x="148" y="91" on="0"/>
        <pt x="104" y="190" on="0"/>
        <pt x="96" y="253" on="1"/>
        <pt x="45" y="252" on="0"/>
        <pt x="22" y="247" on="1"/>
        <pt x="33" y="273" on="0"/>
        <pt x="37" y="304" on="1"/>
        <pt x="45" y="302" on="0"/>
        <pt x="72" y="300" on="0"/>
        <pt x="92" y="299" on="1"/>
        <pt x="92" y="319" on="1"/>
        <pt x="92" y="330" on="0"/>
        <pt x="93" y="350" on="0"/>
        <pt x="94" y="360" on="1"/>
        <pt x="45" y="359" on="0"/>
        <pt x="22" y="354" on="1"/>
        <pt x="33" y="380" on="0"/>
        <pt x="37" y="411" on="1"/>
        <pt x="45" y="409" on="0"/>
        <pt x="77" y="407" on="0"/>
        <pt x="100" y="406" on="1"/>
        <pt x="111" y="463" on="0"/>
        <pt x="161" y="560" on="0"/>
        <pt x="232" y="631" on="0"/>
        <pt x="322" y="672" on="0"/>
        <pt x="373" y="672" on="1"/>
        <pt x="417" y="672" on="0"/>
        <pt x="513" y="643" on="0"/>
      </contour>
    </TTGlyph>
    <TTGlyph name="F" xMin="90" yMin="-2" xMax="460" yMax="685">
      <contour>
        <pt x="98" y="426" on="1"/>
        <pt x="98" y="492" on="0"/>
        <pt x="93" y="619" on="0"/>
        <pt x="90" y="685" on="1"/>
        <pt x="135" y="683" on="0"/>
        <pt x="224" y="680" on="0"/>
        <pt x="269" y="680" on="1"/>
        <pt x="314" y="680" on="0"/>
        <pt x="406" y="683" on="0"/>
        <pt x="460" y="685" on="1"/>
        <pt x="457" y="670" on="0"/>
        <pt x="457" y="655" on="1"/>
        <pt x="457" y="640" on="0"/>
        <pt x="460" y="625" on="1"/>
        <pt x="433" y="628" on="0"/>
        <pt x="357" y="633" on="0"/>
        <pt x="278" y="636" on="0"/>
        <pt x="205" y="638" on="0"/>
        <pt x="181" y="638" on="1"/>
        <pt x="180" y="603" on="0"/>
        <pt x="179" y="539" on="0"/>
        <pt x="179" y="507" on="1"/>
        <pt x="179" y="472" on="0"/>
        <pt x="180" y="413" on="0"/>
        <pt x="180" y="381" on="1"/>
        <pt x="246" y="381" on="0"/>
        <pt x="375" y="385" on="0"/>
        <pt x="438" y="391" on="1"/>
        <pt x="434" y="376" on="0"/>
        <pt x="434" y="361" on="1"/>
        <pt x="434" y="346" on="0"/>
        <pt x="438" y="331" on="1"/>
        <pt x="413" y="334" on="0"/>
        <pt x="350" y="337" on="0"/>
        <pt x="282" y="339" on="0"/>
        <pt x="247" y="339" on="1"/>
        <pt x="212" y="339" on="0"/>
        <pt x="180" y="339" on="1"/>
        <pt x="180" y="254" on="1"/>
        <pt x="180" y="188" on="0"/>
        <pt x="185" y="60" on="0"/>
        <pt x="188" y="-2" on="1"/>
        <pt x="165" y="0" on="0"/>
        <pt x="139" y="0" on="1"/>
        <pt x="113" y="0" on="0"/>
        <pt x="90" y="-2" on="1"/>
        <pt x="93" y="60" on="0"/>
        <pt x="98" y="188" on="0"/>
        <pt x="98" y="254" on="1"/>
        <pt x="98" y="426" on="1"/>
      </contour>
    </TTGlyph>
    <TTGlyph name="G" xMin="60" yMin="-15" xMax="706" yMax="698">
      <contour>
        <pt x="671" y="563" on="1"/>
        <pt x="656" y="581" on="0"/>
        <pt x="611" y="617" on="0"/>
        <pt x="556" y="644" on="0"/>
        <pt x="489" y="661" on="0"/>
        <pt x="451" y="661" on="1"/>
        <pt x="389" y="661" on="0"/>
        <pt x="282" y="623" on="0"/>
        <pt x="203" y="544" on="0"/>
        <pt x="158" y="423" on="0"/>
        <pt x="158" y="340" on="1"/>
        <pt x="158" y="267" on="0"/>
        <pt x="198" y="149" on="0"/>
        <pt x="275" y="68" on="0"/>
        <pt x="386" y="24" on="0"/>
        <pt x="456" y="24" on="1"/>
        <pt x="477" y="24" on="0"/>
        <pt x="523" y="28" on="0"/>
        <pt x="566" y="36" on="0"/>
        <pt x="603" y="48" on="0"/>
        <pt x="616" y="56" on="1"/>
        <pt x="617" y="86" on="0"/>
        <pt x="618" y="146" on="0"/>
        <pt x="618" y="177" on="1"/>
        <pt x="618" y="212" on="0"/>
        <pt x="615" y="282" on="0"/>
        <pt x="613" y="314" on="1"/>
        <pt x="638" y="309" on="0"/>
        <pt x="661" y="309" on="1"/>
        <pt x="672" y="309" on="0"/>
        <pt x="694" y="311" on="0"/>
        <pt x="704" y="314" on="1"/>
        <pt x="702" y="291" on="0"/>
        <pt x="700" y="192" on="0"/>
        <pt x="700" y="111" on="1"/>
        <pt x="700" y="91" on="0"/>
        <pt x="701" y="50" on="0"/>
        <pt x="701" y="30" on="1"/>
        <pt x="680" y="22" on="0"/>
        <pt x="617" y="5" on="0"/>
        <pt x="546" y="-6" on="0"/>
        <pt x="475" y="-15" on="0"/>
        <pt x="446" y="-15" on="1"/>
        <pt x="357" y="-15" on="0"/>
        <pt x="214" y="28" on="0"/>
        <pt x="114" y="118" on="0"/>
        <pt x="60" y="252" on="0"/>
        <pt x="60" y="340" on="1"/>
        <pt x="60" y="425" on="0"/>
        <pt x="116" y="558" on="0"/>
        <pt x="218" y="650" on="0"/>
        <pt x="363" y="698" on="0"/>
        <pt x="451" y="698" on="1"/>
        <pt x="502" y="698" on="0"/>
        <pt x="581" y="687" on="0"/>
        <pt x="642" y="669" on="0"/>
        <pt x="688" y="649" on="0"/>
        <pt x="706" y="640" on="1"/>
        <pt x="698" y="626" on="0"/>
        <pt x="685" y="582" on="0"/>
        <pt x="683" y="563" on="1"/>
        <pt x="671" y="563" on="1"/>
      </contour>
    </TTGlyph>
    <TTGlyph name="H" xMin="90" yMin="-2" xMax="688" yMax="685">
      <contour>
        <pt x="598" y="426" on="1"/>
        <pt x="598" y="492" on="0"/>
        <pt x="593" y="619" on="0"/>
        <pt x="590" y="685" on="1"/>
        <pt x="603" y="683" on="0"/>
        <pt x="627" y="680" on="0"/>
        <pt x="639" y="680" on="1"/>
        <pt x="651" y="680" on="0"/>
        <pt x="675" y="683" on="0"/>
        <pt x="688" y="685" on="1"/>
        <pt x="685" y="619" on="0"/>
        <pt x="680" y="492" on="0"/>
        <pt x="680" y="426" on="1"/>
        <pt x="680" y="254" on="1"/>
        <pt x="680" y="188" on="0"/>
        <pt x="685" y="60" on="0"/>
        <pt x="688" y="-2" on="1"/>
        <pt x="665" y="0" on="0"/>
        <pt x="639" y="0" on="1"/>
        <pt x="613" y="0" on="0"/>
        <pt x="590" y="-2" on="1"/>
        <pt x="593" y="60" on="0"/>
        <pt x="598" y="188" on="0"/>
        <pt x="598" y="254" on="1"/>
        <pt x="598" y="344" on="1"/>
        <pt x="544" y="345" on="0"/>
        <pt x="443" y="346" on="0"/>
        <pt x="389" y="346" on="1"/>
        <pt x="335" y="346" on="0"/>
        <pt x="234" y="345" on="0"/>
        <pt x="180" y="344" on="1"/>
        <pt x="180" y="254" on="1"/>
        <pt x="180" y="188" on="0"/>
        <pt x="185" y="60" on="0"/>
        <pt x="188" y="-2" on="1"/>
        <pt x="165" y="0" on="0"/>
        <pt x="139" y="0" on="1"/>
        <pt x="113" y="0" on="0"/>
        <pt x="90" y="-2" on="1"/>
        <pt x="93" y="60" on="0"/>
        <pt x="98" y="188" on="0"/>
        <pt x="98" y="254" on="1"/>
        <pt x="98" y="426" on="1"/>
        <pt x="98" y="492" on="0"/>
        <pt x="93" y="619" on="0"/>
        <pt x="90" y="685" on="1"/>
        <pt x="103" y="683" on="0"/>
        <pt x="127" y="680" on="0"/>
        <pt x="139" y="680" on="1"/>
        <pt x="151" y="680" on="0"/>
        <pt x="175" y="683" on="0"/>
        <pt x="188" y="685" on="1"/>
        <pt x="185" y="619" on="0"/>
        <pt x="180" y="492" on="0"/>
        <pt x="180" y="426" on="1"/>
        <pt x="180" y="391" on="1"/>
        <pt x="234" y="390" on="0"/>
        <pt x="335" y="388" on="0"/>
        <pt x="389" y="388" on="1"/>
        <pt x="443" y="388" on="0"/>
        <pt x="544" y="390" on="0"/>
        <pt x="598" y="391" on="1"/>
        <pt x="598" y="426" on="1"/>
      </contour>
    </TTGlyph>
    <TTGlyph name="I" xMin="90" yMin="-2" xMax="188" yMax="685">
      <contour>
        <pt x="98" y="426" on="1"/>
        <pt x="98" y="492" on="0"/>
        <pt x="93" y="619" on="0"/>
        <pt x="90" y="685" on="1"/>
        <pt x="103" y="683" on="0"/>
        <pt x="127" y="680" on="0"/>
        <pt x="139" y="680" on="1"/>
        <pt x="151" y="680" on="0"/>
        <pt x="175" y="683" on="0"/>
        <pt x="188" y="685" on="1"/>
        <pt x="185" y="619" on="0"/>
        <pt x="180" y="492" on="0"/>
        <pt x="180" y="426" on="1"/>
        <pt x="180" y="254" on="1"/>
        <pt x="180" y="188" on="0"/>
        <pt x="185" y="60" on="0"/>
        <pt x="188" y="-2" on="1"/>
        <pt x="165" y="0" on="0"/>
        <pt x="139" y="0" on="1"/>
        <pt x="113" y="0" on="0"/>
        <pt x="90" y="-2" on="1"/>
        <pt x="93" y="60" on="0"/>
        <pt x="98" y="188" on="0"/>
        <pt x="98" y="254" on="1"/>
        <pt x="98" y="426" on="1"/>
      </contour>
    </TTGlyph>
    <TTGlyph name="Iacute" xMin="71" yMin="-2" xMax="296" yMax="904">
      <contour>
        <pt x="218" y="880" on="1"/>
        <pt x="242" y="904" on="0"/>
        <pt x="263" y="904" on="1"/>
        <pt x="273" y="904" on="0"/>
        <pt x="296" y="888" on="0"/>
        <pt x="296" y="872" on="1"/>
        <pt x="296" y="854" on="0"/>
        <pt x="272" y="833" on="0"/>
        <pt x="260" y="825" on="1"/>
        <pt x="113" y="731" on="1"/>
        <pt x="71" y="731" on="1"/>
      </contour>
      <contour>
        <pt x="98" y="426" on="1"/>
        <pt x="98" y="492" on="0"/>
        <pt x="93" y="619" on="0"/>
        <pt x="90" y="685" on="1"/>
        <pt x="103" y="683" on="0"/>
        <pt x="127" y="680" on="0"/>
        <pt x="139" y="680" on="1"/>
        <pt x="151" y="680" on="0"/>
        <pt x="175" y="683" on="0"/>
        <pt x="188" y="685" on="1"/>
        <pt x="185" y="619" on="0"/>
        <pt x="180" y="492" on="0"/>
        <pt x="180" y="426" on="1"/>
        <pt x="180" y="254" on="1"/>
        <pt x="180" y="188" on="0"/>
        <pt x="185" y="60" on="0"/>
        <pt x="188" y="-2" on="1"/>
        <pt x="165" y="0" on="0"/>
        <pt x="139" y="0" on="1"/>
        <pt x="113" y="0" on="0"/>
        <pt x="90" y="-2" on="1"/>
        <pt x="93" y="60" on="0"/>
        <pt x="98" y="188" on="0"/>
        <pt x="98" y="254" on="1"/>
      </contour>
    </TTGlyph>
    <TTGlyph name="Icircumflex" xMin="-14" yMin="-2" xMax="296" yMax="898">
      <contour>
        <pt x="20" y="731" on="1"/>
        <pt x="-14" y="731" on="1"/>
        <pt x="106" y="898" on="1"/>
        <pt x="173" y="898" on="1"/>
        <pt x="296" y="731" on="1"/>
        <pt x="259" y="731" on="1"/>
        <pt x="139" y="836" on="1"/>
      </contour>
      <contour>
        <pt x="98" y="426" on="1"/>
        <pt x="98" y="492" on="0"/>
        <pt x="93" y="619" on="0"/>
        <pt x="90" y="685" on="1"/>
        <pt x="103" y="683" on="0"/>
        <pt x="127" y="680" on="0"/>
        <pt x="139" y="680" on="1"/>
        <pt x="151" y="680" on="0"/>
        <pt x="175" y="683" on="0"/>
        <pt x="188" y="685" on="1"/>
        <pt x="185" y="619" on="0"/>
        <pt x="180" y="492" on="0"/>
        <pt x="180" y="426" on="1"/>
        <pt x="180" y="254" on="1"/>
        <pt x="180" y="188" on="0"/>
        <pt x="185" y="60" on="0"/>
        <pt x="188" y="-2" on="1"/>
        <pt x="165" y="0" on="0"/>
        <pt x="139" y="0" on="1"/>
        <pt x="113" y="0" on="0"/>
        <pt x="90" y="-2" on="1"/>
        <pt x="93" y="60" on="0"/>
        <pt x="98" y="188" on="0"/>
        <pt x="98" y="254" on="1"/>
      </contour>
    </TTGlyph>
    <TTGlyph name="Idieresis" xMin="-7" yMin="-2" xMax="289" yMax="860">
      <contour>
        <pt x="-7" y="809" on="1"/>
        <pt x="-7" y="830" on="0"/>
        <pt x="20" y="860" on="0"/>
        <pt x="41" y="860" on="1"/>
        <pt x="62" y="860" on="0"/>
        <pt x="92" y="830" on="0"/>
        <pt x="92" y="809" on="1"/>
        <pt x="92" y="788" on="0"/>
        <pt x="62" y="758" on="0"/>
        <pt x="41" y="758" on="1"/>
        <pt x="20" y="758" on="0"/>
        <pt x="-7" y="788" on="0"/>
      </contour>
      <contour>
        <pt x="187" y="809" on="1"/>
        <pt x="187" y="830" on="0"/>
        <pt x="217" y="860" on="0"/>
        <pt x="238" y="860" on="1"/>
        <pt x="259" y="860" on="0"/>
        <pt x="289" y="830" on="0"/>
        <pt x="289" y="809" on="1"/>
        <pt x="289" y="788" on="0"/>
        <pt x="259" y="758" on="0"/>
        <pt x="238" y="758" on="1"/>
        <pt x="217" y="758" on="0"/>
        <pt x="187" y="788" on="0"/>
      </contour>
      <contour>
        <pt x="98" y="426" on="1"/>
        <pt x="98" y="492" on="0"/>
        <pt x="93" y="619" on="0"/>
        <pt x="90" y="685" on="1"/>
        <pt x="103" y="683" on="0"/>
        <pt x="127" y="680" on="0"/>
        <pt x="139" y="680" on="1"/>
        <pt x="151" y="680" on="0"/>
        <pt x="175" y="683" on="0"/>
        <pt x="188" y="685" on="1"/>
        <pt x="185" y="619" on="0"/>
        <pt x="180" y="492" on="0"/>
        <pt x="180" y="426" on="1"/>
        <pt x="180" y="254" on="1"/>
        <pt x="180" y="188" on="0"/>
        <pt x="185" y="60" on="0"/>
        <pt x="188" y="-2" on="1"/>
        <pt x="165" y="0" on="0"/>
        <pt x="139" y="0" on="1"/>
        <pt x="113" y="0" on="0"/>
        <pt x="90" y="-2" on="1"/>
        <pt x="93" y="60" on="0"/>
        <pt x="98" y="188" on="0"/>
        <pt x="98" y="254" on="1"/>
      </contour>
    </TTGlyph>
    <TTGlyph name="Igrave" xMin="-14" yMin="-2" xMax="208" yMax="904">
      <contour>
        <pt x="19" y="825" on="1"/>
        <pt x="7" y="833" on="0"/>
        <pt x="-14" y="854" on="0"/>
        <pt x="-14" y="872" on="1"/>
        <pt x="-14" y="888" on="0"/>
        <pt x="6" y="904" on="0"/>
        <pt x="16" y="904" on="1"/>
        <pt x="37" y="904" on="0"/>
        <pt x="61" y="880" on="1"/>
        <pt x="208" y="731" on="1"/>
        <pt x="166" y="731" on="1"/>
      </contour>
      <contour>
        <pt x="98" y="426" on="1"/>
        <pt x="98" y="492" on="0"/>
        <pt x="93" y="619" on="0"/>
        <pt x="90" y="685" on="1"/>
        <pt x="103" y="683" on="0"/>
        <pt x="127" y="680" on="0"/>
        <pt x="139" y="680" on="1"/>
        <pt x="151" y="680" on="0"/>
        <pt x="175" y="683" on="0"/>
        <pt x="188" y="685" on="1"/>
        <pt x="185" y="619" on="0"/>
        <pt x="180" y="492" on="0"/>
        <pt x="180" y="426" on="1"/>
        <pt x="180" y="254" on="1"/>
        <pt x="180" y="188" on="0"/>
        <pt x="185" y="60" on="0"/>
        <pt x="188" y="-2" on="1"/>
        <pt x="165" y="0" on="0"/>
        <pt x="139" y="0" on="1"/>
        <pt x="113" y="0" on="0"/>
        <pt x="90" y="-2" on="1"/>
        <pt x="93" y="60" on="0"/>
        <pt x="98" y="188" on="0"/>
        <pt x="98" y="254" on="1"/>
      </contour>
    </TTGlyph>
    <TTGlyph name="J" xMin="-27" yMin="-141" xMax="188" yMax="685">
      <contour>
        <pt x="-27" y="-113" on="1"/>
        <pt x="15" y="-113" on="0"/>
        <pt x="65" y="-74" on="0"/>
        <pt x="91" y="-4" on="0"/>
        <pt x="98" y="92" on="0"/>
        <pt x="98" y="151" on="1"/>
        <pt x="98" y="426" on="1"/>
        <pt x="98" y="492" on="0"/>
        <pt x="93" y="619" on="0"/>
        <pt x="90" y="685" on="1"/>
        <pt x="103" y="683" on="0"/>
        <pt x="127" y="680" on="0"/>
        <pt x="139" y="680" on="1"/>
        <pt x="151" y="680" on="0"/>
        <pt x="175" y="683" on="0"/>
        <pt x="188" y="685" on="1"/>
        <pt x="185" y="619" on="0"/>
        <pt x="180" y="492" on="0"/>
        <pt x="180" y="426" on="1"/>
        <pt x="180" y="381" on="0"/>
        <pt x="181" y="285" on="0"/>
        <pt x="182" y="192" on="0"/>
        <pt x="183" y="106" on="0"/>
        <pt x="183" y="70" on="1"/>
        <pt x="183" y="25" on="0"/>
        <pt x="154" y="-50" on="0"/>
        <pt x="100" y="-108" on="0"/>
        <pt x="25" y="-141" on="0"/>
        <pt x="-19" y="-141" on="1"/>
        <pt x="-27" y="-113" on="1"/>
      </contour>
    </TTGlyph>
    <TTGlyph name="K" xMin="90" yMin="-2" xMax="601" yMax="685">
      <contour>
        <pt x="90" y="-2" on="1"/>
        <pt x="93" y="60" on="0"/>
        <pt x="98" y="188" on="0"/>
        <pt x="98" y="254" on="1"/>
        <pt x="98" y="426" on="1"/>
        <pt x="98" y="492" on="0"/>
        <pt x="93" y="619" on="0"/>
        <pt x="90" y="685" on="1"/>
        <pt x="103" y="683" on="0"/>
        <pt x="127" y="680" on="0"/>
        <pt x="139" y="680" on="1"/>
        <pt x="151" y="680" on="0"/>
        <pt x="175" y="683" on="0"/>
        <pt x="188" y="685" on="1"/>
        <pt x="185" y="619" on="0"/>
        <pt x="180" y="492" on="0"/>
        <pt x="180" y="426" on="1"/>
        <pt x="180" y="371" on="1"/>
        <pt x="180" y="363" on="0"/>
        <pt x="186" y="363" on="1"/>
        <pt x="190" y="363" on="0"/>
        <pt x="200" y="372" on="1"/>
        <pt x="235" y="402" on="0"/>
        <pt x="312" y="478" on="0"/>
        <pt x="390" y="560" on="0"/>
        <pt x="466" y="645" on="0"/>
        <pt x="501" y="685" on="1"/>
        <pt x="512" y="683" on="0"/>
        <pt x="532" y="680" on="0"/>
        <pt x="542" y="680" on="1"/>
        <pt x="554" y="680" on="0"/>
        <pt x="578" y="683" on="0"/>
        <pt x="590" y="685" on="1"/>
        <pt x="555" y="655" on="0"/>
        <pt x="467" y="573" on="0"/>
        <pt x="378" y="487" on="0"/>
        <pt x="297" y="404" on="0"/>
        <pt x="270" y="373" on="1"/>
        <pt x="351" y="282" on="0"/>
        <pt x="516" y="93" on="0"/>
        <pt x="601" y="-2" on="1"/>
        <pt x="586" y="0" on="0"/>
        <pt x="556" y="0" on="0"/>
        <pt x="541" y="0" on="1"/>
        <pt x="527" y="0" on="0"/>
        <pt x="500" y="0" on="0"/>
        <pt x="486" y="-2" on="1"/>
        <pt x="450" y="39" on="0"/>
        <pt x="363" y="145" on="0"/>
        <pt x="280" y="244" on="0"/>
        <pt x="213" y="323" on="0"/>
        <pt x="197" y="339" on="1"/>
        <pt x="189" y="347" on="0"/>
        <pt x="185" y="347" on="1"/>
        <pt x="180" y="347" on="0"/>
        <pt x="180" y="341" on="1"/>
        <pt x="180" y="254" on="1"/>
        <pt x="180" y="188" on="0"/>
        <pt x="185" y="60" on="0"/>
        <pt x="188" y="-2" on="1"/>
        <pt x="165" y="0" on="0"/>
        <pt x="139" y="0" on="1"/>
        <pt x="113" y="0" on="0"/>
      </contour>
    </TTGlyph>
    <TTGlyph name="L" xMin="90" yMin="-2" xMax="459" yMax="685">
      <contour>
        <pt x="98" y="426" on="1"/>
        <pt x="98" y="492" on="0"/>
        <pt x="93" y="619" on="0"/>
        <pt x="90" y="685" on="1"/>
        <pt x="103" y="683" on="0"/>
        <pt x="127" y="680" on="0"/>
        <pt x="139" y="680" on="1"/>
        <pt x="151" y="680" on="0"/>
        <pt x="175" y="683" on="0"/>
        <pt x="188" y="685" on="1"/>
        <pt x="185" y="619" on="0"/>
        <pt x="180" y="492" on="0"/>
        <pt x="180" y="426" on="1"/>
        <pt x="180" y="300" on="0"/>
        <pt x="182" y="115" on="0"/>
        <pt x="183" y="42" on="1"/>
        <pt x="254" y="42" on="0"/>
        <pt x="384" y="45" on="0"/>
        <pt x="459" y="55" on="1"/>
        <pt x="454" y="37" on="0"/>
        <pt x="454" y="25" on="1"/>
        <pt x="454" y="14" on="0"/>
        <pt x="459" y="-2" on="1"/>
        <pt x="413" y="0" on="0"/>
        <pt x="321" y="0" on="0"/>
        <pt x="275" y="0" on="1"/>
        <pt x="227" y="0" on="0"/>
        <pt x="138" y="0" on="0"/>
        <pt x="90" y="-2" on="1"/>
        <pt x="93" y="60" on="0"/>
        <pt x="98" y="188" on="0"/>
        <pt x="98" y="254" on="1"/>
        <pt x="98" y="426" on="1"/>
      </contour>
    </TTGlyph>
    <TTGlyph name="Lslash" xMin="-2" yMin="-2" xMax="459" yMax="685">
      <contour>
        <pt x="98" y="426" on="1"/>
        <pt x="98" y="492" on="0"/>
        <pt x="93" y="619" on="0"/>
        <pt x="90" y="685" on="1"/>
        <pt x="103" y="683" on="0"/>
        <pt x="127" y="680" on="0"/>
        <pt x="139" y="680" on="1"/>
        <pt x="151" y="680" on="0"/>
        <pt x="175" y="683" on="0"/>
        <pt x="188" y="685" on="1"/>
        <pt x="185" y="619" on="0"/>
        <pt x="180" y="492" on="0"/>
        <pt x="180" y="426" on="1"/>
        <pt x="180" y="387" on="1"/>
        <pt x="204" y="401" on="0"/>
        <pt x="255" y="434" on="0"/>
        <pt x="284" y="453" on="1"/>
        <pt x="288" y="443" on="0"/>
        <pt x="298" y="425" on="0"/>
        <pt x="303" y="417" on="1"/>
        <pt x="282" y="406" on="0"/>
        <pt x="218" y="370" on="0"/>
        <pt x="180" y="348" on="1"/>
        <pt x="180" y="258" on="1"/>
        <pt x="180" y="186" on="0"/>
        <pt x="182" y="85" on="0"/>
        <pt x="183" y="42" on="1"/>
        <pt x="254" y="42" on="0"/>
        <pt x="384" y="45" on="0"/>
        <pt x="459" y="55" on="1"/>
        <pt x="454" y="37" on="0"/>
        <pt x="454" y="25" on="1"/>
        <pt x="454" y="14" on="0"/>
        <pt x="459" y="-2" on="1"/>
        <pt x="413" y="0" on="0"/>
        <pt x="321" y="0" on="0"/>
        <pt x="275" y="0" on="1"/>
        <pt x="227" y="0" on="0"/>
        <pt x="138" y="0" on="0"/>
        <pt x="90" y="-2" on="1"/>
        <pt x="93" y="60" on="0"/>
        <pt x="98" y="188" on="0"/>
        <pt x="98" y="254" on="1"/>
        <pt x="98" y="297" on="1"/>
        <pt x="69" y="280" on="0"/>
        <pt x="25" y="251" on="0"/>
        <pt x="17" y="243" on="1"/>
        <pt x="10" y="260" on="0"/>
        <pt x="-2" y="280" on="1"/>
        <pt x="23" y="295" on="0"/>
        <pt x="73" y="323" on="0"/>
        <pt x="98" y="337" on="1"/>
        <pt x="98" y="426" on="1"/>
      </contour>
    </TTGlyph>
    <TTGlyph name="M" xMin="48" yMin="-2" xMax="841" yMax="698">
      <contour>
        <pt x="162" y="698" on="1"/>
        <pt x="231" y="556" on="0"/>
        <pt x="372" y="288" on="0"/>
        <pt x="449" y="147" on="1"/>
        <pt x="459" y="166" on="0"/>
        <pt x="497" y="237" on="0"/>
        <pt x="547" y="329" on="0"/>
        <pt x="604" y="436" on="0"/>
        <pt x="663" y="546" on="0"/>
        <pt x="721" y="652" on="0"/>
        <pt x="746" y="698" on="1"/>
        <pt x="759" y="698" on="1"/>
        <pt x="770" y="602" on="0"/>
        <pt x="789" y="423" on="0"/>
        <pt x="809" y="250" on="0"/>
        <pt x="829" y="81" on="0"/>
        <pt x="841" y="-2" on="1"/>
        <pt x="829" y="0" on="0"/>
        <pt x="806" y="0" on="0"/>
        <pt x="794" y="0" on="1"/>
        <pt x="782" y="0" on="0"/>
        <pt x="759" y="0" on="0"/>
        <pt x="747" y="-2" on="1"/>
        <pt x="736" y="131" on="0"/>
        <pt x="714" y="381" on="0"/>
        <pt x="698" y="511" on="1"/>
        <pt x="696" y="511" on="1"/>
        <pt x="627" y="385" on="0"/>
        <pt x="494" y="136" on="0"/>
        <pt x="434" y="0" on="1"/>
        <pt x="425" y="0" on="1"/>
        <pt x="365" y="126" on="0"/>
        <pt x="234" y="379" on="0"/>
        <pt x="168" y="511" on="1"/>
        <pt x="166" y="511" on="1"/>
        <pt x="159" y="449" on="0"/>
        <pt x="142" y="304" on="0"/>
        <pt x="128" y="163" on="0"/>
        <pt x="118" y="38" on="0"/>
        <pt x="118" y="-2" on="1"/>
        <pt x="102" y="0" on="0"/>
        <pt x="83" y="0" on="1"/>
        <pt x="64" y="0" on="0"/>
        <pt x="48" y="-2" on="1"/>
        <pt x="61" y="79" on="0"/>
        <pt x="89" y="259" on="0"/>
        <pt x="115" y="441" on="0"/>
        <pt x="137" y="618" on="0"/>
        <pt x="145" y="698" on="1"/>
        <pt x="162" y="698" on="1"/>
      </contour>
    </TTGlyph>
    <TTGlyph name="N" xMin="90" yMin="-15" xMax="688" yMax="698">
      <contour>
        <pt x="661" y="-15" on="1"/>
        <pt x="546" y="118" on="0"/>
        <pt x="286" y="397" on="0"/>
        <pt x="156" y="535" on="1"/>
        <pt x="155" y="507" on="0"/>
        <pt x="153" y="413" on="0"/>
        <pt x="153" y="332" on="1"/>
        <pt x="153" y="311" on="0"/>
        <pt x="154" y="249" on="0"/>
        <pt x="155" y="181" on="0"/>
        <pt x="157" y="111" on="0"/>
        <pt x="159" y="51" on="0"/>
        <pt x="161" y="6" on="0"/>
        <pt x="162" y="-2" on="1"/>
        <pt x="146" y="0" on="0"/>
        <pt x="127" y="0" on="1"/>
        <pt x="107" y="0" on="0"/>
        <pt x="90" y="-2" on="1"/>
        <pt x="92" y="8" on="0"/>
        <pt x="97" y="62" on="0"/>
        <pt x="101" y="137" on="0"/>
        <pt x="106" y="225" on="0"/>
        <pt x="109" y="313" on="0"/>
        <pt x="111" y="397" on="0"/>
        <pt x="111" y="430" on="1"/>
        <pt x="111" y="526" on="0"/>
        <pt x="110" y="664" on="0"/>
        <pt x="108" y="698" on="1"/>
        <pt x="124" y="698" on="1"/>
        <pt x="185" y="632" on="0"/>
        <pt x="324" y="481" on="0"/>
        <pt x="461" y="334" on="0"/>
        <pt x="584" y="203" on="0"/>
        <pt x="630" y="157" on="1"/>
        <pt x="630" y="293" on="1"/>
        <pt x="630" y="398" on="0"/>
        <pt x="627" y="597" on="0"/>
        <pt x="622" y="685" on="1"/>
        <pt x="642" y="680" on="0"/>
        <pt x="656" y="680" on="1"/>
        <pt x="668" y="680" on="0"/>
        <pt x="688" y="685" on="1"/>
        <pt x="686" y="663" on="0"/>
        <pt x="681" y="575" on="0"/>
        <pt x="676" y="475" on="0"/>
        <pt x="672" y="379" on="0"/>
        <pt x="672" y="350" on="1"/>
        <pt x="672" y="325" on="0"/>
        <pt x="672" y="290" on="1"/>
        <pt x="672" y="256" on="0"/>
        <pt x="673" y="182" on="0"/>
        <pt x="674" y="107" on="0"/>
        <pt x="675" y="42" on="0"/>
        <pt x="675" y="18" on="1"/>
        <pt x="675" y="-4" on="0"/>
        <pt x="675" y="-15" on="1"/>
        <pt x="661" y="-15" on="1"/>
      </contour>
    </TTGlyph>
    <TTGlyph name="Ntilde" xMin="90" yMin="-15" xMax="688" yMax="863">
      <contour>
        <pt x="241" y="756" on="1"/>
        <pt x="244" y="774" on="0"/>
        <pt x="259" y="810" on="0"/>
        <pt x="285" y="840" on="0"/>
        <pt x="321" y="859" on="0"/>
        <pt x="345" y="859" on="1"/>
        <pt x="362" y="859" on="0"/>
        <pt x="390" y="849" on="0"/>
        <pt x="418" y="836" on="1"/>
        <pt x="446" y="822" on="0"/>
        <pt x="471" y="813" on="0"/>
        <pt x="484" y="813" on="1"/>
        <pt x="507" y="813" on="0"/>
        <pt x="535" y="843" on="0"/>
        <pt x="541" y="863" on="1"/>
        <pt x="570" y="863" on="1"/>
        <pt x="568" y="851" on="0"/>
        <pt x="556" y="815" on="0"/>
        <pt x="531" y="780" on="0"/>
        <pt x="491" y="756" on="0"/>
        <pt x="461" y="756" on="1"/>
        <pt x="447" y="756" on="0"/>
        <pt x="412" y="766" on="0"/>
        <pt x="389" y="779" on="1"/>
        <pt x="363" y="793" on="0"/>
        <pt x="336" y="802" on="0"/>
        <pt x="324" y="802" on="1"/>
        <pt x="301" y="802" on="0"/>
        <pt x="280" y="782" on="0"/>
        <pt x="271" y="756" on="1"/>
      </contour>
      <contour>
        <pt x="661" y="-15" on="1"/>
        <pt x="546" y="118" on="0"/>
        <pt x="286" y="397" on="0"/>
        <pt x="156" y="535" on="1"/>
        <pt x="155" y="507" on="0"/>
        <pt x="153" y="413" on="0"/>
        <pt x="153" y="332" on="1"/>
        <pt x="153" y="311" on="0"/>
        <pt x="154" y="249" on="0"/>
        <pt x="155" y="181" on="0"/>
        <pt x="157" y="111" on="0"/>
        <pt x="159" y="51" on="0"/>
        <pt x="161" y="6" on="0"/>
        <pt x="162" y="-2" on="1"/>
        <pt x="146" y="0" on="0"/>
        <pt x="127" y="0" on="1"/>
        <pt x="107" y="0" on="0"/>
        <pt x="90" y="-2" on="1"/>
        <pt x="92" y="8" on="0"/>
        <pt x="97" y="62" on="0"/>
        <pt x="101" y="137" on="0"/>
        <pt x="106" y="225" on="0"/>
        <pt x="109" y="313" on="0"/>
        <pt x="111" y="397" on="0"/>
        <pt x="111" y="430" on="1"/>
        <pt x="111" y="526" on="0"/>
        <pt x="110" y="664" on="0"/>
        <pt x="108" y="698" on="1"/>
        <pt x="124" y="698" on="1"/>
        <pt x="185" y="632" on="0"/>
        <pt x="324" y="481" on="0"/>
        <pt x="461" y="334" on="0"/>
        <pt x="584" y="203" on="0"/>
        <pt x="630" y="157" on="1"/>
        <pt x="630" y="293" on="1"/>
        <pt x="630" y="398" on="0"/>
        <pt x="627" y="597" on="0"/>
        <pt x="622" y="685" on="1"/>
        <pt x="642" y="680" on="0"/>
        <pt x="656" y="680" on="1"/>
        <pt x="668" y="680" on="0"/>
        <pt x="688" y="685" on="1"/>
        <pt x="686" y="663" on="0"/>
        <pt x="681" y="575" on="0"/>
        <pt x="676" y="475" on="0"/>
        <pt x="672" y="379" on="0"/>
        <pt x="672" y="350" on="1"/>
        <pt x="672" y="325" on="0"/>
        <pt x="672" y="290" on="1"/>
        <pt x="672" y="256" on="0"/>
        <pt x="673" y="182" on="0"/>
        <pt x="674" y="107" on="0"/>
        <pt x="675" y="42" on="0"/>
        <pt x="675" y="18" on="1"/>
        <pt x="675" y="-4" on="0"/>
        <pt x="675" y="-15" on="1"/>
      </contour>
    </TTGlyph>
    <TTGlyph name="O" xMin="42" yMin="-15" xMax="791" yMax="698">
      <contour>
        <pt x="42" y="340" on="1"/>
        <pt x="42" y="425" on="0"/>
        <pt x="97" y="558" on="0"/>
        <pt x="196" y="650" on="0"/>
        <pt x="334" y="698" on="0"/>
        <pt x="416" y="698" on="1"/>
        <pt x="499" y="698" on="0"/>
        <pt x="637" y="650" on="0"/>
        <pt x="736" y="558" on="0"/>
        <pt x="791" y="425" on="0"/>
        <pt x="791" y="340" on="1"/>
        <pt x="791" y="255" on="0"/>
        <pt x="736" y="122" on="0"/>
        <pt x="637" y="30" on="0"/>
        <pt x="499" y="-15" on="0"/>
        <pt x="416" y="-15" on="1"/>
        <pt x="334" y="-15" on="0"/>
        <pt x="196" y="30" on="0"/>
        <pt x="97" y="122" on="0"/>
        <pt x="42" y="255" on="0"/>
      </contour>
      <contour>
        <pt x="693" y="340" on="1"/>
        <pt x="693" y="423" on="0"/>
        <pt x="651" y="544" on="0"/>
        <pt x="576" y="623" on="0"/>
        <pt x="475" y="661" on="0"/>
        <pt x="416" y="661" on="1"/>
        <pt x="358" y="661" on="0"/>
        <pt x="257" y="623" on="0"/>
        <pt x="182" y="544" on="0"/>
        <pt x="140" y="423" on="0"/>
        <pt x="140" y="340" on="1"/>
        <pt x="140" y="257" on="0"/>
        <pt x="182" y="136" on="0"/>
        <pt x="257" y="57" on="0"/>
        <pt x="358" y="19" on="0"/>
        <pt x="416" y="19" on="1"/>
        <pt x="475" y="19" on="0"/>
        <pt x="576" y="57" on="0"/>
        <pt x="651" y="136" on="0"/>
        <pt x="693" y="257" on="0"/>
      </contour>
    </TTGlyph>
    <TTGlyph name="OE" xMin="42" yMin="-15" xMax="987" yMax="698">
      <contour>
        <pt x="140" y="340" on="1"/>
        <pt x="140" y="257" on="0"/>
        <pt x="182" y="136" on="0"/>
        <pt x="253" y="57" on="0"/>
        <pt x="348" y="19" on="0"/>
        <pt x="401" y="19" on="1"/>
        <pt x="461" y="19" on="0"/>
        <pt x="557" y="65" on="0"/>
        <pt x="625" y="150" on="0"/>
        <pt x="661" y="268" on="0"/>
        <pt x="661" y="340" on="1"/>
        <pt x="661" y="428" on="0"/>
        <pt x="623" y="550" on="0"/>
        <pt x="556" y="627" on="0"/>
        <pt x="465" y="661" on="0"/>
        <pt x="412" y="661" on="1"/>
        <pt x="355" y="661" on="0"/>
        <pt x="256" y="623" on="0"/>
        <pt x="182" y="544" on="0"/>
        <pt x="140" y="423" on="0"/>
      </contour>
      <contour>
        <pt x="735" y="238" on="1"/>
        <pt x="735" y="189" on="0"/>
        <pt x="738" y="91" on="0"/>
        <pt x="740" y="42" on="1"/>
        <pt x="849" y="42" on="0"/>
        <pt x="963" y="49" on="0"/>
        <pt x="987" y="53" on="1"/>
        <pt x="985" y="45" on="0"/>
        <pt x="982" y="32" on="0"/>
        <pt x="982" y="24" on="1"/>
        <pt x="982" y="16" on="0"/>
        <pt x="985" y="3" on="0"/>
        <pt x="987" y="-2" on="1"/>
        <pt x="945" y="0" on="0"/>
        <pt x="861" y="0" on="0"/>
        <pt x="819" y="0" on="1"/>
        <pt x="776" y="0" on="0"/>
        <pt x="693" y="0" on="0"/>
        <pt x="648" y="-2" on="1"/>
        <pt x="650" y="20" on="0"/>
        <pt x="653" y="68" on="0"/>
        <pt x="653" y="93" on="1"/>
        <pt x="651" y="95" on="1"/>
        <pt x="634" y="77" on="0"/>
        <pt x="588" y="38" on="0"/>
        <pt x="525" y="5" on="0"/>
        <pt x="442" y="-15" on="0"/>
        <pt x="386" y="-15" on="1"/>
        <pt x="315" y="-15" on="0"/>
        <pt x="189" y="30" on="0"/>
        <pt x="96" y="119" on="0"/>
        <pt x="42" y="247" on="0"/>
        <pt x="42" y="328" on="1"/>
        <pt x="42" y="418" on="0"/>
        <pt x="97" y="556" on="0"/>
        <pt x="193" y="650" on="0"/>
        <pt x="325" y="698" on="0"/>
        <pt x="403" y="698" on="1"/>
        <pt x="466" y="698" on="0"/>
        <pt x="555" y="672" on="0"/>
        <pt x="614" y="636" on="0"/>
        <pt x="647" y="599" on="0"/>
        <pt x="656" y="587" on="1"/>
        <pt x="658" y="589" on="1"/>
        <pt x="658" y="613" on="0"/>
        <pt x="656" y="661" on="0"/>
        <pt x="654" y="685" on="1"/>
        <pt x="696" y="683" on="0"/>
        <pt x="776" y="680" on="0"/>
        <pt x="818" y="680" on="1"/>
        <pt x="860" y="680" on="0"/>
        <pt x="938" y="683" on="0"/>
        <pt x="980" y="685" on="1"/>
        <pt x="975" y="667" on="0"/>
        <pt x="975" y="654" on="1"/>
        <pt x="975" y="641" on="0"/>
        <pt x="980" y="623" on="1"/>
        <pt x="965" y="626" on="0"/>
        <pt x="934" y="631" on="0"/>
        <pt x="883" y="636" on="0"/>
        <pt x="803" y="638" on="0"/>
        <pt x="740" y="638" on="1"/>
        <pt x="738" y="593" on="0"/>
        <pt x="735" y="508" on="0"/>
        <pt x="735" y="463" on="1"/>
        <pt x="735" y="381" on="1"/>
        <pt x="797" y="381" on="0"/>
        <pt x="872" y="382" on="0"/>
        <pt x="919" y="384" on="0"/>
        <pt x="947" y="387" on="0"/>
        <pt x="960" y="388" on="1"/>
        <pt x="955" y="371" on="0"/>
        <pt x="955" y="360" on="1"/>
        <pt x="955" y="349" on="0"/>
        <pt x="960" y="332" on="1"/>
        <pt x="946" y="333" on="0"/>
        <pt x="918" y="336" on="0"/>
        <pt x="871" y="338" on="0"/>
        <pt x="796" y="339" on="0"/>
        <pt x="735" y="339" on="1"/>
      </contour>
    </TTGlyph>
    <TTGlyph name="Oacute" xMin="42" yMin="-15" xMax="791" yMax="904">
      <contour>
        <pt x="495" y="880" on="1"/>
        <pt x="519" y="904" on="0"/>
        <pt x="540" y="904" on="1"/>
        <pt x="550" y="904" on="0"/>
        <pt x="573" y="888" on="0"/>
        <pt x="573" y="872" on="1"/>
        <pt x="573" y="854" on="0"/>
        <pt x="549" y="833" on="0"/>
        <pt x="537" y="825" on="1"/>
        <pt x="390" y="731" on="1"/>
        <pt x="348" y="731" on="1"/>
      </contour>
      <contour>
        <pt x="42" y="340" on="1"/>
        <pt x="42" y="425" on="0"/>
        <pt x="97" y="558" on="0"/>
        <pt x="196" y="650" on="0"/>
        <pt x="334" y="698" on="0"/>
        <pt x="416" y="698" on="1"/>
        <pt x="499" y="698" on="0"/>
        <pt x="637" y="650" on="0"/>
        <pt x="736" y="558" on="0"/>
        <pt x="791" y="425" on="0"/>
        <pt x="791" y="340" on="1"/>
        <pt x="791" y="255" on="0"/>
        <pt x="736" y="122" on="0"/>
        <pt x="637" y="30" on="0"/>
        <pt x="499" y="-15" on="0"/>
        <pt x="416" y="-15" on="1"/>
        <pt x="334" y="-15" on="0"/>
        <pt x="196" y="30" on="0"/>
        <pt x="97" y="122" on="0"/>
        <pt x="42" y="255" on="0"/>
      </contour>
      <contour>
        <pt x="693" y="340" on="1"/>
        <pt x="693" y="423" on="0"/>
        <pt x="651" y="544" on="0"/>
        <pt x="576" y="623" on="0"/>
        <pt x="475" y="661" on="0"/>
        <pt x="416" y="661" on="1"/>
        <pt x="358" y="661" on="0"/>
        <pt x="257" y="623" on="0"/>
        <pt x="182" y="544" on="0"/>
        <pt x="140" y="423" on="0"/>
        <pt x="140" y="340" on="1"/>
        <pt x="140" y="257" on="0"/>
        <pt x="182" y="136" on="0"/>
        <pt x="257" y="57" on="0"/>
        <pt x="358" y="19" on="0"/>
        <pt x="416" y="19" on="1"/>
        <pt x="475" y="19" on="0"/>
        <pt x="576" y="57" on="0"/>
        <pt x="651" y="136" on="0"/>
        <pt x="693" y="257" on="0"/>
      </contour>
    </TTGlyph>
    <TTGlyph name="Ocircumflex" xMin="42" yMin="-15" xMax="791" yMax="898">
      <contour>
        <pt x="297" y="731" on="1"/>
        <pt x="260" y="731" on="1"/>
        <pt x="383" y="898" on="1"/>
        <pt x="450" y="898" on="1"/>
        <pt x="573" y="731" on="1"/>
        <pt x="536" y="731" on="1"/>
        <pt x="416" y="836" on="1"/>
      </contour>
      <contour>
        <pt x="42" y="340" on="1"/>
        <pt x="42" y="425" on="0"/>
        <pt x="97" y="558" on="0"/>
        <pt x="196" y="650" on="0"/>
        <pt x="334" y="698" on="0"/>
        <pt x="416" y="698" on="1"/>
        <pt x="499" y="698" on="0"/>
        <pt x="637" y="650" on="0"/>
        <pt x="736" y="558" on="0"/>
        <pt x="791" y="425" on="0"/>
        <pt x="791" y="340" on="1"/>
        <pt x="791" y="255" on="0"/>
        <pt x="736" y="122" on="0"/>
        <pt x="637" y="30" on="0"/>
        <pt x="499" y="-15" on="0"/>
        <pt x="416" y="-15" on="1"/>
        <pt x="334" y="-15" on="0"/>
        <pt x="196" y="30" on="0"/>
        <pt x="97" y="122" on="0"/>
        <pt x="42" y="255" on="0"/>
      </contour>
      <contour>
        <pt x="693" y="340" on="1"/>
        <pt x="693" y="423" on="0"/>
        <pt x="651" y="544" on="0"/>
        <pt x="576" y="623" on="0"/>
        <pt x="475" y="661" on="0"/>
        <pt x="416" y="661" on="1"/>
        <pt x="358" y="661" on="0"/>
        <pt x="257" y="623" on="0"/>
        <pt x="182" y="544" on="0"/>
        <pt x="140" y="423" on="0"/>
        <pt x="140" y="340" on="1"/>
        <pt x="140" y="257" on="0"/>
        <pt x="182" y="136" on="0"/>
        <pt x="257" y="57" on="0"/>
        <pt x="358" y="19" on="0"/>
        <pt x="416" y="19" on="1"/>
        <pt x="475" y="19" on="0"/>
        <pt x="576" y="57" on="0"/>
        <pt x="651" y="136" on="0"/>
        <pt x="693" y="257" on="0"/>
      </contour>
    </TTGlyph>
    <TTGlyph name="Odieresis" xMin="42" yMin="-15" xMax="791" yMax="860">
      <contour>
        <pt x="267" y="809" on="1"/>
        <pt x="267" y="830" on="0"/>
        <pt x="297" y="860" on="0"/>
        <pt x="318" y="860" on="1"/>
        <pt x="339" y="860" on="0"/>
        <pt x="369" y="830" on="0"/>
        <pt x="369" y="809" on="1"/>
        <pt x="369" y="788" on="0"/>
        <pt x="339" y="758" on="0"/>
        <pt x="318" y="758" on="1"/>
        <pt x="297" y="758" on="0"/>
        <pt x="267" y="788" on="0"/>
      </contour>
      <contour>
        <pt x="464" y="809" on="1"/>
        <pt x="464" y="830" on="0"/>
        <pt x="494" y="860" on="0"/>
        <pt x="515" y="860" on="1"/>
        <pt x="536" y="860" on="0"/>
        <pt x="566" y="830" on="0"/>
        <pt x="566" y="809" on="1"/>
        <pt x="566" y="788" on="0"/>
        <pt x="536" y="758" on="0"/>
        <pt x="515" y="758" on="1"/>
        <pt x="494" y="758" on="0"/>
        <pt x="464" y="788" on="0"/>
      </contour>
      <contour>
        <pt x="42" y="340" on="1"/>
        <pt x="42" y="425" on="0"/>
        <pt x="97" y="558" on="0"/>
        <pt x="196" y="650" on="0"/>
        <pt x="334" y="698" on="0"/>
        <pt x="416" y="698" on="1"/>
        <pt x="499" y="698" on="0"/>
        <pt x="637" y="650" on="0"/>
        <pt x="736" y="558" on="0"/>
        <pt x="791" y="425" on="0"/>
        <pt x="791" y="340" on="1"/>
        <pt x="791" y="255" on="0"/>
        <pt x="736" y="122" on="0"/>
        <pt x="637" y="30" on="0"/>
        <pt x="499" y="-15" on="0"/>
        <pt x="416" y="-15" on="1"/>
        <pt x="334" y="-15" on="0"/>
        <pt x="196" y="30" on="0"/>
        <pt x="97" y="122" on="0"/>
        <pt x="42" y="255" on="0"/>
      </contour>
      <contour>
        <pt x="693" y="340" on="1"/>
        <pt x="693" y="423" on="0"/>
        <pt x="651" y="544" on="0"/>
        <pt x="576" y="623" on="0"/>
        <pt x="475" y="661" on="0"/>
        <pt x="416" y="661" on="1"/>
        <pt x="358" y="661" on="0"/>
        <pt x="257" y="623" on="0"/>
        <pt x="182" y="544" on="0"/>
        <pt x="140" y="423" on="0"/>
        <pt x="140" y="340" on="1"/>
        <pt x="140" y="257" on="0"/>
        <pt x="182" y="136" on="0"/>
        <pt x="257" y="57" on="0"/>
        <pt x="358" y="19" on="0"/>
        <pt x="416" y="19" on="1"/>
        <pt x="475" y="19" on="0"/>
        <pt x="576" y="57" on="0"/>
        <pt x="651" y="136" on="0"/>
        <pt x="693" y="257" on="0"/>
      </contour>
    </TTGlyph>
    <TTGlyph name="Ograve" xMin="42" yMin="-15" xMax="791" yMax="904">
      <contour>
        <pt x="296" y="825" on="1"/>
        <pt x="284" y="833" on="0"/>
        <pt x="260" y="854" on="0"/>
        <pt x="260" y="872" on="1"/>
        <pt x="260" y="888" on="0"/>
        <pt x="283" y="904" on="0"/>
        <pt x="293" y="904" on="1"/>
        <pt x="314" y="904" on="0"/>
        <pt x="338" y="880" on="1"/>
        <pt x="485" y="731" on="1"/>
        <pt x="443" y="731" on="1"/>
      </contour>
      <contour>
        <pt x="42" y="340" on="1"/>
        <pt x="42" y="425" on="0"/>
        <pt x="97" y="558" on="0"/>
        <pt x="196" y="650" on="0"/>
        <pt x="334" y="698" on="0"/>
        <pt x="416" y="698" on="1"/>
        <pt x="499" y="698" on="0"/>
        <pt x="637" y="650" on="0"/>
        <pt x="736" y="558" on="0"/>
        <pt x="791" y="425" on="0"/>
        <pt x="791" y="340" on="1"/>
        <pt x="791" y="255" on="0"/>
        <pt x="736" y="122" on="0"/>
        <pt x="637" y="30" on="0"/>
        <pt x="499" y="-15" on="0"/>
        <pt x="416" y="-15" on="1"/>
        <pt x="334" y="-15" on="0"/>
        <pt x="196" y="30" on="0"/>
        <pt x="97" y="122" on="0"/>
        <pt x="42" y="255" on="0"/>
      </contour>
      <contour>
        <pt x="693" y="340" on="1"/>
        <pt x="693" y="423" on="0"/>
        <pt x="651" y="544" on="0"/>
        <pt x="576" y="623" on="0"/>
        <pt x="475" y="661" on="0"/>
        <pt x="416" y="661" on="1"/>
        <pt x="358" y="661" on="0"/>
        <pt x="257" y="623" on="0"/>
        <pt x="182" y="544" on="0"/>
        <pt x="140" y="423" on="0"/>
        <pt x="140" y="340" on="1"/>
        <pt x="140" y="257" on="0"/>
        <pt x="182" y="136" on="0"/>
        <pt x="257" y="57" on="0"/>
        <pt x="358" y="19" on="0"/>
        <pt x="416" y="19" on="1"/>
        <pt x="475" y="19" on="0"/>
        <pt x="576" y="57" on="0"/>
        <pt x="651" y="136" on="0"/>
        <pt x="693" y="257" on="0"/>
      </contour>
    </TTGlyph>
    <TTGlyph name="Omega" xMin="35" yMin="0" xMax="734" yMax="675">
      <contour>
        <pt x="35" y="0" on="1"/>
        <pt x="35" y="163" on="1"/>
        <pt x="51" y="163" on="1"/>
        <pt x="56" y="144" on="0"/>
        <pt x="67" y="120" on="0"/>
        <pt x="82" y="107" on="0"/>
        <pt x="105" y="103" on="0"/>
        <pt x="123" y="103" on="1"/>
        <pt x="271" y="103" on="1"/>
        <pt x="271" y="117" on="1"/>
        <pt x="193" y="139" on="0"/>
        <pt x="149" y="174" on="1"/>
        <pt x="105" y="210" on="0"/>
        <pt x="54" y="326" on="0"/>
        <pt x="54" y="388" on="1"/>
        <pt x="54" y="462" on="0"/>
        <pt x="93" y="531" on="1"/>
        <pt x="133" y="600" on="0"/>
        <pt x="284" y="675" on="0"/>
        <pt x="384" y="675" on="1"/>
        <pt x="486" y="675" on="0"/>
        <pt x="559" y="638" on="1"/>
        <pt x="636" y="600" on="0"/>
        <pt x="674" y="531" on="1"/>
        <pt x="714" y="464" on="0"/>
        <pt x="714" y="388" on="1"/>
        <pt x="714" y="329" on="0"/>
        <pt x="688" y="268" on="1"/>
        <pt x="663" y="209" on="0"/>
        <pt x="575" y="140" on="0"/>
        <pt x="498" y="117" on="1"/>
        <pt x="498" y="103" on="1"/>
        <pt x="646" y="103" on="1"/>
        <pt x="664" y="103" on="0"/>
        <pt x="687" y="107" on="0"/>
        <pt x="702" y="120" on="0"/>
        <pt x="712" y="144" on="0"/>
        <pt x="717" y="163" on="1"/>
        <pt x="734" y="163" on="1"/>
        <pt x="734" y="0" on="1"/>
        <pt x="438" y="0" on="1"/>
        <pt x="454" y="142" on="1"/>
        <pt x="513" y="164" on="0"/>
        <pt x="544" y="206" on="1"/>
        <pt x="595" y="277" on="0"/>
        <pt x="595" y="389" on="1"/>
        <pt x="595" y="515" on="0"/>
        <pt x="483" y="641" on="0"/>
        <pt x="387" y="641" on="1"/>
        <pt x="287" y="641" on="0"/>
        <pt x="237" y="585" on="1"/>
        <pt x="174" y="515" on="0"/>
        <pt x="174" y="390" on="1"/>
        <pt x="174" y="318" on="0"/>
        <pt x="213" y="210" on="0"/>
        <pt x="249" y="179" on="1"/>
        <pt x="271" y="157" on="0"/>
        <pt x="315" y="142" on="1"/>
        <pt x="330" y="0" on="1"/>
      </contour>
    </TTGlyph>
    <TTGlyph name="Omegagreek" xMin="35" yMin="0" xMax="734" yMax="675">
      <contour>
        <pt x="35" y="0" on="1"/>
        <pt x="35" y="163" on="1"/>
        <pt x="51" y="163" on="1"/>
        <pt x="56" y="144" on="0"/>
        <pt x="67" y="120" on="0"/>
        <pt x="82" y="107" on="0"/>
        <pt x="105" y="103" on="0"/>
        <pt x="123" y="103" on="1"/>
        <pt x="271" y="103" on="1"/>
        <pt x="271" y="117" on="1"/>
        <pt x="193" y="139" on="0"/>
        <pt x="149" y="174" on="1"/>
        <pt x="105" y="210" on="0"/>
        <pt x="54" y="326" on="0"/>
        <pt x="54" y="388" on="1"/>
        <pt x="54" y="462" on="0"/>
        <pt x="93" y="531" on="1"/>
        <pt x="133" y="600" on="0"/>
        <pt x="284" y="675" on="0"/>
        <pt x="384" y="675" on="1"/>
        <pt x="486" y="675" on="0"/>
        <pt x="559" y="638" on="1"/>
        <pt x="636" y="600" on="0"/>
        <pt x="674" y="531" on="1"/>
        <pt x="714" y="464" on="0"/>
        <pt x="714" y="388" on="1"/>
        <pt x="714" y="329" on="0"/>
        <pt x="688" y="268" on="1"/>
        <pt x="663" y="209" on="0"/>
        <pt x="575" y="140" on="0"/>
        <pt x="498" y="117" on="1"/>
        <pt x="498" y="103" on="1"/>
        <pt x="646" y="103" on="1"/>
        <pt x="664" y="103" on="0"/>
        <pt x="687" y="107" on="0"/>
        <pt x="702" y="120" on="0"/>
        <pt x="712" y="144" on="0"/>
        <pt x="717" y="163" on="1"/>
        <pt x="734" y="163" on="1"/>
        <pt x="734" y="0" on="1"/>
        <pt x="438" y="0" on="1"/>
        <pt x="454" y="142" on="1"/>
        <pt x="513" y="164" on="0"/>
        <pt x="544" y="206" on="1"/>
        <pt x="595" y="277" on="0"/>
        <pt x="595" y="389" on="1"/>
        <pt x="595" y="515" on="0"/>
        <pt x="483" y="641" on="0"/>
        <pt x="387" y="641" on="1"/>
        <pt x="287" y="641" on="0"/>
        <pt x="237" y="585" on="1"/>
        <pt x="174" y="515" on="0"/>
        <pt x="174" y="390" on="1"/>
        <pt x="174" y="318" on="0"/>
        <pt x="213" y="210" on="0"/>
        <pt x="249" y="179" on="1"/>
        <pt x="271" y="157" on="0"/>
        <pt x="315" y="142" on="1"/>
        <pt x="330" y="0" on="1"/>
      </contour>
    </TTGlyph>
    <TTGlyph name="Oslash" xMin="42" yMin="-54" xMax="791" yMax="732">
      <contour>
        <pt x="220" y="96" on="1"/>
        <pt x="257" y="57" on="0"/>
        <pt x="356" y="19" on="0"/>
        <pt x="416" y="19" on="1"/>
        <pt x="475" y="19" on="0"/>
        <pt x="576" y="57" on="0"/>
        <pt x="651" y="136" on="0"/>
        <pt x="693" y="257" on="0"/>
        <pt x="693" y="340" on="1"/>
        <pt x="693" y="412" on="0"/>
        <pt x="662" y="520" on="0"/>
        <pt x="633" y="560" on="1"/>
      </contour>
      <contour>
        <pt x="42" y="340" on="1"/>
        <pt x="42" y="425" on="0"/>
        <pt x="97" y="558" on="0"/>
        <pt x="196" y="650" on="0"/>
        <pt x="334" y="698" on="0"/>
        <pt x="416" y="698" on="1"/>
        <pt x="562" y="698" on="0"/>
        <pt x="656" y="628" on="1"/>
        <pt x="665" y="637" on="0"/>
        <pt x="692" y="667" on="0"/>
        <pt x="719" y="698" on="0"/>
        <pt x="740" y="726" on="0"/>
        <pt x="743" y="732" on="1"/>
        <pt x="755" y="718" on="0"/>
        <pt x="771" y="708" on="1"/>
        <pt x="765" y="704" on="0"/>
        <pt x="741" y="680" on="0"/>
        <pt x="714" y="651" on="0"/>
        <pt x="687" y="621" on="0"/>
        <pt x="678" y="611" on="1"/>
        <pt x="732" y="565" on="0"/>
        <pt x="791" y="430" on="0"/>
        <pt x="791" y="340" on="1"/>
        <pt x="791" y="255" on="0"/>
        <pt x="736" y="122" on="0"/>
        <pt x="637" y="30" on="0"/>
        <pt x="499" y="-15" on="0"/>
        <pt x="416" y="-15" on="1"/>
        <pt x="275" y="-15" on="0"/>
        <pt x="179" y="50" on="1"/>
        <pt x="169" y="39" on="0"/>
        <pt x="142" y="10" on="0"/>
        <pt x="116" y="-18" on="0"/>
        <pt x="95" y="-45" on="0"/>
        <pt x="90" y="-54" on="1"/>
        <pt x="79" y="-40" on="0"/>
        <pt x="62" y="-30" on="1"/>
        <pt x="67" y="-26" on="0"/>
        <pt x="90" y="-3" on="0"/>
        <pt x="117" y="24" on="0"/>
        <pt x="145" y="56" on="0"/>
        <pt x="156" y="68" on="1"/>
        <pt x="102" y="113" on="0"/>
        <pt x="42" y="249" on="0"/>
      </contour>
      <contour>
        <pt x="615" y="582" on="1"/>
        <pt x="578" y="624" on="0"/>
        <pt x="476" y="661" on="0"/>
        <pt x="416" y="661" on="1"/>
        <pt x="358" y="661" on="0"/>
        <pt x="257" y="623" on="0"/>
        <pt x="182" y="544" on="0"/>
        <pt x="140" y="423" on="0"/>
        <pt x="140" y="340" on="1"/>
        <pt x="140" y="267" on="0"/>
        <pt x="173" y="156" on="0"/>
        <pt x="202" y="118" on="1"/>
      </contour>
    </TTGlyph>
    <TTGlyph name="Otilde" xMin="42" yMin="-15" xMax="791" yMax="863">
      <contour>
        <pt x="252" y="756" on="1"/>
        <pt x="255" y="774" on="0"/>
        <pt x="270" y="810" on="0"/>
        <pt x="296" y="840" on="0"/>
        <pt x="332" y="859" on="0"/>
        <pt x="356" y="859" on="1"/>
        <pt x="373" y="859" on="0"/>
        <pt x="401" y="849" on="0"/>
        <pt x="429" y="836" on="1"/>
        <pt x="457" y="822" on="0"/>
        <pt x="482" y="813" on="0"/>
        <pt x="495" y="813" on="1"/>
        <pt x="518" y="813" on="0"/>
        <pt x="546" y="843" on="0"/>
        <pt x="552" y="863" on="1"/>
        <pt x="581" y="863" on="1"/>
        <pt x="579" y="851" on="0"/>
        <pt x="567" y="815" on="0"/>
        <pt x="542" y="780" on="0"/>
        <pt x="502" y="756" on="0"/>
        <pt x="472" y="756" on="1"/>
        <pt x="458" y="756" on="0"/>
        <pt x="423" y="766" on="0"/>
        <pt x="400" y="779" on="1"/>
        <pt x="374" y="793" on="0"/>
        <pt x="347" y="802" on="0"/>
        <pt x="335" y="802" on="1"/>
        <pt x="312" y="802" on="0"/>
        <pt x="291" y="782" on="0"/>
        <pt x="282" y="756" on="1"/>
      </contour>
      <contour>
        <pt x="42" y="340" on="1"/>
        <pt x="42" y="425" on="0"/>
        <pt x="97" y="558" on="0"/>
        <pt x="196" y="650" on="0"/>
        <pt x="334" y="698" on="0"/>
        <pt x="416" y="698" on="1"/>
        <pt x="499" y="698" on="0"/>
        <pt x="637" y="650" on="0"/>
        <pt x="736" y="558" on="0"/>
        <pt x="791" y="425" on="0"/>
        <pt x="791" y="340" on="1"/>
        <pt x="791" y="255" on="0"/>
        <pt x="736" y="122" on="0"/>
        <pt x="637" y="30" on="0"/>
        <pt x="499" y="-15" on="0"/>
        <pt x="416" y="-15" on="1"/>
        <pt x="334" y="-15" on="0"/>
        <pt x="196" y="30" on="0"/>
        <pt x="97" y="122" on="0"/>
        <pt x="42" y="255" on="0"/>
      </contour>
      <contour>
        <pt x="693" y="340" on="1"/>
        <pt x="693" y="423" on="0"/>
        <pt x="651" y="544" on="0"/>
        <pt x="576" y="623" on="0"/>
        <pt x="475" y="661" on="0"/>
        <pt x="416" y="661" on="1"/>
        <pt x="358" y="661" on="0"/>
        <pt x="257" y="623" on="0"/>
        <pt x="182" y="544" on="0"/>
        <pt x="140" y="423" on="0"/>
        <pt x="140" y="340" on="1"/>
        <pt x="140" y="257" on="0"/>
        <pt x="182" y="136" on="0"/>
        <pt x="257" y="57" on="0"/>
        <pt x="358" y="19" on="0"/>
        <pt x="416" y="19" on="1"/>
        <pt x="475" y="19" on="0"/>
        <pt x="576" y="57" on="0"/>
        <pt x="651" y="136" on="0"/>
        <pt x="693" y="257" on="0"/>
      </contour>
    </TTGlyph>
    <TTGlyph name="P" xMin="90" yMin="-2" xMax="530" yMax="685">
      <contour>
        <pt x="180" y="351" on="1"/>
        <pt x="214" y="343" on="0"/>
        <pt x="251" y="343" on="1"/>
        <pt x="282" y="343" on="0"/>
        <pt x="348" y="357" on="0"/>
        <pt x="403" y="394" on="0"/>
        <pt x="438" y="459" on="0"/>
        <pt x="438" y="510" on="1"/>
        <pt x="438" y="553" on="0"/>
        <pt x="414" y="607" on="0"/>
        <pt x="371" y="637" on="0"/>
        <pt x="309" y="648" on="0"/>
        <pt x="270" y="648" on="1"/>
        <pt x="180" y="648" on="1"/>
      </contour>
      <contour>
        <pt x="98" y="426" on="1"/>
        <pt x="98" y="492" on="0"/>
        <pt x="93" y="619" on="0"/>
        <pt x="90" y="685" on="1"/>
        <pt x="114" y="683" on="0"/>
        <pt x="163" y="680" on="0"/>
        <pt x="187" y="680" on="1"/>
        <pt x="199" y="680" on="0"/>
        <pt x="233" y="682" on="0"/>
        <pt x="268" y="683" on="0"/>
        <pt x="300" y="685" on="0"/>
        <pt x="311" y="685" on="1"/>
        <pt x="326" y="685" on="0"/>
        <pt x="370" y="683" on="0"/>
        <pt x="419" y="673" on="0"/>
        <pt x="467" y="653" on="0"/>
        <pt x="506" y="615" on="0"/>
        <pt x="530" y="558" on="0"/>
        <pt x="530" y="516" on="1"/>
        <pt x="530" y="450" on="0"/>
        <pt x="473" y="368" on="0"/>
        <pt x="390" y="322" on="0"/>
        <pt x="297" y="306" on="0"/>
        <pt x="261" y="306" on="1"/>
        <pt x="238" y="306" on="0"/>
        <pt x="200" y="307" on="0"/>
        <pt x="180" y="309" on="1"/>
        <pt x="180" y="254" on="1"/>
        <pt x="180" y="188" on="0"/>
        <pt x="185" y="60" on="0"/>
        <pt x="188" y="-2" on="1"/>
        <pt x="165" y="0" on="0"/>
        <pt x="139" y="0" on="1"/>
        <pt x="113" y="0" on="0"/>
        <pt x="90" y="-2" on="1"/>
        <pt x="93" y="60" on="0"/>
        <pt x="98" y="188" on="0"/>
        <pt x="98" y="254" on="1"/>
      </contour>
    </TTGlyph>
    <TTGlyph name="Q" xMin="42" yMin="-216" xMax="791" yMax="698">
      <contour>
        <pt x="42" y="340" on="1"/>
        <pt x="42" y="425" on="0"/>
        <pt x="97" y="558" on="0"/>
        <pt x="196" y="650" on="0"/>
        <pt x="334" y="698" on="0"/>
        <pt x="416" y="698" on="1"/>
        <pt x="499" y="698" on="0"/>
        <pt x="637" y="650" on="0"/>
        <pt x="736" y="558" on="0"/>
        <pt x="791" y="425" on="0"/>
        <pt x="791" y="340" on="1"/>
        <pt x="791" y="270" on="0"/>
        <pt x="753" y="155" on="0"/>
        <pt x="684" y="66" on="0"/>
        <pt x="587" y="8" on="0"/>
        <pt x="527" y="-3" on="1"/>
        <pt x="581" y="-46" on="0"/>
        <pt x="692" y="-132" on="0"/>
        <pt x="753" y="-175" on="1"/>
        <pt x="727" y="-177" on="0"/>
        <pt x="683" y="-203" on="0"/>
        <pt x="675" y="-216" on="1"/>
        <pt x="620" y="-165" on="0"/>
        <pt x="508" y="-65" on="0"/>
        <pt x="445" y="-14" on="1"/>
        <pt x="440" y="-15" on="0"/>
        <pt x="430" y="-15" on="1"/>
        <pt x="416" y="-15" on="1"/>
        <pt x="334" y="-15" on="0"/>
        <pt x="196" y="30" on="0"/>
        <pt x="97" y="122" on="0"/>
        <pt x="42" y="255" on="0"/>
      </contour>
      <contour>
        <pt x="693" y="340" on="1"/>
        <pt x="693" y="423" on="0"/>
        <pt x="651" y="544" on="0"/>
        <pt x="576" y="623" on="0"/>
        <pt x="475" y="661" on="0"/>
        <pt x="416" y="661" on="1"/>
        <pt x="358" y="661" on="0"/>
        <pt x="257" y="623" on="0"/>
        <pt x="182" y="544" on="0"/>
        <pt x="140" y="423" on="0"/>
        <pt x="140" y="340" on="1"/>
        <pt x="140" y="257" on="0"/>
        <pt x="182" y="136" on="0"/>
        <pt x="257" y="57" on="0"/>
        <pt x="358" y="19" on="0"/>
        <pt x="416" y="19" on="1"/>
        <pt x="475" y="19" on="0"/>
        <pt x="576" y="57" on="0"/>
        <pt x="651" y="136" on="0"/>
        <pt x="693" y="257" on="0"/>
      </contour>
    </TTGlyph>
    <TTGlyph name="R" xMin="90" yMin="-2" xMax="595" yMax="685">
      <contour>
        <pt x="98" y="426" on="1"/>
        <pt x="98" y="492" on="0"/>
        <pt x="93" y="619" on="0"/>
        <pt x="90" y="685" on="1"/>
        <pt x="119" y="683" on="0"/>
        <pt x="175" y="680" on="0"/>
        <pt x="204" y="680" on="1"/>
        <pt x="233" y="680" on="0"/>
        <pt x="289" y="685" on="0"/>
        <pt x="318" y="685" on="1"/>
        <pt x="360" y="685" on="0"/>
        <pt x="436" y="669" on="0"/>
        <pt x="493" y="632" on="0"/>
        <pt x="526" y="572" on="0"/>
        <pt x="526" y="527" on="1"/>
        <pt x="526" y="479" on="0"/>
        <pt x="483" y="410" on="0"/>
        <pt x="421" y="365" on="0"/>
        <pt x="350" y="340" on="0"/>
        <pt x="321" y="336" on="1"/>
        <pt x="333" y="321" on="0"/>
        <pt x="375" y="267" on="0"/>
        <pt x="427" y="202" on="0"/>
        <pt x="483" y="131" on="0"/>
        <pt x="535" y="66" on="0"/>
        <pt x="581" y="12" on="0"/>
        <pt x="595" y="-2" on="1"/>
        <pt x="580" y="0" on="0"/>
        <pt x="550" y="0" on="0"/>
        <pt x="535" y="0" on="1"/>
        <pt x="521" y="0" on="0"/>
        <pt x="491" y="0" on="0"/>
        <pt x="477" y="-2" on="1"/>
        <pt x="462" y="19" on="0"/>
        <pt x="401" y="103" on="0"/>
        <pt x="327" y="199" on="0"/>
        <pt x="250" y="294" on="0"/>
        <pt x="218" y="327" on="1"/>
        <pt x="180" y="327" on="1"/>
        <pt x="180" y="254" on="1"/>
        <pt x="180" y="188" on="0"/>
        <pt x="185" y="60" on="0"/>
        <pt x="188" y="-2" on="1"/>
        <pt x="165" y="0" on="0"/>
        <pt x="139" y="0" on="1"/>
        <pt x="113" y="0" on="0"/>
        <pt x="90" y="-2" on="1"/>
        <pt x="93" y="60" on="0"/>
        <pt x="98" y="188" on="0"/>
        <pt x="98" y="254" on="1"/>
      </contour>
      <contour>
        <pt x="180" y="369" on="1"/>
        <pt x="194" y="366" on="0"/>
        <pt x="227" y="364" on="0"/>
        <pt x="247" y="364" on="1"/>
        <pt x="278" y="364" on="0"/>
        <pt x="345" y="378" on="0"/>
        <pt x="401" y="413" on="0"/>
        <pt x="438" y="472" on="0"/>
        <pt x="438" y="517" on="1"/>
        <pt x="438" y="556" on="0"/>
        <pt x="409" y="607" on="0"/>
        <pt x="363" y="637" on="0"/>
        <pt x="309" y="648" on="0"/>
        <pt x="283" y="648" on="1"/>
        <pt x="248" y="648" on="0"/>
        <pt x="202" y="645" on="0"/>
        <pt x="186" y="643" on="1"/>
        <pt x="184" y="588" on="0"/>
        <pt x="180" y="480" on="0"/>
        <pt x="180" y="426" on="1"/>
      </contour>
    </TTGlyph>
    <TTGlyph name="S" xMin="45" yMin="-15" xMax="455" yMax="698">
      <contour>
        <pt x="76" y="128" on="1"/>
        <pt x="84" y="110" on="0"/>
        <pt x="111" y="73" on="0"/>
        <pt x="150" y="43" on="0"/>
        <pt x="202" y="24" on="0"/>
        <pt x="234" y="24" on="1"/>
        <pt x="267" y="24" on="0"/>
        <pt x="320" y="47" on="0"/>
        <pt x="357" y="86" on="0"/>
        <pt x="377" y="139" on="0"/>
        <pt x="377" y="169" on="1"/>
        <pt x="377" y="215" on="0"/>
        <pt x="330" y="269" on="0"/>
        <pt x="260" y="305" on="0"/>
        <pt x="179" y="335" on="0"/>
        <pt x="109" y="380" on="0"/>
        <pt x="62" y="450" on="0"/>
        <pt x="62" y="509" on="1"/>
        <pt x="62" y="551" on="0"/>
        <pt x="92" y="620" on="0"/>
        <pt x="149" y="670" on="0"/>
        <pt x="229" y="698" on="0"/>
        <pt x="279" y="698" on="1"/>
        <pt x="327" y="698" on="0"/>
        <pt x="397" y="675" on="0"/>
        <pt x="427" y="651" on="1"/>
        <pt x="418" y="634" on="0"/>
        <pt x="406" y="596" on="0"/>
        <pt x="400" y="567" on="1"/>
        <pt x="388" y="567" on="1"/>
        <pt x="383" y="581" on="0"/>
        <pt x="366" y="614" on="0"/>
        <pt x="337" y="642" on="0"/>
        <pt x="297" y="661" on="0"/>
        <pt x="269" y="661" on="1"/>
        <pt x="241" y="661" on="0"/>
        <pt x="194" y="643" on="0"/>
        <pt x="159" y="610" on="0"/>
        <pt x="140" y="564" on="0"/>
        <pt x="140" y="537" on="1"/>
        <pt x="140" y="490" on="0"/>
        <pt x="187" y="436" on="0"/>
        <pt x="257" y="399" on="0"/>
        <pt x="338" y="370" on="0"/>
        <pt x="408" y="328" on="0"/>
        <pt x="455" y="262" on="0"/>
        <pt x="455" y="207" on="1"/>
        <pt x="455" y="161" on="0"/>
        <pt x="422" y="79" on="0"/>
        <pt x="359" y="18" on="0"/>
        <pt x="268" y="-15" on="0"/>
        <pt x="210" y="-15" on="1"/>
        <pt x="148" y="-15" on="0"/>
        <pt x="71" y="18" on="0"/>
        <pt x="45" y="39" on="1"/>
        <pt x="54" y="62" on="0"/>
        <pt x="61" y="99" on="0"/>
        <pt x="64" y="128" on="1"/>
        <pt x="76" y="128" on="1"/>
      </contour>
    </TTGlyph>
    <TTGlyph name="Scaron" xMin="45" yMin="-15" xMax="455" yMax="898">
      <contour>
        <pt x="417" y="898" on="1"/>
        <pt x="294" y="731" on="1"/>
        <pt x="227" y="731" on="1"/>
        <pt x="104" y="898" on="1"/>
        <pt x="141" y="898" on="1"/>
        <pt x="261" y="793" on="1"/>
        <pt x="380" y="898" on="1"/>
      </contour>
      <contour>
        <pt x="76" y="128" on="1"/>
        <pt x="84" y="110" on="0"/>
        <pt x="111" y="73" on="0"/>
        <pt x="150" y="43" on="0"/>
        <pt x="202" y="24" on="0"/>
        <pt x="234" y="24" on="1"/>
        <pt x="267" y="24" on="0"/>
        <pt x="320" y="47" on="0"/>
        <pt x="357" y="86" on="0"/>
        <pt x="377" y="139" on="0"/>
        <pt x="377" y="169" on="1"/>
        <pt x="377" y="215" on="0"/>
        <pt x="330" y="269" on="0"/>
        <pt x="260" y="305" on="0"/>
        <pt x="179" y="335" on="0"/>
        <pt x="109" y="380" on="0"/>
        <pt x="62" y="450" on="0"/>
        <pt x="62" y="509" on="1"/>
        <pt x="62" y="551" on="0"/>
        <pt x="92" y="620" on="0"/>
        <pt x="149" y="670" on="0"/>
        <pt x="229" y="698" on="0"/>
        <pt x="279" y="698" on="1"/>
        <pt x="327" y="698" on="0"/>
        <pt x="397" y="675" on="0"/>
        <pt x="427" y="651" on="1"/>
        <pt x="418" y="634" on="0"/>
        <pt x="406" y="596" on="0"/>
        <pt x="400" y="567" on="1"/>
        <pt x="388" y="567" on="1"/>
        <pt x="383" y="581" on="0"/>
        <pt x="366" y="614" on="0"/>
        <pt x="337" y="642" on="0"/>
        <pt x="297" y="661" on="0"/>
        <pt x="269" y="661" on="1"/>
        <pt x="241" y="661" on="0"/>
        <pt x="194" y="643" on="0"/>
        <pt x="159" y="610" on="0"/>
        <pt x="140" y="564" on="0"/>
        <pt x="140" y="537" on="1"/>
        <pt x="140" y="490" on="0"/>
        <pt x="187" y="436" on="0"/>
        <pt x="257" y="399" on="0"/>
        <pt x="338" y="370" on="0"/>
        <pt x="408" y="328" on="0"/>
        <pt x="455" y="262" on="0"/>
        <pt x="455" y="207" on="1"/>
        <pt x="455" y="161" on="0"/>
        <pt x="422" y="79" on="0"/>
        <pt x="359" y="18" on="0"/>
        <pt x="268" y="-15" on="0"/>
        <pt x="210" y="-15" on="1"/>
        <pt x="148" y="-15" on="0"/>
        <pt x="71" y="18" on="0"/>
        <pt x="45" y="39" on="1"/>
        <pt x="54" y="62" on="0"/>
        <pt x="61" y="99" on="0"/>
        <pt x="64" y="128" on="1"/>
      </contour>
    </TTGlyph>
    <TTGlyph name="T" xMin="20" yMin="-2" xMax="536" yMax="685">
      <contour>
        <pt x="237" y="426" on="1"/>
        <pt x="237" y="530" on="0"/>
        <pt x="234" y="633" on="1"/>
        <pt x="208" y="633" on="0"/>
        <pt x="151" y="632" on="0"/>
        <pt x="94" y="629" on="0"/>
        <pt x="41" y="625" on="0"/>
        <pt x="20" y="622" on="1"/>
        <pt x="25" y="640" on="0"/>
        <pt x="25" y="654" on="1"/>
        <pt x="25" y="665" on="0"/>
        <pt x="20" y="685" on="1"/>
        <pt x="86" y="683" on="0"/>
        <pt x="212" y="680" on="0"/>
        <pt x="278" y="680" on="1"/>
        <pt x="344" y="680" on="0"/>
        <pt x="470" y="683" on="0"/>
        <pt x="536" y="685" on="1"/>
        <pt x="531" y="665" on="0"/>
        <pt x="531" y="653" on="1"/>
        <pt x="531" y="640" on="0"/>
        <pt x="536" y="622" on="1"/>
        <pt x="515" y="625" on="0"/>
        <pt x="462" y="629" on="0"/>
        <pt x="405" y="632" on="0"/>
        <pt x="348" y="633" on="0"/>
        <pt x="322" y="633" on="1"/>
        <pt x="319" y="530" on="0"/>
        <pt x="319" y="426" on="1"/>
        <pt x="319" y="254" on="1"/>
        <pt x="319" y="188" on="0"/>
        <pt x="324" y="60" on="0"/>
        <pt x="327" y="-2" on="1"/>
        <pt x="304" y="0" on="0"/>
        <pt x="278" y="0" on="1"/>
        <pt x="252" y="0" on="0"/>
        <pt x="229" y="-2" on="1"/>
        <pt x="232" y="60" on="0"/>
        <pt x="237" y="188" on="0"/>
        <pt x="237" y="254" on="1"/>
        <pt x="237" y="426" on="1"/>
      </contour>
    </TTGlyph>
    <TTGlyph name="Thorn" xMin="90" yMin="-2" xMax="519" yMax="685">
      <contour>
        <pt x="98" y="426" on="1"/>
        <pt x="98" y="492" on="0"/>
        <pt x="93" y="619" on="0"/>
        <pt x="90" y="685" on="1"/>
        <pt x="103" y="683" on="0"/>
        <pt x="127" y="680" on="0"/>
        <pt x="139" y="680" on="1"/>
        <pt x="151" y="680" on="0"/>
        <pt x="175" y="683" on="0"/>
        <pt x="188" y="685" on="1"/>
        <pt x="185" y="652" on="0"/>
        <pt x="180" y="587" on="0"/>
        <pt x="180" y="554" on="1"/>
        <pt x="303" y="554" on="1"/>
        <pt x="405" y="554" on="0"/>
        <pt x="519" y="471" on="0"/>
        <pt x="519" y="380" on="1"/>
        <pt x="519" y="325" on="0"/>
        <pt x="475" y="252" on="0"/>
        <pt x="405" y="209" on="0"/>
        <pt x="317" y="191" on="0"/>
        <pt x="273" y="191" on="1"/>
        <pt x="246" y="191" on="0"/>
        <pt x="201" y="193" on="0"/>
        <pt x="180" y="195" on="1"/>
        <pt x="180" y="139" on="1"/>
        <pt x="180" y="118" on="0"/>
        <pt x="181" y="74" on="0"/>
        <pt x="183" y="35" on="0"/>
        <pt x="186" y="4" on="0"/>
        <pt x="188" y="-2" on="1"/>
        <pt x="165" y="0" on="0"/>
        <pt x="139" y="0" on="1"/>
        <pt x="113" y="0" on="0"/>
        <pt x="90" y="-2" on="1"/>
        <pt x="93" y="60" on="0"/>
        <pt x="98" y="188" on="0"/>
        <pt x="98" y="254" on="1"/>
      </contour>
      <contour>
        <pt x="180" y="232" on="1"/>
        <pt x="192" y="230" on="0"/>
        <pt x="235" y="228" on="0"/>
        <pt x="258" y="228" on="1"/>
        <pt x="290" y="228" on="0"/>
        <pt x="351" y="246" on="0"/>
        <pt x="398" y="283" on="0"/>
        <pt x="427" y="340" on="0"/>
        <pt x="427" y="379" on="1"/>
        <pt x="427" y="405" on="0"/>
        <pt x="411" y="454" on="0"/>
        <pt x="374" y="493" on="0"/>
        <pt x="313" y="517" on="0"/>
        <pt x="269" y="517" on="1"/>
        <pt x="180" y="517" on="1"/>
      </contour>
    </TTGlyph>
    <TTGlyph name="U" xMin="94" yMin="-15" xMax="684" yMax="685">
      <contour>
        <pt x="619" y="360" on="1"/>
        <pt x="619" y="502" on="0"/>
        <pt x="617" y="656" on="0"/>
        <pt x="613" y="685" on="1"/>
        <pt x="624" y="683" on="0"/>
        <pt x="644" y="680" on="0"/>
        <pt x="654" y="680" on="1"/>
        <pt x="667" y="680" on="0"/>
        <pt x="684" y="685" on="1"/>
        <pt x="681" y="650" on="0"/>
        <pt x="675" y="553" on="0"/>
        <pt x="671" y="442" on="0"/>
        <pt x="667" y="325" on="0"/>
        <pt x="666" y="270" on="1"/>
        <pt x="665" y="203" on="0"/>
        <pt x="626" y="97" on="0"/>
        <pt x="554" y="23" on="0"/>
        <pt x="449" y="-15" on="0"/>
        <pt x="381" y="-15" on="1"/>
        <pt x="231" y="-15" on="0"/>
        <pt x="95" y="121" on="0"/>
        <pt x="95" y="268" on="1"/>
        <pt x="95" y="315" on="0"/>
        <pt x="100" y="388" on="0"/>
        <pt x="100" y="426" on="1"/>
        <pt x="100" y="510" on="0"/>
        <pt x="96" y="640" on="0"/>
        <pt x="94" y="685" on="1"/>
        <pt x="106" y="683" on="0"/>
        <pt x="134" y="680" on="0"/>
        <pt x="146" y="680" on="1"/>
        <pt x="157" y="680" on="0"/>
        <pt x="178" y="683" on="0"/>
        <pt x="189" y="685" on="1"/>
        <pt x="187" y="663" on="0"/>
        <pt x="183" y="592" on="0"/>
        <pt x="179" y="502" on="0"/>
        <pt x="177" y="398" on="0"/>
        <pt x="177" y="342" on="1"/>
        <pt x="177" y="308" on="0"/>
        <pt x="179" y="235" on="0"/>
        <pt x="191" y="166" on="0"/>
        <pt x="218" y="103" on="0"/>
        <pt x="268" y="56" on="0"/>
        <pt x="344" y="29" on="0"/>
        <pt x="400" y="29" on="1"/>
        <pt x="455" y="29" on="0"/>
        <pt x="530" y="61" on="0"/>
        <pt x="578" y="113" on="0"/>
        <pt x="605" y="181" on="0"/>
        <pt x="617" y="255" on="0"/>
        <pt x="619" y="329" on="0"/>
      </contour>
    </TTGlyph>
    <TTGlyph name="Uacute" xMin="94" yMin="-15" xMax="684" yMax="904">
      <contour>
        <pt x="468" y="880" on="1"/>
        <pt x="492" y="904" on="0"/>
        <pt x="513" y="904" on="1"/>
        <pt x="523" y="904" on="0"/>
        <pt x="546" y="888" on="0"/>
        <pt x="546" y="872" on="1"/>
        <pt x="546" y="854" on="0"/>
        <pt x="522" y="833" on="0"/>
        <pt x="510" y="825" on="1"/>
        <pt x="363" y="731" on="1"/>
        <pt x="321" y="731" on="1"/>
      </contour>
      <contour>
        <pt x="619" y="360" on="1"/>
        <pt x="619" y="502" on="0"/>
        <pt x="617" y="656" on="0"/>
        <pt x="613" y="685" on="1"/>
        <pt x="624" y="683" on="0"/>
        <pt x="644" y="680" on="0"/>
        <pt x="654" y="680" on="1"/>
        <pt x="667" y="680" on="0"/>
        <pt x="684" y="685" on="1"/>
        <pt x="681" y="650" on="0"/>
        <pt x="675" y="553" on="0"/>
        <pt x="671" y="442" on="0"/>
        <pt x="667" y="325" on="0"/>
        <pt x="666" y="270" on="1"/>
        <pt x="665" y="203" on="0"/>
        <pt x="626" y="97" on="0"/>
        <pt x="554" y="23" on="0"/>
        <pt x="449" y="-15" on="0"/>
        <pt x="381" y="-15" on="1"/>
        <pt x="231" y="-15" on="0"/>
        <pt x="95" y="121" on="0"/>
        <pt x="95" y="268" on="1"/>
        <pt x="95" y="315" on="0"/>
        <pt x="100" y="388" on="0"/>
        <pt x="100" y="426" on="1"/>
        <pt x="100" y="510" on="0"/>
        <pt x="96" y="640" on="0"/>
        <pt x="94" y="685" on="1"/>
        <pt x="106" y="683" on="0"/>
        <pt x="134" y="680" on="0"/>
        <pt x="146" y="680" on="1"/>
        <pt x="157" y="680" on="0"/>
        <pt x="178" y="683" on="0"/>
        <pt x="189" y="685" on="1"/>
        <pt x="187" y="663" on="0"/>
        <pt x="183" y="592" on="0"/>
        <pt x="179" y="502" on="0"/>
        <pt x="177" y="398" on="0"/>
        <pt x="177" y="342" on="1"/>
        <pt x="177" y="308" on="0"/>
        <pt x="179" y="235" on="0"/>
        <pt x="191" y="166" on="0"/>
        <pt x="218" y="103" on="0"/>
        <pt x="268" y="56" on="0"/>
        <pt x="344" y="29" on="0"/>
        <pt x="400" y="29" on="1"/>
        <pt x="455" y="29" on="0"/>
        <pt x="530" y="61" on="0"/>
        <pt x="578" y="113" on="0"/>
        <pt x="605" y="181" on="0"/>
        <pt x="617" y="255" on="0"/>
        <pt x="619" y="329" on="0"/>
      </contour>
    </TTGlyph>
    <TTGlyph name="Ucircumflex" xMin="94" yMin="-15" xMax="684" yMax="898">
      <contour>
        <pt x="270" y="731" on="1"/>
        <pt x="233" y="731" on="1"/>
        <pt x="356" y="898" on="1"/>
        <pt x="423" y="898" on="1"/>
        <pt x="546" y="731" on="1"/>
        <pt x="509" y="731" on="1"/>
        <pt x="389" y="836" on="1"/>
      </contour>
      <contour>
        <pt x="619" y="360" on="1"/>
        <pt x="619" y="502" on="0"/>
        <pt x="617" y="656" on="0"/>
        <pt x="613" y="685" on="1"/>
        <pt x="624" y="683" on="0"/>
        <pt x="644" y="680" on="0"/>
        <pt x="654" y="680" on="1"/>
        <pt x="667" y="680" on="0"/>
        <pt x="684" y="685" on="1"/>
        <pt x="681" y="650" on="0"/>
        <pt x="675" y="553" on="0"/>
        <pt x="671" y="442" on="0"/>
        <pt x="667" y="325" on="0"/>
        <pt x="666" y="270" on="1"/>
        <pt x="665" y="203" on="0"/>
        <pt x="626" y="97" on="0"/>
        <pt x="554" y="23" on="0"/>
        <pt x="449" y="-15" on="0"/>
        <pt x="381" y="-15" on="1"/>
        <pt x="231" y="-15" on="0"/>
        <pt x="95" y="121" on="0"/>
        <pt x="95" y="268" on="1"/>
        <pt x="95" y="315" on="0"/>
        <pt x="100" y="388" on="0"/>
        <pt x="100" y="426" on="1"/>
        <pt x="100" y="510" on="0"/>
        <pt x="96" y="640" on="0"/>
        <pt x="94" y="685" on="1"/>
        <pt x="106" y="683" on="0"/>
        <pt x="134" y="680" on="0"/>
        <pt x="146" y="680" on="1"/>
        <pt x="157" y="680" on="0"/>
        <pt x="178" y="683" on="0"/>
        <pt x="189" y="685" on="1"/>
        <pt x="187" y="663" on="0"/>
        <pt x="183" y="592" on="0"/>
        <pt x="179" y="502" on="0"/>
        <pt x="177" y="398" on="0"/>
        <pt x="177" y="342" on="1"/>
        <pt x="177" y="308" on="0"/>
        <pt x="179" y="235" on="0"/>
        <pt x="191" y="166" on="0"/>
        <pt x="218" y="103" on="0"/>
        <pt x="268" y="56" on="0"/>
        <pt x="344" y="29" on="0"/>
        <pt x="400" y="29" on="1"/>
        <pt x="455" y="29" on="0"/>
        <pt x="530" y="61" on="0"/>
        <pt x="578" y="113" on="0"/>
        <pt x="605" y="181" on="0"/>
        <pt x="617" y="255" on="0"/>
        <pt x="619" y="329" on="0"/>
      </contour>
    </TTGlyph>
    <TTGlyph name="Udieresis" xMin="94" yMin="-15" xMax="684" yMax="860">
      <contour>
        <pt x="240" y="809" on="1"/>
        <pt x="240" y="830" on="0"/>
        <pt x="270" y="860" on="0"/>
        <pt x="291" y="860" on="1"/>
        <pt x="312" y="860" on="0"/>
        <pt x="342" y="830" on="0"/>
        <pt x="342" y="809" on="1"/>
        <pt x="342" y="788" on="0"/>
        <pt x="312" y="758" on="0"/>
        <pt x="291" y="758" on="1"/>
        <pt x="270" y="758" on="0"/>
        <pt x="240" y="788" on="0"/>
      </contour>
      <contour>
        <pt x="437" y="809" on="1"/>
        <pt x="437" y="830" on="0"/>
        <pt x="467" y="860" on="0"/>
        <pt x="488" y="860" on="1"/>
        <pt x="509" y="860" on="0"/>
        <pt x="539" y="830" on="0"/>
        <pt x="539" y="809" on="1"/>
        <pt x="539" y="788" on="0"/>
        <pt x="509" y="758" on="0"/>
        <pt x="488" y="758" on="1"/>
        <pt x="467" y="758" on="0"/>
        <pt x="437" y="788" on="0"/>
      </contour>
      <contour>
        <pt x="619" y="360" on="1"/>
        <pt x="619" y="502" on="0"/>
        <pt x="617" y="656" on="0"/>
        <pt x="613" y="685" on="1"/>
        <pt x="624" y="683" on="0"/>
        <pt x="644" y="680" on="0"/>
        <pt x="654" y="680" on="1"/>
        <pt x="667" y="680" on="0"/>
        <pt x="684" y="685" on="1"/>
        <pt x="681" y="650" on="0"/>
        <pt x="675" y="553" on="0"/>
        <pt x="671" y="442" on="0"/>
        <pt x="667" y="325" on="0"/>
        <pt x="666" y="270" on="1"/>
        <pt x="665" y="203" on="0"/>
        <pt x="626" y="97" on="0"/>
        <pt x="554" y="23" on="0"/>
        <pt x="449" y="-15" on="0"/>
        <pt x="381" y="-15" on="1"/>
        <pt x="231" y="-15" on="0"/>
        <pt x="95" y="121" on="0"/>
        <pt x="95" y="268" on="1"/>
        <pt x="95" y="315" on="0"/>
        <pt x="100" y="388" on="0"/>
        <pt x="100" y="426" on="1"/>
        <pt x="100" y="510" on="0"/>
        <pt x="96" y="640" on="0"/>
        <pt x="94" y="685" on="1"/>
        <pt x="106" y="683" on="0"/>
        <pt x="134" y="680" on="0"/>
        <pt x="146" y="680" on="1"/>
        <pt x="157" y="680" on="0"/>
        <pt x="178" y="683" on="0"/>
        <pt x="189" y="685" on="1"/>
        <pt x="187" y="663" on="0"/>
        <pt x="183" y="592" on="0"/>
        <pt x="179" y="502" on="0"/>
        <pt x="177" y="398" on="0"/>
        <pt x="177" y="342" on="1"/>
        <pt x="177" y="308" on="0"/>
        <pt x="179" y="235" on="0"/>
        <pt x="191" y="166" on="0"/>
        <pt x="218" y="103" on="0"/>
        <pt x="268" y="56" on="0"/>
        <pt x="344" y="29" on="0"/>
        <pt x="400" y="29" on="1"/>
        <pt x="455" y="29" on="0"/>
        <pt x="530" y="61" on="0"/>
        <pt x="578" y="113" on="0"/>
        <pt x="605" y="181" on="0"/>
        <pt x="617" y="255" on="0"/>
        <pt x="619" y="329" on="0"/>
      </contour>
    </TTGlyph>
    <TTGlyph name="Ugrave" xMin="94" yMin="-15" xMax="684" yMax="904">
      <contour>
        <pt x="269" y="825" on="1"/>
        <pt x="257" y="833" on="0"/>
        <pt x="233" y="854" on="0"/>
        <pt x="233" y="872" on="1"/>
        <pt x="233" y="888" on="0"/>
        <pt x="256" y="904" on="0"/>
        <pt x="266" y="904" on="1"/>
        <pt x="287" y="904" on="0"/>
        <pt x="311" y="880" on="1"/>
        <pt x="458" y="731" on="1"/>
        <pt x="416" y="731" on="1"/>
      </contour>
      <contour>
        <pt x="619" y="360" on="1"/>
        <pt x="619" y="502" on="0"/>
        <pt x="617" y="656" on="0"/>
        <pt x="613" y="685" on="1"/>
        <pt x="624" y="683" on="0"/>
        <pt x="644" y="680" on="0"/>
        <pt x="654" y="680" on="1"/>
        <pt x="667" y="680" on="0"/>
        <pt x="684" y="685" on="1"/>
        <pt x="681" y="650" on="0"/>
        <pt x="675" y="553" on="0"/>
        <pt x="671" y="442" on="0"/>
        <pt x="667" y="325" on="0"/>
        <pt x="666" y="270" on="1"/>
        <pt x="665" y="203" on="0"/>
        <pt x="626" y="97" on="0"/>
        <pt x="554" y="23" on="0"/>
        <pt x="449" y="-15" on="0"/>
        <pt x="381" y="-15" on="1"/>
        <pt x="231" y="-15" on="0"/>
        <pt x="95" y="121" on="0"/>
        <pt x="95" y="268" on="1"/>
        <pt x="95" y="315" on="0"/>
        <pt x="100" y="388" on="0"/>
        <pt x="100" y="426" on="1"/>
        <pt x="100" y="510" on="0"/>
        <pt x="96" y="640" on="0"/>
        <pt x="94" y="685" on="1"/>
        <pt x="106" y="683" on="0"/>
        <pt x="134" y="680" on="0"/>
        <pt x="146" y="680" on="1"/>
        <pt x="157" y="680" on="0"/>
        <pt x="178" y="683" on="0"/>
        <pt x="189" y="685" on="1"/>
        <pt x="187" y="663" on="0"/>
        <pt x="183" y="592" on="0"/>
        <pt x="179" y="502" on="0"/>
        <pt x="177" y="398" on="0"/>
        <pt x="177" y="342" on="1"/>
        <pt x="177" y="308" on="0"/>
        <pt x="179" y="235" on="0"/>
        <pt x="191" y="166" on="0"/>
        <pt x="218" y="103" on="0"/>
        <pt x="268" y="56" on="0"/>
        <pt x="344" y="29" on="0"/>
        <pt x="400" y="29" on="1"/>
        <pt x="455" y="29" on="0"/>
        <pt x="530" y="61" on="0"/>
        <pt x="578" y="113" on="0"/>
        <pt x="605" y="181" on="0"/>
        <pt x="617" y="255" on="0"/>
        <pt x="619" y="329" on="0"/>
      </contour>
    </TTGlyph>
    <TTGlyph name="V" xMin="17" yMin="-2" xMax="650" yMax="685">
      <contour>
        <pt x="296" y="-2" on="1"/>
        <pt x="273" y="57" on="0"/>
        <pt x="207" y="223" on="0"/>
        <pt x="132" y="407" on="0"/>
        <pt x="53" y="599" on="0"/>
        <pt x="17" y="685" on="1"/>
        <pt x="31" y="683" on="0"/>
        <pt x="57" y="680" on="0"/>
        <pt x="69" y="680" on="1"/>
        <pt x="81" y="680" on="0"/>
        <pt x="107" y="683" on="0"/>
        <pt x="121" y="685" on="1"/>
        <pt x="143" y="619" on="0"/>
        <pt x="196" y="474" on="0"/>
        <pt x="255" y="324" on="0"/>
        <pt x="317" y="170" on="0"/>
        <pt x="349" y="94" on="1"/>
        <pt x="367" y="135" on="0"/>
        <pt x="409" y="236" on="0"/>
        <pt x="452" y="345" on="0"/>
        <pt x="494" y="458" on="0"/>
        <pt x="533" y="562" on="0"/>
        <pt x="565" y="652" on="0"/>
        <pt x="576" y="685" on="1"/>
        <pt x="598" y="680" on="0"/>
        <pt x="613" y="680" on="1"/>
        <pt x="628" y="680" on="0"/>
        <pt x="650" y="685" on="1"/>
        <pt x="572" y="511" on="0"/>
        <pt x="428" y="169" on="0"/>
        <pt x="362" y="-2" on="1"/>
        <pt x="346" y="0" on="0"/>
        <pt x="329" y="0" on="1"/>
        <pt x="309" y="0" on="0"/>
      </contour>
    </TTGlyph>
    <TTGlyph name="W" xMin="13" yMin="-2" xMax="987" yMax="685">
      <contour>
        <pt x="229" y="-2" on="1"/>
        <pt x="221" y="23" on="0"/>
        <pt x="188" y="131" on="0"/>
        <pt x="146" y="267" on="0"/>
        <pt x="100" y="416" on="0"/>
        <pt x="58" y="551" on="0"/>
        <pt x="23" y="659" on="0"/>
        <pt x="13" y="685" on="1"/>
        <pt x="26" y="683" on="0"/>
        <pt x="50" y="680" on="0"/>
        <pt x="63" y="680" on="1"/>
        <pt x="76" y="680" on="0"/>
        <pt x="100" y="683" on="0"/>
        <pt x="113" y="685" on="1"/>
        <pt x="132" y="609" on="0"/>
        <pt x="168" y="476" on="0"/>
        <pt x="209" y="339" on="0"/>
        <pt x="256" y="188" on="0"/>
        <pt x="286" y="93" on="1"/>
        <pt x="288" y="93" on="1"/>
        <pt x="297" y="120" on="0"/>
        <pt x="329" y="215" on="0"/>
        <pt x="367" y="330" on="0"/>
        <pt x="409" y="454" on="0"/>
        <pt x="445" y="567" on="0"/>
        <pt x="473" y="660" on="0"/>
        <pt x="479" y="685" on="1"/>
        <pt x="499" y="680" on="0"/>
        <pt x="512" y="680" on="1"/>
        <pt x="525" y="680" on="0"/>
        <pt x="545" y="685" on="1"/>
        <pt x="552" y="658" on="0"/>
        <pt x="581" y="564" on="0"/>
        <pt x="617" y="449" on="0"/>
        <pt x="658" y="325" on="0"/>
        <pt x="696" y="211" on="0"/>
        <pt x="727" y="119" on="0"/>
        <pt x="736" y="93" on="1"/>
        <pt x="738" y="93" on="1"/>
        <pt x="745" y="115" on="0"/>
        <pt x="774" y="208" on="0"/>
        <pt x="811" y="325" on="0"/>
        <pt x="850" y="454" on="0"/>
        <pt x="885" y="571" on="0"/>
        <pt x="912" y="663" on="0"/>
        <pt x="917" y="685" on="1"/>
        <pt x="926" y="683" on="0"/>
        <pt x="943" y="680" on="0"/>
        <pt x="952" y="680" on="1"/>
        <pt x="961" y="680" on="0"/>
        <pt x="978" y="683" on="0"/>
        <pt x="987" y="685" on="1"/>
        <pt x="977" y="662" on="0"/>
        <pt x="939" y="556" on="0"/>
        <pt x="892" y="420" on="0"/>
        <pt x="841" y="268" on="0"/>
        <pt x="794" y="131" on="0"/>
        <pt x="757" y="22" on="0"/>
        <pt x="748" y="-2" on="1"/>
        <pt x="732" y="0" on="0"/>
        <pt x="714" y="0" on="1"/>
        <pt x="696" y="0" on="0"/>
        <pt x="680" y="-2" on="1"/>
        <pt x="635" y="137" on="0"/>
        <pt x="547" y="418" on="0"/>
        <pt x="496" y="568" on="1"/>
        <pt x="494" y="568" on="1"/>
        <pt x="486" y="545" on="0"/>
        <pt x="459" y="468" on="0"/>
        <pt x="426" y="372" on="0"/>
        <pt x="388" y="262" on="0"/>
        <pt x="350" y="150" on="0"/>
        <pt x="314" y="42" on="0"/>
        <pt x="299" y="-2" on="1"/>
        <pt x="283" y="0" on="0"/>
        <pt x="264" y="0" on="1"/>
        <pt x="245" y="0" on="0"/>
      </contour>
    </TTGlyph>
    <TTGlyph name="X" xMin="37" yMin="-2" xMax="574" yMax="685">
      <contour>
        <pt x="319" y="411" on="1"/>
        <pt x="365" y="479" on="0"/>
        <pt x="444" y="608" on="0"/>
        <pt x="486" y="685" on="1"/>
        <pt x="508" y="680" on="0"/>
        <pt x="523" y="680" on="1"/>
        <pt x="538" y="680" on="0"/>
        <pt x="560" y="685" on="1"/>
        <pt x="503" y="606" on="0"/>
        <pt x="393" y="454" on="0"/>
        <pt x="342" y="373" on="1"/>
        <pt x="399" y="276" on="0"/>
        <pt x="514" y="90" on="0"/>
        <pt x="574" y="-2" on="1"/>
        <pt x="560" y="0" on="0"/>
        <pt x="532" y="0" on="0"/>
        <pt x="518" y="0" on="1"/>
        <pt x="504" y="0" on="0"/>
        <pt x="476" y="0" on="0"/>
        <pt x="462" y="-2" on="1"/>
        <pt x="422" y="71" on="0"/>
        <pt x="343" y="222" on="0"/>
        <pt x="292" y="298" on="1"/>
        <pt x="241" y="222" on="0"/>
        <pt x="153" y="71" on="0"/>
        <pt x="111" y="-2" on="1"/>
        <pt x="101" y="0" on="0"/>
        <pt x="82" y="0" on="0"/>
        <pt x="74" y="0" on="1"/>
        <pt x="66" y="0" on="0"/>
        <pt x="47" y="0" on="0"/>
        <pt x="37" y="-2" on="1"/>
        <pt x="97" y="81" on="0"/>
        <pt x="211" y="251" on="0"/>
        <pt x="268" y="339" on="1"/>
        <pt x="216" y="427" on="0"/>
        <pt x="111" y="597" on="0"/>
        <pt x="56" y="685" on="1"/>
        <pt x="70" y="683" on="0"/>
        <pt x="96" y="680" on="0"/>
        <pt x="110" y="680" on="1"/>
        <pt x="124" y="680" on="0"/>
        <pt x="150" y="683" on="0"/>
        <pt x="164" y="685" on="1"/>
        <pt x="197" y="618" on="0"/>
        <pt x="273" y="487" on="0"/>
      </contour>
    </TTGlyph>
    <TTGlyph name="Y" xMin="22" yMin="-2" xMax="589" yMax="685">
      <contour>
        <pt x="265" y="279" on="1"/>
        <pt x="255" y="296" on="0"/>
        <pt x="216" y="361" on="0"/>
        <pt x="169" y="440" on="0"/>
        <pt x="117" y="527" on="0"/>
        <pt x="70" y="606" on="0"/>
        <pt x="32" y="669" on="0"/>
        <pt x="22" y="685" on="1"/>
        <pt x="36" y="683" on="0"/>
        <pt x="63" y="680" on="0"/>
        <pt x="77" y="680" on="1"/>
        <pt x="91" y="680" on="0"/>
        <pt x="118" y="683" on="0"/>
        <pt x="132" y="685" on="1"/>
        <pt x="177" y="598" on="0"/>
        <pt x="270" y="430" on="0"/>
        <pt x="322" y="339" on="1"/>
        <pt x="345" y="375" on="0"/>
        <pt x="395" y="461" on="0"/>
        <pt x="445" y="551" on="0"/>
        <pt x="491" y="642" on="0"/>
        <pt x="511" y="685" on="1"/>
        <pt x="536" y="680" on="0"/>
        <pt x="550" y="680" on="1"/>
        <pt x="564" y="680" on="0"/>
        <pt x="589" y="685" on="1"/>
        <pt x="541" y="612" on="0"/>
        <pt x="465" y="494" on="0"/>
        <pt x="407" y="398" on="0"/>
        <pt x="363" y="321" on="0"/>
        <pt x="347" y="290" on="1"/>
        <pt x="347" y="253" on="0"/>
        <pt x="348" y="169" on="0"/>
        <pt x="350" y="88" on="0"/>
        <pt x="353" y="19" on="0"/>
        <pt x="355" y="-2" on="1"/>
        <pt x="332" y="0" on="0"/>
        <pt x="306" y="0" on="1"/>
        <pt x="280" y="0" on="0"/>
        <pt x="257" y="-2" on="1"/>
        <pt x="263" y="50" on="0"/>
        <pt x="265" y="198" on="0"/>
      </contour>
    </TTGlyph>
    <TTGlyph name="Yacute" xMin="22" yMin="-2" xMax="589" yMax="894">
      <contour>
        <pt x="384" y="870" on="1"/>
        <pt x="408" y="894" on="0"/>
        <pt x="429" y="894" on="1"/>
        <pt x="439" y="894" on="0"/>
        <pt x="462" y="878" on="0"/>
        <pt x="462" y="862" on="1"/>
        <pt x="462" y="844" on="0"/>
        <pt x="438" y="823" on="0"/>
        <pt x="426" y="815" on="1"/>
        <pt x="279" y="721" on="1"/>
        <pt x="237" y="721" on="1"/>
      </contour>
      <contour>
        <pt x="265" y="279" on="1"/>
        <pt x="255" y="296" on="0"/>
        <pt x="216" y="361" on="0"/>
        <pt x="169" y="440" on="0"/>
        <pt x="117" y="527" on="0"/>
        <pt x="70" y="606" on="0"/>
        <pt x="32" y="669" on="0"/>
        <pt x="22" y="685" on="1"/>
        <pt x="36" y="683" on="0"/>
        <pt x="63" y="680" on="0"/>
        <pt x="77" y="680" on="1"/>
        <pt x="91" y="680" on="0"/>
        <pt x="118" y="683" on="0"/>
        <pt x="132" y="685" on="1"/>
        <pt x="177" y="598" on="0"/>
        <pt x="270" y="430" on="0"/>
        <pt x="322" y="339" on="1"/>
        <pt x="345" y="375" on="0"/>
        <pt x="395" y="461" on="0"/>
        <pt x="445" y="551" on="0"/>
        <pt x="491" y="642" on="0"/>
        <pt x="511" y="685" on="1"/>
        <pt x="536" y="680" on="0"/>
        <pt x="550" y="680" on="1"/>
        <pt x="564" y="680" on="0"/>
        <pt x="589" y="685" on="1"/>
        <pt x="541" y="612" on="0"/>
        <pt x="465" y="494" on="0"/>
        <pt x="407" y="398" on="0"/>
        <pt x="363" y="321" on="0"/>
        <pt x="347" y="290" on="1"/>
        <pt x="347" y="253" on="0"/>
        <pt x="348" y="169" on="0"/>
        <pt x="350" y="88" on="0"/>
        <pt x="353" y="19" on="0"/>
        <pt x="355" y="-2" on="1"/>
        <pt x="332" y="0" on="0"/>
        <pt x="306" y="0" on="1"/>
        <pt x="280" y="0" on="0"/>
        <pt x="257" y="-2" on="1"/>
        <pt x="263" y="50" on="0"/>
        <pt x="265" y="198" on="0"/>
      </contour>
    </TTGlyph>
    <TTGlyph name="Ydieresis" xMin="22" yMin="-2" xMax="589" yMax="860">
      <contour>
        <pt x="166" y="809" on="1"/>
        <pt x="166" y="830" on="0"/>
        <pt x="196" y="860" on="0"/>
        <pt x="217" y="860" on="1"/>
        <pt x="238" y="860" on="0"/>
        <pt x="268" y="830" on="0"/>
        <pt x="268" y="809" on="1"/>
        <pt x="268" y="788" on="0"/>
        <pt x="238" y="758" on="0"/>
        <pt x="217" y="758" on="1"/>
        <pt x="196" y="758" on="0"/>
        <pt x="166" y="788" on="0"/>
      </contour>
      <contour>
        <pt x="363" y="809" on="1"/>
        <pt x="363" y="830" on="0"/>
        <pt x="393" y="860" on="0"/>
        <pt x="414" y="860" on="1"/>
        <pt x="435" y="860" on="0"/>
        <pt x="465" y="830" on="0"/>
        <pt x="465" y="809" on="1"/>
        <pt x="465" y="788" on="0"/>
        <pt x="435" y="758" on="0"/>
        <pt x="414" y="758" on="1"/>
        <pt x="393" y="758" on="0"/>
        <pt x="363" y="788" on="0"/>
      </contour>
      <contour>
        <pt x="265" y="279" on="1"/>
        <pt x="255" y="296" on="0"/>
        <pt x="216" y="361" on="0"/>
        <pt x="169" y="440" on="0"/>
        <pt x="117" y="527" on="0"/>
        <pt x="70" y="606" on="0"/>
        <pt x="32" y="669" on="0"/>
        <pt x="22" y="685" on="1"/>
        <pt x="36" y="683" on="0"/>
        <pt x="63" y="680" on="0"/>
        <pt x="77" y="680" on="1"/>
        <pt x="91" y="680" on="0"/>
        <pt x="118" y="683" on="0"/>
        <pt x="132" y="685" on="1"/>
        <pt x="177" y="598" on="0"/>
        <pt x="270" y="430" on="0"/>
        <pt x="322" y="339" on="1"/>
        <pt x="345" y="375" on="0"/>
        <pt x="395" y="461" on="0"/>
        <pt x="445" y="551" on="0"/>
        <pt x="491" y="642" on="0"/>
        <pt x="511" y="685" on="1"/>
        <pt x="536" y="680" on="0"/>
        <pt x="550" y="680" on="1"/>
        <pt x="564" y="680" on="0"/>
        <pt x="589" y="685" on="1"/>
        <pt x="541" y="612" on="0"/>
        <pt x="465" y="494" on="0"/>
        <pt x="407" y="398" on="0"/>
        <pt x="363" y="321" on="0"/>
        <pt x="347" y="290" on="1"/>
        <pt x="347" y="253" on="0"/>
        <pt x="348" y="169" on="0"/>
        <pt x="350" y="88" on="0"/>
        <pt x="353" y="19" on="0"/>
        <pt x="355" y="-2" on="1"/>
        <pt x="332" y="0" on="0"/>
        <pt x="306" y="0" on="1"/>
        <pt x="280" y="0" on="0"/>
        <pt x="257" y="-2" on="1"/>
        <pt x="263" y="50" on="0"/>
        <pt x="265" y="198" on="0"/>
      </contour>
    </TTGlyph>
    <TTGlyph name="Z" xMin="23" yMin="-2" xMax="588" yMax="685">
      <contour>
        <pt x="23" y="12" on="1"/>
        <pt x="62" y="66" on="0"/>
        <pt x="149" y="190" on="0"/>
        <pt x="237" y="315" on="0"/>
        <pt x="321" y="436" on="0"/>
        <pt x="391" y="539" on="0"/>
        <pt x="443" y="616" on="0"/>
        <pt x="456" y="636" on="1"/>
        <pt x="438" y="637" on="0"/>
        <pt x="402" y="638" on="0"/>
        <pt x="386" y="638" on="1"/>
        <pt x="350" y="638" on="0"/>
        <pt x="262" y="636" on="0"/>
        <pt x="173" y="631" on="0"/>
        <pt x="92" y="626" on="0"/>
        <pt x="64" y="623" on="1"/>
        <pt x="69" y="641" on="0"/>
        <pt x="69" y="654" on="1"/>
        <pt x="69" y="667" on="0"/>
        <pt x="64" y="685" on="1"/>
        <pt x="113" y="681" on="0"/>
        <pt x="325" y="680" on="0"/>
        <pt x="481" y="680" on="1"/>
        <pt x="508" y="680" on="0"/>
        <pt x="562" y="683" on="0"/>
        <pt x="588" y="685" on="1"/>
        <pt x="588" y="667" on="1"/>
        <pt x="568" y="646" on="0"/>
        <pt x="496" y="550" on="0"/>
        <pt x="409" y="428" on="0"/>
        <pt x="315" y="292" on="0"/>
        <pt x="231" y="168" on="0"/>
        <pt x="166" y="69" on="0"/>
        <pt x="151" y="45" on="1"/>
        <pt x="175" y="43" on="0"/>
        <pt x="214" y="42" on="0"/>
        <pt x="234" y="42" on="1"/>
        <pt x="272" y="42" on="0"/>
        <pt x="373" y="45" on="0"/>
        <pt x="473" y="51" on="0"/>
        <pt x="562" y="57" on="0"/>
        <pt x="588" y="60" on="1"/>
        <pt x="586" y="51" on="0"/>
        <pt x="583" y="35" on="0"/>
        <pt x="583" y="27" on="1"/>
        <pt x="583" y="14" on="0"/>
        <pt x="588" y="-2" on="1"/>
        <pt x="552" y="-1" on="0"/>
        <pt x="491" y="0" on="0"/>
        <pt x="435" y="0" on="0"/>
        <pt x="408" y="0" on="1"/>
        <pt x="381" y="0" on="0"/>
        <pt x="353" y="0" on="1"/>
        <pt x="314" y="0" on="0"/>
        <pt x="264" y="0" on="1"/>
        <pt x="215" y="0" on="0"/>
        <pt x="120" y="0" on="0"/>
        <pt x="42" y="-1" on="0"/>
        <pt x="23" y="-2" on="1"/>
        <pt x="23" y="12" on="1"/>
      </contour>
    </TTGlyph>
    <TTGlyph name="Zcaron" xMin="23" yMin="-2" xMax="588" yMax="898">
      <contour>
        <pt x="462" y="898" on="1"/>
        <pt x="339" y="731" on="1"/>
        <pt x="272" y="731" on="1"/>
        <pt x="149" y="898" on="1"/>
        <pt x="186" y="898" on="1"/>
        <pt x="306" y="793" on="1"/>
        <pt x="425" y="898" on="1"/>
      </contour>
      <contour>
        <pt x="23" y="12" on="1"/>
        <pt x="62" y="66" on="0"/>
        <pt x="149" y="190" on="0"/>
        <pt x="237" y="315" on="0"/>
        <pt x="321" y="436" on="0"/>
        <pt x="391" y="539" on="0"/>
        <pt x="443" y="616" on="0"/>
        <pt x="456" y="636" on="1"/>
        <pt x="438" y="637" on="0"/>
        <pt x="402" y="638" on="0"/>
        <pt x="386" y="638" on="1"/>
        <pt x="350" y="638" on="0"/>
        <pt x="262" y="636" on="0"/>
        <pt x="173" y="631" on="0"/>
        <pt x="92" y="626" on="0"/>
        <pt x="64" y="623" on="1"/>
        <pt x="69" y="641" on="0"/>
        <pt x="69" y="654" on="1"/>
        <pt x="69" y="667" on="0"/>
        <pt x="64" y="685" on="1"/>
        <pt x="89" y="683" on="0"/>
        <pt x="166" y="681" on="0"/>
        <pt x="220" y="681" on="1"/>
        <pt x="246" y="680" on="0"/>
        <pt x="276" y="680" on="1"/>
        <pt x="306" y="680" on="0"/>
        <pt x="338" y="680" on="1"/>
        <pt x="481" y="680" on="1"/>
        <pt x="508" y="680" on="0"/>
        <pt x="562" y="683" on="0"/>
        <pt x="588" y="685" on="1"/>
        <pt x="588" y="667" on="1"/>
        <pt x="568" y="646" on="0"/>
        <pt x="496" y="550" on="0"/>
        <pt x="409" y="428" on="0"/>
        <pt x="315" y="292" on="0"/>
        <pt x="231" y="168" on="0"/>
        <pt x="166" y="69" on="0"/>
        <pt x="151" y="45" on="1"/>
        <pt x="175" y="43" on="0"/>
        <pt x="214" y="42" on="0"/>
        <pt x="234" y="42" on="1"/>
        <pt x="272" y="42" on="0"/>
        <pt x="373" y="45" on="0"/>
        <pt x="473" y="51" on="0"/>
        <pt x="562" y="57" on="0"/>
        <pt x="588" y="60" on="1"/>
        <pt x="586" y="51" on="0"/>
        <pt x="583" y="35" on="0"/>
        <pt x="583" y="27" on="1"/>
        <pt x="583" y="14" on="0"/>
        <pt x="588" y="-2" on="1"/>
        <pt x="552" y="-1" on="0"/>
        <pt x="491" y="0" on="0"/>
        <pt x="435" y="0" on="0"/>
        <pt x="408" y="0" on="1"/>
        <pt x="381" y="0" on="0"/>
        <pt x="353" y="0" on="1"/>
        <pt x="314" y="0" on="0"/>
        <pt x="264" y="0" on="1"/>
        <pt x="215" y="0" on="0"/>
        <pt x="120" y="0" on="0"/>
        <pt x="42" y="-1" on="0"/>
        <pt x="23" y="-2" on="1"/>
      </contour>
    </TTGlyph>
    <TTGlyph name="a" xMin="42" yMin="-12" xMax="465" yMax="483">
      <contour>
        <pt x="333" y="247" on="1"/>
        <pt x="316" y="241" on="0"/>
        <pt x="271" y="233" on="0"/>
        <pt x="225" y="224" on="0"/>
        <pt x="180" y="210" on="0"/>
        <pt x="145" y="186" on="0"/>
        <pt x="124" y="150" on="0"/>
        <pt x="124" y="122" on="1"/>
        <pt x="124" y="75" on="0"/>
        <pt x="178" y="27" on="0"/>
        <pt x="211" y="27" on="1"/>
        <pt x="249" y="27" on="0"/>
        <pt x="312" y="69" on="0"/>
        <pt x="329" y="97" on="1"/>
      </contour>
      <contour>
        <pt x="86" y="425" on="1"/>
        <pt x="131" y="459" on="0"/>
        <pt x="207" y="483" on="0"/>
        <pt x="247" y="483" on="1"/>
        <pt x="283" y="483" on="0"/>
        <pt x="343" y="462" on="0"/>
        <pt x="385" y="423" on="0"/>
        <pt x="409" y="368" on="0"/>
        <pt x="409" y="335" on="1"/>
        <pt x="409" y="278" on="0"/>
        <pt x="405" y="165" on="0"/>
        <pt x="405" y="102" on="1"/>
        <pt x="405" y="90" on="0"/>
        <pt x="406" y="63" on="0"/>
        <pt x="414" y="42" on="0"/>
        <pt x="429" y="28" on="0"/>
        <pt x="444" y="28" on="1"/>
        <pt x="449" y="28" on="0"/>
        <pt x="460" y="29" on="0"/>
        <pt x="465" y="32" on="1"/>
        <pt x="465" y="10" on="1"/>
        <pt x="454" y="5" on="0"/>
        <pt x="421" y="-1" on="0"/>
        <pt x="401" y="-1" on="1"/>
        <pt x="369" y="-1" on="0"/>
        <pt x="335" y="32" on="0"/>
        <pt x="332" y="58" on="1"/>
        <pt x="296" y="22" on="0"/>
        <pt x="226" y="-12" on="0"/>
        <pt x="175" y="-12" on="1"/>
        <pt x="150" y="-12" on="0"/>
        <pt x="102" y="2" on="0"/>
        <pt x="65" y="34" on="0"/>
        <pt x="42" y="79" on="0"/>
        <pt x="42" y="108" on="1"/>
        <pt x="42" y="168" on="0"/>
        <pt x="117" y="234" on="0"/>
        <pt x="183" y="245" on="1"/>
        <pt x="237" y="254" on="0"/>
        <pt x="298" y="267" on="0"/>
        <pt x="327" y="281" on="0"/>
        <pt x="333" y="300" on="0"/>
        <pt x="333" y="315" on="1"/>
        <pt x="333" y="340" on="0"/>
        <pt x="321" y="386" on="0"/>
        <pt x="295" y="420" on="0"/>
        <pt x="253" y="441" on="0"/>
        <pt x="223" y="441" on="1"/>
        <pt x="183" y="441" on="0"/>
        <pt x="114" y="405" on="0"/>
        <pt x="97" y="373" on="1"/>
        <pt x="86" y="373" on="1"/>
      </contour>
    </TTGlyph>
    <TTGlyph name="aacute" xMin="42" yMin="-12" xMax="465" yMax="732">
      <contour>
        <pt x="329" y="708" on="1"/>
        <pt x="353" y="732" on="0"/>
        <pt x="374" y="732" on="1"/>
        <pt x="384" y="732" on="0"/>
        <pt x="407" y="716" on="0"/>
        <pt x="407" y="700" on="1"/>
        <pt x="407" y="682" on="0"/>
        <pt x="383" y="661" on="0"/>
        <pt x="371" y="653" on="1"/>
        <pt x="224" y="559" on="1"/>
        <pt x="182" y="559" on="1"/>
      </contour>
      <contour>
        <pt x="333" y="247" on="1"/>
        <pt x="316" y="241" on="0"/>
        <pt x="271" y="233" on="0"/>
        <pt x="225" y="224" on="0"/>
        <pt x="180" y="210" on="0"/>
        <pt x="145" y="186" on="0"/>
        <pt x="124" y="150" on="0"/>
        <pt x="124" y="122" on="1"/>
        <pt x="124" y="75" on="0"/>
        <pt x="178" y="27" on="0"/>
        <pt x="211" y="27" on="1"/>
        <pt x="249" y="27" on="0"/>
        <pt x="312" y="69" on="0"/>
        <pt x="329" y="97" on="1"/>
      </contour>
      <contour>
        <pt x="86" y="425" on="1"/>
        <pt x="131" y="459" on="0"/>
        <pt x="207" y="483" on="0"/>
        <pt x="247" y="483" on="1"/>
        <pt x="283" y="483" on="0"/>
        <pt x="343" y="462" on="0"/>
        <pt x="385" y="423" on="0"/>
        <pt x="409" y="368" on="0"/>
        <pt x="409" y="335" on="1"/>
        <pt x="409" y="278" on="0"/>
        <pt x="405" y="165" on="0"/>
        <pt x="405" y="102" on="1"/>
        <pt x="405" y="90" on="0"/>
        <pt x="406" y="63" on="0"/>
        <pt x="414" y="42" on="0"/>
        <pt x="429" y="28" on="0"/>
        <pt x="444" y="28" on="1"/>
        <pt x="449" y="28" on="0"/>
        <pt x="460" y="29" on="0"/>
        <pt x="465" y="32" on="1"/>
        <pt x="465" y="10" on="1"/>
        <pt x="454" y="5" on="0"/>
        <pt x="421" y="-1" on="0"/>
        <pt x="401" y="-1" on="1"/>
        <pt x="369" y="-1" on="0"/>
        <pt x="335" y="32" on="0"/>
        <pt x="332" y="58" on="1"/>
        <pt x="296" y="22" on="0"/>
        <pt x="226" y="-12" on="0"/>
        <pt x="175" y="-12" on="1"/>
        <pt x="150" y="-12" on="0"/>
        <pt x="102" y="2" on="0"/>
        <pt x="65" y="34" on="0"/>
        <pt x="42" y="79" on="0"/>
        <pt x="42" y="108" on="1"/>
        <pt x="42" y="168" on="0"/>
        <pt x="117" y="234" on="0"/>
        <pt x="183" y="245" on="1"/>
        <pt x="237" y="254" on="0"/>
        <pt x="298" y="267" on="0"/>
        <pt x="327" y="281" on="0"/>
        <pt x="333" y="300" on="0"/>
        <pt x="333" y="315" on="1"/>
        <pt x="333" y="340" on="0"/>
        <pt x="321" y="386" on="0"/>
        <pt x="295" y="420" on="0"/>
        <pt x="253" y="441" on="0"/>
        <pt x="223" y="441" on="1"/>
        <pt x="183" y="441" on="0"/>
        <pt x="114" y="405" on="0"/>
        <pt x="97" y="373" on="1"/>
        <pt x="86" y="373" on="1"/>
      </contour>
    </TTGlyph>
    <TTGlyph name="acircumflex" xMin="42" yMin="-12" xMax="465" yMax="726">
      <contour>
        <pt x="131" y="559" on="1"/>
        <pt x="94" y="559" on="1"/>
        <pt x="217" y="726" on="1"/>
        <pt x="284" y="726" on="1"/>
        <pt x="407" y="559" on="1"/>
        <pt x="370" y="559" on="1"/>
        <pt x="250" y="664" on="1"/>
      </contour>
      <contour>
        <pt x="333" y="247" on="1"/>
        <pt x="316" y="241" on="0"/>
        <pt x="271" y="233" on="0"/>
        <pt x="225" y="224" on="0"/>
        <pt x="180" y="210" on="0"/>
        <pt x="145" y="186" on="0"/>
        <pt x="124" y="150" on="0"/>
        <pt x="124" y="122" on="1"/>
        <pt x="124" y="75" on="0"/>
        <pt x="178" y="27" on="0"/>
        <pt x="211" y="27" on="1"/>
        <pt x="249" y="27" on="0"/>
        <pt x="312" y="69" on="0"/>
        <pt x="329" y="97" on="1"/>
      </contour>
      <contour>
        <pt x="86" y="425" on="1"/>
        <pt x="131" y="459" on="0"/>
        <pt x="207" y="483" on="0"/>
        <pt x="247" y="483" on="1"/>
        <pt x="283" y="483" on="0"/>
        <pt x="343" y="462" on="0"/>
        <pt x="385" y="423" on="0"/>
        <pt x="409" y="368" on="0"/>
        <pt x="409" y="335" on="1"/>
        <pt x="409" y="278" on="0"/>
        <pt x="405" y="165" on="0"/>
        <pt x="405" y="102" on="1"/>
        <pt x="405" y="90" on="0"/>
        <pt x="406" y="63" on="0"/>
        <pt x="414" y="42" on="0"/>
        <pt x="429" y="28" on="0"/>
        <pt x="444" y="28" on="1"/>
        <pt x="449" y="28" on="0"/>
        <pt x="460" y="29" on="0"/>
        <pt x="465" y="32" on="1"/>
        <pt x="465" y="10" on="1"/>
        <pt x="454" y="5" on="0"/>
        <pt x="421" y="-1" on="0"/>
        <pt x="401" y="-1" on="1"/>
        <pt x="369" y="-1" on="0"/>
        <pt x="335" y="32" on="0"/>
        <pt x="332" y="58" on="1"/>
        <pt x="296" y="22" on="0"/>
        <pt x="226" y="-12" on="0"/>
        <pt x="175" y="-12" on="1"/>
        <pt x="150" y="-12" on="0"/>
        <pt x="102" y="2" on="0"/>
        <pt x="65" y="34" on="0"/>
        <pt x="42" y="79" on="0"/>
        <pt x="42" y="108" on="1"/>
        <pt x="42" y="168" on="0"/>
        <pt x="117" y="234" on="0"/>
        <pt x="183" y="245" on="1"/>
        <pt x="237" y="254" on="0"/>
        <pt x="298" y="267" on="0"/>
        <pt x="327" y="281" on="0"/>
        <pt x="333" y="300" on="0"/>
        <pt x="333" y="315" on="1"/>
        <pt x="333" y="340" on="0"/>
        <pt x="321" y="386" on="0"/>
        <pt x="295" y="420" on="0"/>
        <pt x="253" y="441" on="0"/>
        <pt x="223" y="441" on="1"/>
        <pt x="183" y="441" on="0"/>
        <pt x="114" y="405" on="0"/>
        <pt x="97" y="373" on="1"/>
        <pt x="86" y="373" on="1"/>
      </contour>
    </TTGlyph>
    <TTGlyph name="acute" xMin="98" yMin="559" xMax="323" yMax="732">
      <contour>
        <pt x="245" y="708" on="1"/>
        <pt x="269" y="732" on="0"/>
        <pt x="290" y="732" on="1"/>
        <pt x="300" y="732" on="0"/>
        <pt x="323" y="716" on="0"/>
        <pt x="323" y="700" on="1"/>
        <pt x="323" y="682" on="0"/>
        <pt x="299" y="661" on="0"/>
        <pt x="287" y="653" on="1"/>
        <pt x="140" y="559" on="1"/>
        <pt x="98" y="559" on="1"/>
        <pt x="245" y="708" on="1"/>
      </contour>
    </TTGlyph>
    <TTGlyph name="acutecmb" xMin="-232" yMin="559" xMax="-7" yMax="732">
      <component glyphName="acute" x="-330" y="0" flags="0x4"/>
    </TTGlyph>
    <TTGlyph name="adieresis" xMin="42" yMin="-12" xMax="465" yMax="688">
      <contour>
        <pt x="101" y="637" on="1"/>
        <pt x="101" y="658" on="0"/>
        <pt x="131" y="688" on="0"/>
        <pt x="152" y="688" on="1"/>
        <pt x="173" y="688" on="0"/>
        <pt x="203" y="658" on="0"/>
        <pt x="203" y="637" on="1"/>
        <pt x="203" y="616" on="0"/>
        <pt x="173" y="586" on="0"/>
        <pt x="152" y="586" on="1"/>
        <pt x="131" y="586" on="0"/>
        <pt x="101" y="616" on="0"/>
      </contour>
      <contour>
        <pt x="298" y="637" on="1"/>
        <pt x="298" y="658" on="0"/>
        <pt x="328" y="688" on="0"/>
        <pt x="349" y="688" on="1"/>
        <pt x="370" y="688" on="0"/>
        <pt x="400" y="658" on="0"/>
        <pt x="400" y="637" on="1"/>
        <pt x="400" y="616" on="0"/>
        <pt x="370" y="586" on="0"/>
        <pt x="349" y="586" on="1"/>
        <pt x="328" y="586" on="0"/>
        <pt x="298" y="616" on="0"/>
      </contour>
      <contour>
        <pt x="333" y="247" on="1"/>
        <pt x="316" y="241" on="0"/>
        <pt x="271" y="233" on="0"/>
        <pt x="225" y="224" on="0"/>
        <pt x="180" y="210" on="0"/>
        <pt x="145" y="186" on="0"/>
        <pt x="124" y="150" on="0"/>
        <pt x="124" y="122" on="1"/>
        <pt x="124" y="75" on="0"/>
        <pt x="178" y="27" on="0"/>
        <pt x="211" y="27" on="1"/>
        <pt x="249" y="27" on="0"/>
        <pt x="312" y="69" on="0"/>
        <pt x="329" y="97" on="1"/>
      </contour>
      <contour>
        <pt x="86" y="425" on="1"/>
        <pt x="131" y="459" on="0"/>
        <pt x="207" y="483" on="0"/>
        <pt x="247" y="483" on="1"/>
        <pt x="283" y="483" on="0"/>
        <pt x="343" y="462" on="0"/>
        <pt x="385" y="423" on="0"/>
        <pt x="409" y="368" on="0"/>
        <pt x="409" y="335" on="1"/>
        <pt x="409" y="278" on="0"/>
        <pt x="405" y="165" on="0"/>
        <pt x="405" y="102" on="1"/>
        <pt x="405" y="90" on="0"/>
        <pt x="406" y="63" on="0"/>
        <pt x="414" y="42" on="0"/>
        <pt x="429" y="28" on="0"/>
        <pt x="444" y="28" on="1"/>
        <pt x="449" y="28" on="0"/>
        <pt x="460" y="29" on="0"/>
        <pt x="465" y="32" on="1"/>
        <pt x="465" y="10" on="1"/>
        <pt x="454" y="5" on="0"/>
        <pt x="421" y="-1" on="0"/>
        <pt x="401" y="-1" on="1"/>
        <pt x="369" y="-1" on="0"/>
        <pt x="335" y="32" on="0"/>
        <pt x="332" y="58" on="1"/>
        <pt x="296" y="22" on="0"/>
        <pt x="226" y="-12" on="0"/>
        <pt x="175" y="-12" on="1"/>
        <pt x="150" y="-12" on="0"/>
        <pt x="102" y="2" on="0"/>
        <pt x="65" y="34" on="0"/>
        <pt x="42" y="79" on="0"/>
        <pt x="42" y="108" on="1"/>
        <pt x="42" y="168" on="0"/>
        <pt x="117" y="234" on="0"/>
        <pt x="183" y="245" on="1"/>
        <pt x="237" y="254" on="0"/>
        <pt x="298" y="267" on="0"/>
        <pt x="327" y="281" on="0"/>
        <pt x="333" y="300" on="0"/>
        <pt x="333" y="315" on="1"/>
        <pt x="333" y="340" on="0"/>
        <pt x="321" y="386" on="0"/>
        <pt x="295" y="420" on="0"/>
        <pt x="253" y="441" on="0"/>
        <pt x="223" y="441" on="1"/>
        <pt x="183" y="441" on="0"/>
        <pt x="114" y="405" on="0"/>
        <pt x="97" y="373" on="1"/>
        <pt x="86" y="373" on="1"/>
      </contour>
    </TTGlyph>
    <TTGlyph name="ae" xMin="35" yMin="-12" xMax="749" yMax="483">
      <contour>
        <pt x="544" y="451" on="1"/>
        <pt x="507" y="451" on="0"/>
        <pt x="456" y="417" on="0"/>
        <pt x="423" y="366" on="0"/>
        <pt x="406" y="305" on="0"/>
        <pt x="404" y="278" on="1"/>
        <pt x="435" y="277" on="0"/>
        <pt x="502" y="275" on="0"/>
        <pt x="534" y="275" on="1"/>
        <pt x="567" y="275" on="0"/>
        <pt x="635" y="277" on="0"/>
        <pt x="667" y="278" on="1"/>
        <pt x="667" y="305" on="0"/>
        <pt x="658" y="365" on="0"/>
        <pt x="631" y="417" on="0"/>
        <pt x="583" y="451" on="0"/>
      </contour>
      <contour>
        <pt x="79" y="425" on="1"/>
        <pt x="124" y="459" on="0"/>
        <pt x="200" y="483" on="0"/>
        <pt x="240" y="483" on="1"/>
        <pt x="257" y="483" on="0"/>
        <pt x="295" y="477" on="0"/>
        <pt x="334" y="460" on="0"/>
        <pt x="373" y="431" on="0"/>
        <pt x="390" y="408" on="1"/>
        <pt x="416" y="443" on="0"/>
        <pt x="494" y="483" on="0"/>
        <pt x="542" y="483" on="1"/>
        <pt x="595" y="483" on="0"/>
        <pt x="672" y="450" on="0"/>
        <pt x="724" y="395" on="0"/>
        <pt x="749" y="321" on="0"/>
        <pt x="749" y="279" on="1"/>
        <pt x="749" y="269" on="0"/>
        <pt x="748" y="250" on="0"/>
        <pt x="747" y="240" on="1"/>
        <pt x="693" y="241" on="0"/>
        <pt x="587" y="243" on="0"/>
        <pt x="533" y="243" on="1"/>
        <pt x="500" y="243" on="0"/>
        <pt x="435" y="241" on="0"/>
        <pt x="402" y="240" on="1"/>
        <pt x="401" y="235" on="0"/>
        <pt x="401" y="225" on="1"/>
        <pt x="401" y="212" on="1"/>
        <pt x="401" y="173" on="0"/>
        <pt x="424" y="105" on="0"/>
        <pt x="468" y="56" on="0"/>
        <pt x="532" y="27" on="0"/>
        <pt x="574" y="27" on="1"/>
        <pt x="594" y="27" on="0"/>
        <pt x="636" y="38" on="0"/>
        <pt x="676" y="57" on="0"/>
        <pt x="711" y="83" on="0"/>
        <pt x="724" y="98" on="1"/>
        <pt x="729" y="95" on="1"/>
        <pt x="723" y="46" on="1"/>
        <pt x="693" y="22" on="0"/>
        <pt x="604" y="-12" on="0"/>
        <pt x="556" y="-12" on="1"/>
        <pt x="484" y="-12" on="0"/>
        <pt x="376" y="46" on="0"/>
        <pt x="351" y="104" on="1"/>
        <pt x="343" y="82" on="0"/>
        <pt x="315" y="39" on="0"/>
        <pt x="271" y="6" on="0"/>
        <pt x="210" y="-12" on="0"/>
        <pt x="168" y="-12" on="1"/>
        <pt x="143" y="-12" on="0"/>
        <pt x="95" y="2" on="0"/>
        <pt x="58" y="34" on="0"/>
        <pt x="35" y="79" on="0"/>
        <pt x="35" y="108" on="1"/>
        <pt x="35" y="168" on="0"/>
        <pt x="110" y="234" on="0"/>
        <pt x="176" y="245" on="1"/>
        <pt x="230" y="254" on="0"/>
        <pt x="291" y="267" on="0"/>
        <pt x="320" y="281" on="0"/>
        <pt x="326" y="300" on="0"/>
        <pt x="326" y="315" on="1"/>
        <pt x="326" y="340" on="0"/>
        <pt x="314" y="386" on="0"/>
        <pt x="288" y="420" on="0"/>
        <pt x="246" y="441" on="0"/>
        <pt x="216" y="441" on="1"/>
        <pt x="176" y="441" on="0"/>
        <pt x="107" y="405" on="0"/>
        <pt x="90" y="373" on="1"/>
        <pt x="79" y="373" on="1"/>
      </contour>
      <contour>
        <pt x="117" y="122" on="1"/>
        <pt x="117" y="79" on="0"/>
        <pt x="168" y="27" on="0"/>
        <pt x="211" y="27" on="1"/>
        <pt x="231" y="27" on="0"/>
        <pt x="270" y="40" on="0"/>
        <pt x="302" y="67" on="0"/>
        <pt x="322" y="106" on="0"/>
        <pt x="324" y="133" on="1"/>
        <pt x="326" y="162" on="0"/>
        <pt x="325" y="218" on="0"/>
        <pt x="326" y="247" on="1"/>
        <pt x="309" y="241" on="0"/>
        <pt x="264" y="233" on="0"/>
        <pt x="218" y="224" on="0"/>
        <pt x="173" y="210" on="0"/>
        <pt x="138" y="186" on="0"/>
        <pt x="117" y="150" on="0"/>
      </contour>
    </TTGlyph>
    <TTGlyph name="agrave" xMin="42" yMin="-12" xMax="465" yMax="732">
      <contour>
        <pt x="130" y="653" on="1"/>
        <pt x="118" y="661" on="0"/>
        <pt x="94" y="682" on="0"/>
        <pt x="94" y="700" on="1"/>
        <pt x="94" y="716" on="0"/>
        <pt x="117" y="732" on="0"/>
        <pt x="127" y="732" on="1"/>
        <pt x="148" y="732" on="0"/>
        <pt x="172" y="708" on="1"/>
        <pt x="319" y="559" on="1"/>
        <pt x="277" y="559" on="1"/>
      </contour>
      <contour>
        <pt x="333" y="247" on="1"/>
        <pt x="316" y="241" on="0"/>
        <pt x="271" y="233" on="0"/>
        <pt x="225" y="224" on="0"/>
        <pt x="180" y="210" on="0"/>
        <pt x="145" y="186" on="0"/>
        <pt x="124" y="150" on="0"/>
        <pt x="124" y="122" on="1"/>
        <pt x="124" y="75" on="0"/>
        <pt x="178" y="27" on="0"/>
        <pt x="211" y="27" on="1"/>
        <pt x="249" y="27" on="0"/>
        <pt x="312" y="69" on="0"/>
        <pt x="329" y="97" on="1"/>
      </contour>
      <contour>
        <pt x="86" y="425" on="1"/>
        <pt x="131" y="459" on="0"/>
        <pt x="207" y="483" on="0"/>
        <pt x="247" y="483" on="1"/>
        <pt x="283" y="483" on="0"/>
        <pt x="343" y="462" on="0"/>
        <pt x="385" y="423" on="0"/>
        <pt x="409" y="368" on="0"/>
        <pt x="409" y="335" on="1"/>
        <pt x="409" y="278" on="0"/>
        <pt x="405" y="165" on="0"/>
        <pt x="405" y="102" on="1"/>
        <pt x="405" y="90" on="0"/>
        <pt x="406" y="63" on="0"/>
        <pt x="414" y="42" on="0"/>
        <pt x="429" y="28" on="0"/>
        <pt x="444" y="28" on="1"/>
        <pt x="449" y="28" on="0"/>
        <pt x="460" y="29" on="0"/>
        <pt x="465" y="32" on="1"/>
        <pt x="465" y="10" on="1"/>
        <pt x="454" y="5" on="0"/>
        <pt x="421" y="-1" on="0"/>
        <pt x="401" y="-1" on="1"/>
        <pt x="369" y="-1" on="0"/>
        <pt x="335" y="32" on="0"/>
        <pt x="332" y="58" on="1"/>
        <pt x="296" y="22" on="0"/>
        <pt x="226" y="-12" on="0"/>
        <pt x="175" y="-12" on="1"/>
        <pt x="150" y="-12" on="0"/>
        <pt x="102" y="2" on="0"/>
        <pt x="65" y="34" on="0"/>
        <pt x="42" y="79" on="0"/>
        <pt x="42" y="108" on="1"/>
        <pt x="42" y="168" on="0"/>
        <pt x="117" y="234" on="0"/>
        <pt x="183" y="245" on="1"/>
        <pt x="237" y="254" on="0"/>
        <pt x="298" y="267" on="0"/>
        <pt x="327" y="281" on="0"/>
        <pt x="333" y="300" on="0"/>
        <pt x="333" y="315" on="1"/>
        <pt x="333" y="340" on="0"/>
        <pt x="321" y="386" on="0"/>
        <pt x="295" y="420" on="0"/>
        <pt x="253" y="441" on="0"/>
        <pt x="223" y="441" on="1"/>
        <pt x="183" y="441" on="0"/>
        <pt x="114" y="405" on="0"/>
        <pt x="97" y="373" on="1"/>
        <pt x="86" y="373" on="1"/>
      </contour>
    </TTGlyph>
    <TTGlyph name="ampersand" xMin="71" yMin="-15" xMax="669" yMax="672">
      <contour>
        <pt x="153" y="169" on="1"/>
        <pt x="153" y="142" on="0"/>
        <pt x="175" y="91" on="0"/>
        <pt x="214" y="52" on="0"/>
        <pt x="268" y="29" on="0"/>
        <pt x="300" y="29" on="1"/>
        <pt x="351" y="29" on="0"/>
        <pt x="423" y="66" on="0"/>
        <pt x="458" y="101" on="1"/>
        <pt x="407" y="161" on="0"/>
        <pt x="315" y="279" on="0"/>
        <pt x="270" y="342" on="1"/>
        <pt x="215" y="309" on="0"/>
        <pt x="153" y="231" on="0"/>
      </contour>
      <contour>
        <pt x="186" y="522" on="1"/>
        <pt x="186" y="554" on="0"/>
        <pt x="209" y="608" on="0"/>
        <pt x="250" y="649" on="0"/>
        <pt x="306" y="672" on="0"/>
        <pt x="340" y="672" on="1"/>
        <pt x="398" y="672" on="0"/>
        <pt x="473" y="615" on="0"/>
        <pt x="473" y="560" on="1"/>
        <pt x="473" y="532" on="0"/>
        <pt x="447" y="480" on="0"/>
        <pt x="406" y="435" on="0"/>
        <pt x="358" y="398" on="0"/>
        <pt x="336" y="385" on="1"/>
        <pt x="381" y="327" on="0"/>
        <pt x="467" y="216" on="0"/>
        <pt x="512" y="167" on="1"/>
        <pt x="548" y="218" on="0"/>
        <pt x="607" y="311" on="0"/>
        <pt x="631" y="365" on="1"/>
        <pt x="637" y="352" on="0"/>
        <pt x="658" y="333" on="0"/>
        <pt x="669" y="325" on="1"/>
        <pt x="638" y="277" on="0"/>
        <pt x="576" y="187" on="0"/>
        <pt x="534" y="139" on="1"/>
        <pt x="662" y="-2" on="1"/>
        <pt x="646" y="0" on="0"/>
        <pt x="614" y="0" on="0"/>
        <pt x="598" y="0" on="1"/>
        <pt x="584" y="0" on="0"/>
        <pt x="555" y="0" on="0"/>
        <pt x="541" y="-2" on="1"/>
        <pt x="533" y="9" on="0"/>
        <pt x="500" y="54" on="0"/>
        <pt x="478" y="80" on="1"/>
        <pt x="434" y="36" on="0"/>
        <pt x="333" y="-15" on="0"/>
        <pt x="262" y="-15" on="1"/>
        <pt x="223" y="-15" on="0"/>
        <pt x="154" y="4" on="0"/>
        <pt x="102" y="46" on="0"/>
        <pt x="71" y="109" on="0"/>
        <pt x="71" y="151" on="1"/>
        <pt x="71" y="184" on="0"/>
        <pt x="99" y="247" on="0"/>
        <pt x="148" y="304" on="0"/>
        <pt x="214" y="350" on="0"/>
        <pt x="253" y="366" on="1"/>
        <pt x="224" y="408" on="0"/>
        <pt x="186" y="484" on="0"/>
      </contour>
      <contour>
        <pt x="421" y="561" on="1"/>
        <pt x="421" y="597" on="0"/>
        <pt x="378" y="644" on="0"/>
        <pt x="341" y="644" on="1"/>
        <pt x="302" y="644" on="0"/>
        <pt x="256" y="590" on="0"/>
        <pt x="256" y="550" on="1"/>
        <pt x="256" y="520" on="0"/>
        <pt x="291" y="440" on="0"/>
        <pt x="319" y="406" on="1"/>
        <pt x="370" y="438" on="0"/>
        <pt x="421" y="523" on="0"/>
      </contour>
    </TTGlyph>
    <TTGlyph name="apple" xMin="51" yMin="-20" xMax="749" yMax="811">
      <contour>
        <pt x="408" y="588" on="1"/>
        <pt x="428" y="588" on="0"/>
        <pt x="530" y="622" on="0"/>
        <pt x="566" y="622" on="1"/>
        <pt x="626" y="622" on="0"/>
        <pt x="673" y="590" on="1"/>
        <pt x="686" y="580" on="0"/>
        <pt x="712" y="556" on="0"/>
        <pt x="725" y="540" on="1"/>
        <pt x="686" y="506" on="0"/>
        <pt x="668" y="480" on="1"/>
        <pt x="635" y="434" on="0"/>
        <pt x="635" y="377" on="1"/>
        <pt x="635" y="315" on="0"/>
        <pt x="670" y="265" on="1"/>
        <pt x="704" y="216" on="0"/>
        <pt x="749" y="202" on="1"/>
        <pt x="739" y="172" on="0"/>
        <pt x="709" y="109" on="0"/>
        <pt x="688" y="77" on="1"/>
        <pt x="624" y="-18" on="0"/>
        <pt x="559" y="-18" on="1"/>
        <pt x="532" y="-18" on="0"/>
        <pt x="488" y="-2" on="1"/>
        <pt x="445" y="11" on="0"/>
        <pt x="413" y="11" on="1"/>
        <pt x="380" y="11" on="0"/>
        <pt x="341" y="-3" on="1"/>
        <pt x="299" y="-20" on="0"/>
        <pt x="275" y="-20" on="1"/>
        <pt x="199" y="-20" on="0"/>
        <pt x="125" y="107" on="1"/>
        <pt x="51" y="235" on="0"/>
        <pt x="51" y="359" on="1"/>
        <pt x="51" y="473" on="0"/>
        <pt x="107" y="546" on="1"/>
        <pt x="164" y="618" on="0"/>
        <pt x="250" y="618" on="1"/>
        <pt x="287" y="618" on="0"/>
        <pt x="339" y="603" on="1"/>
        <pt x="392" y="588" on="0"/>
      </contour>
      <contour>
        <pt x="561" y="790" on="1"/>
        <pt x="561" y="758" on="0"/>
        <pt x="531" y="684" on="0"/>
        <pt x="500" y="652" on="1"/>
        <pt x="471" y="625" on="0"/>
        <pt x="445" y="616" on="1"/>
        <pt x="426" y="611" on="0"/>
        <pt x="394" y="608" on="1"/>
        <pt x="395" y="682" on="0"/>
        <pt x="470" y="791" on="0"/>
        <pt x="558" y="811" on="1"/>
        <pt x="560" y="804" on="0"/>
        <pt x="561" y="794" on="0"/>
      </contour>
    </TTGlyph>
    <TTGlyph name="approxequal" xMin="15" yMin="133" xMax="535" yMax="508">
      <contour>
        <pt x="535" y="507" on="1"/>
        <pt x="533" y="444" on="0"/>
        <pt x="465" y="374" on="0"/>
        <pt x="417" y="374" on="1"/>
        <pt x="390" y="374" on="0"/>
        <pt x="368" y="381" on="1"/>
        <pt x="355" y="385" on="0"/>
        <pt x="288" y="411" on="0"/>
        <pt x="234" y="433" on="1"/>
        <pt x="160" y="464" on="0"/>
        <pt x="126" y="464" on="1"/>
        <pt x="92" y="464" on="0"/>
        <pt x="45" y="421" on="0"/>
        <pt x="36" y="375" on="1"/>
        <pt x="15" y="375" on="1"/>
        <pt x="15" y="407" on="0"/>
        <pt x="34" y="455" on="0"/>
        <pt x="66" y="489" on="0"/>
        <pt x="107" y="507" on="0"/>
        <pt x="128" y="508" on="1"/>
        <pt x="151" y="508" on="0"/>
        <pt x="171" y="501" on="1"/>
        <pt x="197" y="494" on="0"/>
        <pt x="267" y="468" on="0"/>
        <pt x="313" y="448" on="1"/>
        <pt x="338" y="437" on="0"/>
        <pt x="376" y="423" on="0"/>
        <pt x="390" y="419" on="1"/>
        <pt x="404" y="416" on="0"/>
        <pt x="422" y="416" on="1"/>
        <pt x="459" y="416" on="0"/>
        <pt x="509" y="462" on="0"/>
        <pt x="514" y="507" on="1"/>
      </contour>
      <contour>
        <pt x="535" y="267" on="1"/>
        <pt x="533" y="204" on="0"/>
        <pt x="465" y="133" on="0"/>
        <pt x="417" y="133" on="1"/>
        <pt x="394" y="133" on="0"/>
        <pt x="343" y="148" on="1"/>
        <pt x="234" y="193" on="1"/>
        <pt x="160" y="224" on="0"/>
        <pt x="126" y="224" on="1"/>
        <pt x="92" y="224" on="0"/>
        <pt x="45" y="182" on="0"/>
        <pt x="36" y="134" on="1"/>
        <pt x="15" y="134" on="1"/>
        <pt x="15" y="167" on="0"/>
        <pt x="34" y="216" on="0"/>
        <pt x="65" y="249" on="0"/>
        <pt x="105" y="267" on="0"/>
        <pt x="127" y="268" on="1"/>
        <pt x="149" y="268" on="0"/>
        <pt x="171" y="262" on="1"/>
        <pt x="219" y="248" on="0"/>
        <pt x="313" y="208" on="1"/>
        <pt x="337" y="197" on="0"/>
        <pt x="376" y="184" on="0"/>
        <pt x="390" y="180" on="1"/>
        <pt x="401" y="176" on="0"/>
        <pt x="422" y="176" on="1"/>
        <pt x="459" y="176" on="0"/>
        <pt x="509" y="222" on="0"/>
        <pt x="514" y="267" on="1"/>
      </contour>
    </TTGlyph>
    <TTGlyph name="aring" xMin="42" yMin="-12" xMax="465" yMax="747">
      <contour>
        <pt x="190" y="645" on="1"/>
        <pt x="190" y="620" on="0"/>
        <pt x="225" y="585" on="0"/>
        <pt x="250" y="585" on="1"/>
        <pt x="276" y="585" on="0"/>
        <pt x="311" y="620" on="0"/>
        <pt x="311" y="645" on="1"/>
        <pt x="311" y="670" on="0"/>
        <pt x="276" y="705" on="0"/>
        <pt x="251" y="705" on="1"/>
        <pt x="225" y="705" on="0"/>
        <pt x="190" y="670" on="0"/>
      </contour>
      <contour>
        <pt x="148" y="645" on="1"/>
        <pt x="148" y="666" on="0"/>
        <pt x="164" y="703" on="0"/>
        <pt x="192" y="731" on="0"/>
        <pt x="230" y="747" on="0"/>
        <pt x="251" y="747" on="1"/>
        <pt x="272" y="747" on="0"/>
        <pt x="309" y="731" on="0"/>
        <pt x="337" y="703" on="0"/>
        <pt x="353" y="666" on="0"/>
        <pt x="353" y="645" on="1"/>
        <pt x="353" y="624" on="0"/>
        <pt x="337" y="587" on="0"/>
        <pt x="309" y="559" on="0"/>
        <pt x="271" y="543" on="0"/>
        <pt x="250" y="543" on="1"/>
        <pt x="229" y="543" on="0"/>
        <pt x="192" y="559" on="0"/>
        <pt x="164" y="587" on="0"/>
        <pt x="148" y="624" on="0"/>
      </contour>
      <contour>
        <pt x="333" y="247" on="1"/>
        <pt x="316" y="241" on="0"/>
        <pt x="271" y="233" on="0"/>
        <pt x="225" y="224" on="0"/>
        <pt x="180" y="210" on="0"/>
        <pt x="145" y="186" on="0"/>
        <pt x="124" y="150" on="0"/>
        <pt x="124" y="122" on="1"/>
        <pt x="124" y="75" on="0"/>
        <pt x="178" y="27" on="0"/>
        <pt x="211" y="27" on="1"/>
        <pt x="249" y="27" on="0"/>
        <pt x="312" y="69" on="0"/>
        <pt x="329" y="97" on="1"/>
      </contour>
      <contour>
        <pt x="86" y="425" on="1"/>
        <pt x="131" y="459" on="0"/>
        <pt x="207" y="483" on="0"/>
        <pt x="247" y="483" on="1"/>
        <pt x="283" y="483" on="0"/>
        <pt x="343" y="462" on="0"/>
        <pt x="385" y="423" on="0"/>
        <pt x="409" y="368" on="0"/>
        <pt x="409" y="335" on="1"/>
        <pt x="409" y="278" on="0"/>
        <pt x="405" y="165" on="0"/>
        <pt x="405" y="102" on="1"/>
        <pt x="405" y="90" on="0"/>
        <pt x="406" y="63" on="0"/>
        <pt x="414" y="42" on="0"/>
        <pt x="429" y="28" on="0"/>
        <pt x="444" y="28" on="1"/>
        <pt x="449" y="28" on="0"/>
        <pt x="460" y="29" on="0"/>
        <pt x="465" y="32" on="1"/>
        <pt x="465" y="10" on="1"/>
        <pt x="454" y="5" on="0"/>
        <pt x="421" y="-1" on="0"/>
        <pt x="401" y="-1" on="1"/>
        <pt x="369" y="-1" on="0"/>
        <pt x="335" y="32" on="0"/>
        <pt x="332" y="58" on="1"/>
        <pt x="296" y="22" on="0"/>
        <pt x="226" y="-12" on="0"/>
        <pt x="175" y="-12" on="1"/>
        <pt x="150" y="-12" on="0"/>
        <pt x="102" y="2" on="0"/>
        <pt x="65" y="34" on="0"/>
        <pt x="42" y="79" on="0"/>
        <pt x="42" y="108" on="1"/>
        <pt x="42" y="168" on="0"/>
        <pt x="117" y="234" on="0"/>
        <pt x="183" y="245" on="1"/>
        <pt x="237" y="254" on="0"/>
        <pt x="298" y="267" on="0"/>
        <pt x="327" y="281" on="0"/>
        <pt x="333" y="300" on="0"/>
        <pt x="333" y="315" on="1"/>
        <pt x="333" y="340" on="0"/>
        <pt x="321" y="386" on="0"/>
        <pt x="295" y="420" on="0"/>
        <pt x="253" y="441" on="0"/>
        <pt x="223" y="441" on="1"/>
        <pt x="183" y="441" on="0"/>
        <pt x="114" y="405" on="0"/>
        <pt x="97" y="373" on="1"/>
        <pt x="86" y="373" on="1"/>
      </contour>
    </TTGlyph>
    <TTGlyph name="asciicircum" xMin="42" yMin="203" xMax="564" yMax="656">
      <contour>
        <pt x="330" y="656" on="1"/>
        <pt x="564" y="203" on="1"/>
        <pt x="512" y="203" on="1"/>
        <pt x="303" y="609" on="1"/>
        <pt x="94" y="203" on="1"/>
        <pt x="42" y="203" on="1"/>
        <pt x="278" y="656" on="1"/>
      </contour>
    </TTGlyph>
    <TTGlyph name="asciitilde" xMin="75" yMin="186" xMax="531" yMax="320">
      <contour>
        <pt x="75" y="230" on="1"/>
        <pt x="98" y="268" on="0"/>
        <pt x="151" y="313" on="0"/>
        <pt x="197" y="313" on="1"/>
        <pt x="227" y="313" on="0"/>
        <pt x="270" y="298" on="0"/>
        <pt x="291" y="288" on="1"/>
        <pt x="325" y="273" on="0"/>
        <pt x="378" y="245" on="0"/>
        <pt x="410" y="245" on="1"/>
        <pt x="424" y="245" on="0"/>
        <pt x="452" y="259" on="0"/>
        <pt x="476" y="282" on="0"/>
        <pt x="496" y="308" on="0"/>
        <pt x="502" y="320" on="1"/>
        <pt x="531" y="278" on="1"/>
        <pt x="521" y="263" on="0"/>
        <pt x="497" y="233" on="0"/>
        <pt x="467" y="208" on="0"/>
        <pt x="431" y="193" on="0"/>
        <pt x="409" y="193" on="1"/>
        <pt x="381" y="193" on="0"/>
        <pt x="327" y="213" on="0"/>
        <pt x="295" y="230" on="1"/>
        <pt x="269" y="244" on="0"/>
        <pt x="223" y="261" on="0"/>
        <pt x="203" y="261" on="1"/>
        <pt x="181" y="261" on="0"/>
        <pt x="148" y="247" on="0"/>
        <pt x="124" y="224" on="0"/>
        <pt x="109" y="198" on="0"/>
        <pt x="104" y="186" on="1"/>
        <pt x="75" y="230" on="1"/>
      </contour>
    </TTGlyph>
    <TTGlyph name="asterisk" xMin="53" yMin="325" xMax="391" yMax="684">
      <contour>
        <pt x="194" y="684" on="1"/>
        <pt x="205" y="680" on="0"/>
        <pt x="223" y="680" on="1"/>
        <pt x="241" y="680" on="0"/>
        <pt x="252" y="684" on="1"/>
        <pt x="236" y="529" on="1"/>
        <pt x="361" y="621" on="1"/>
        <pt x="363" y="605" on="0"/>
        <pt x="379" y="577" on="0"/>
        <pt x="391" y="569" on="1"/>
        <pt x="249" y="505" on="1"/>
        <pt x="390" y="439" on="1"/>
        <pt x="380" y="431" on="0"/>
        <pt x="363" y="405" on="0"/>
        <pt x="361" y="389" on="1"/>
        <pt x="235" y="477" on="1"/>
        <pt x="252" y="325" on="1"/>
        <pt x="240" y="329" on="0"/>
        <pt x="223" y="329" on="1"/>
        <pt x="206" y="329" on="0"/>
        <pt x="194" y="325" on="1"/>
        <pt x="208" y="477" on="1"/>
        <pt x="86" y="388" on="1"/>
        <pt x="84" y="405" on="0"/>
        <pt x="68" y="431" on="0"/>
        <pt x="57" y="439" on="1"/>
        <pt x="197" y="504" on="1"/>
        <pt x="53" y="569" on="1"/>
        <pt x="63" y="577" on="0"/>
        <pt x="82" y="606" on="0"/>
        <pt x="82" y="621" on="1"/>
        <pt x="208" y="529" on="1"/>
        <pt x="194" y="684" on="1"/>
      </contour>
    </TTGlyph>
    <TTGlyph name="at" xMin="87" yMin="28" xMax="713" yMax="652">
      <contour>
        <pt x="476" y="425" on="1"/>
        <pt x="476" y="457" on="0"/>
        <pt x="453" y="500" on="0"/>
        <pt x="415" y="500" on="1"/>
        <pt x="387" y="500" on="0"/>
        <pt x="343" y="461" on="0"/>
        <pt x="313" y="403" on="0"/>
        <pt x="298" y="333" on="0"/>
        <pt x="298" y="303" on="1"/>
        <pt x="298" y="257" on="0"/>
        <pt x="323" y="210" on="0"/>
        <pt x="359" y="210" on="1"/>
        <pt x="388" y="210" on="0"/>
        <pt x="432" y="258" on="0"/>
        <pt x="461" y="325" on="0"/>
        <pt x="476" y="399" on="0"/>
      </contour>
      <contour>
        <pt x="558" y="522" on="1"/>
        <pt x="538" y="429" on="0"/>
        <pt x="516" y="321" on="0"/>
        <pt x="505" y="264" on="0"/>
        <pt x="503" y="243" on="0"/>
        <pt x="503" y="236" on="1"/>
        <pt x="503" y="219" on="0"/>
        <pt x="521" y="201" on="0"/>
        <pt x="536" y="201" on="1"/>
        <pt x="556" y="201" on="0"/>
        <pt x="601" y="230" on="0"/>
        <pt x="640" y="282" on="0"/>
        <pt x="666" y="353" on="0"/>
        <pt x="666" y="394" on="1"/>
        <pt x="666" y="443" on="0"/>
        <pt x="643" y="526" on="0"/>
        <pt x="588" y="586" on="0"/>
        <pt x="496" y="620" on="0"/>
        <pt x="427" y="620" on="1"/>
        <pt x="367" y="620" on="0"/>
        <pt x="265" y="571" on="0"/>
        <pt x="191" y="486" on="0"/>
        <pt x="149" y="371" on="0"/>
        <pt x="149" y="305" on="1"/>
        <pt x="149" y="245" on="0"/>
        <pt x="187" y="155" on="0"/>
        <pt x="253" y="95" on="0"/>
        <pt x="345" y="65" on="0"/>
        <pt x="399" y="65" on="1"/>
        <pt x="435" y="65" on="0"/>
        <pt x="501" y="80" on="0"/>
        <pt x="558" y="104" on="0"/>
        <pt x="607" y="133" on="0"/>
        <pt x="626" y="147" on="1"/>
        <pt x="623" y="115" on="1"/>
        <pt x="610" y="103" on="0"/>
        <pt x="565" y="73" on="0"/>
        <pt x="502" y="46" on="0"/>
        <pt x="422" y="28" on="0"/>
        <pt x="375" y="28" on="1"/>
        <pt x="326" y="28" on="0"/>
        <pt x="224" y="65" on="0"/>
        <pt x="140" y="142" on="0"/>
        <pt x="87" y="259" on="0"/>
        <pt x="87" y="338" on="1"/>
        <pt x="87" y="397" on="0"/>
        <pt x="135" y="510" on="0"/>
        <pt x="225" y="598" on="0"/>
        <pt x="352" y="652" on="0"/>
        <pt x="431" y="652" on="1"/>
        <pt x="513" y="652" on="0"/>
        <pt x="621" y="611" on="0"/>
        <pt x="686" y="544" on="0"/>
        <pt x="713" y="458" on="0"/>
        <pt x="713" y="414" on="1"/>
        <pt x="713" y="360" on="0"/>
        <pt x="677" y="271" on="0"/>
        <pt x="621" y="208" on="0"/>
        <pt x="553" y="173" on="0"/>
        <pt x="521" y="173" on="1"/>
        <pt x="479" y="173" on="0"/>
        <pt x="456" y="212" on="0"/>
        <pt x="456" y="245" on="1"/>
        <pt x="454" y="245" on="1"/>
        <pt x="445" y="232" on="0"/>
        <pt x="422" y="207" on="0"/>
        <pt x="395" y="186" on="0"/>
        <pt x="363" y="173" on="0"/>
        <pt x="344" y="173" on="1"/>
        <pt x="236" y="173" on="0"/>
        <pt x="236" y="307" on="1"/>
        <pt x="236" y="357" on="0"/>
        <pt x="264" y="439" on="0"/>
        <pt x="313" y="499" on="0"/>
        <pt x="378" y="532" on="0"/>
        <pt x="415" y="532" on="1"/>
        <pt x="446" y="532" on="0"/>
        <pt x="491" y="502" on="0"/>
        <pt x="494" y="468" on="1"/>
        <pt x="496" y="468" on="1"/>
        <pt x="506" y="522" on="1"/>
      </contour>
    </TTGlyph>
    <TTGlyph name="atilde" xMin="42" yMin="-12" xMax="465" yMax="691">
      <contour>
        <pt x="86" y="584" on="1"/>
        <pt x="89" y="602" on="0"/>
        <pt x="104" y="638" on="0"/>
        <pt x="130" y="668" on="0"/>
        <pt x="166" y="687" on="0"/>
        <pt x="190" y="687" on="1"/>
        <pt x="207" y="687" on="0"/>
        <pt x="235" y="677" on="0"/>
        <pt x="263" y="664" on="1"/>
        <pt x="291" y="650" on="0"/>
        <pt x="316" y="641" on="0"/>
        <pt x="329" y="641" on="1"/>
        <pt x="352" y="641" on="0"/>
        <pt x="380" y="671" on="0"/>
        <pt x="386" y="691" on="1"/>
        <pt x="415" y="691" on="1"/>
        <pt x="413" y="679" on="0"/>
        <pt x="401" y="643" on="0"/>
        <pt x="376" y="608" on="0"/>
        <pt x="336" y="584" on="0"/>
        <pt x="306" y="584" on="1"/>
        <pt x="292" y="584" on="0"/>
        <pt x="257" y="594" on="0"/>
        <pt x="234" y="607" on="1"/>
        <pt x="208" y="621" on="0"/>
        <pt x="181" y="630" on="0"/>
        <pt x="169" y="630" on="1"/>
        <pt x="146" y="630" on="0"/>
        <pt x="125" y="610" on="0"/>
        <pt x="116" y="584" on="1"/>
      </contour>
      <contour>
        <pt x="333" y="247" on="1"/>
        <pt x="316" y="241" on="0"/>
        <pt x="271" y="233" on="0"/>
        <pt x="225" y="224" on="0"/>
        <pt x="180" y="210" on="0"/>
        <pt x="145" y="186" on="0"/>
        <pt x="124" y="150" on="0"/>
        <pt x="124" y="122" on="1"/>
        <pt x="124" y="75" on="0"/>
        <pt x="178" y="27" on="0"/>
        <pt x="211" y="27" on="1"/>
        <pt x="249" y="27" on="0"/>
        <pt x="312" y="69" on="0"/>
        <pt x="329" y="97" on="1"/>
      </contour>
      <contour>
        <pt x="86" y="425" on="1"/>
        <pt x="131" y="459" on="0"/>
        <pt x="207" y="483" on="0"/>
        <pt x="247" y="483" on="1"/>
        <pt x="283" y="483" on="0"/>
        <pt x="343" y="462" on="0"/>
        <pt x="385" y="423" on="0"/>
        <pt x="409" y="368" on="0"/>
        <pt x="409" y="335" on="1"/>
        <pt x="409" y="278" on="0"/>
        <pt x="405" y="165" on="0"/>
        <pt x="405" y="102" on="1"/>
        <pt x="405" y="90" on="0"/>
        <pt x="406" y="63" on="0"/>
        <pt x="414" y="42" on="0"/>
        <pt x="429" y="28" on="0"/>
        <pt x="444" y="28" on="1"/>
        <pt x="449" y="28" on="0"/>
        <pt x="460" y="29" on="0"/>
        <pt x="465" y="32" on="1"/>
        <pt x="465" y="10" on="1"/>
        <pt x="454" y="5" on="0"/>
        <pt x="421" y="-1" on="0"/>
        <pt x="401" y="-1" on="1"/>
        <pt x="369" y="-1" on="0"/>
        <pt x="335" y="32" on="0"/>
        <pt x="332" y="58" on="1"/>
        <pt x="296" y="22" on="0"/>
        <pt x="226" y="-12" on="0"/>
        <pt x="175" y="-12" on="1"/>
        <pt x="150" y="-12" on="0"/>
        <pt x="102" y="2" on="0"/>
        <pt x="65" y="34" on="0"/>
        <pt x="42" y="79" on="0"/>
        <pt x="42" y="108" on="1"/>
        <pt x="42" y="168" on="0"/>
        <pt x="117" y="234" on="0"/>
        <pt x="183" y="245" on="1"/>
        <pt x="237" y="254" on="0"/>
        <pt x="298" y="267" on="0"/>
        <pt x="327" y="281" on="0"/>
        <pt x="333" y="300" on="0"/>
        <pt x="333" y="315" on="1"/>
        <pt x="333" y="340" on="0"/>
        <pt x="321" y="386" on="0"/>
        <pt x="295" y="420" on="0"/>
        <pt x="253" y="441" on="0"/>
        <pt x="223" y="441" on="1"/>
        <pt x="183" y="441" on="0"/>
        <pt x="114" y="405" on="0"/>
        <pt x="97" y="373" on="1"/>
        <pt x="86" y="373" on="1"/>
      </contour>
    </TTGlyph>
    <TTGlyph name="b" xMin="57" yMin="-12" xMax="514" yMax="752">
      <contour>
        <pt x="426" y="251" on="1"/>
        <pt x="426" y="297" on="0"/>
        <pt x="403" y="368" on="0"/>
        <pt x="366" y="416" on="0"/>
        <pt x="317" y="441" on="0"/>
        <pt x="291" y="441" on="1"/>
        <pt x="260" y="441" on="0"/>
        <pt x="203" y="418" on="0"/>
        <pt x="161" y="365" on="0"/>
        <pt x="136" y="280" on="0"/>
        <pt x="136" y="218" on="1"/>
        <pt x="136" y="17" on="0"/>
        <pt x="282" y="17" on="1"/>
        <pt x="313" y="17" on="0"/>
        <pt x="365" y="50" on="0"/>
        <pt x="404" y="112" on="0"/>
        <pt x="426" y="198" on="0"/>
      </contour>
      <contour>
        <pt x="514" y="248" on="1"/>
        <pt x="514" y="190" on="0"/>
        <pt x="479" y="94" on="0"/>
        <pt x="418" y="25" on="0"/>
        <pt x="335" y="-12" on="0"/>
        <pt x="287" y="-12" on="1"/>
        <pt x="239" y="-12" on="0"/>
        <pt x="162" y="29" on="0"/>
        <pt x="142" y="58" on="1"/>
        <pt x="106" y="29" on="0"/>
        <pt x="75" y="0" on="1"/>
        <pt x="57" y="0" on="1"/>
        <pt x="59" y="24" on="0"/>
        <pt x="62" y="92" on="0"/>
        <pt x="64" y="169" on="0"/>
        <pt x="65" y="249" on="0"/>
        <pt x="65" y="283" on="1"/>
        <pt x="65" y="464" on="1"/>
        <pt x="65" y="498" on="0"/>
        <pt x="64" y="578" on="0"/>
        <pt x="62" y="656" on="0"/>
        <pt x="59" y="727" on="0"/>
        <pt x="57" y="752" on="1"/>
        <pt x="85" y="747" on="0"/>
        <pt x="102" y="747" on="1"/>
        <pt x="113" y="747" on="0"/>
        <pt x="137" y="750" on="0"/>
        <pt x="151" y="752" on="1"/>
        <pt x="148" y="732" on="0"/>
        <pt x="144" y="645" on="0"/>
        <pt x="142" y="538" on="0"/>
        <pt x="140" y="425" on="0"/>
        <pt x="139" y="379" on="1"/>
        <pt x="141" y="379" on="1"/>
        <pt x="175" y="433" on="0"/>
        <pt x="257" y="483" on="0"/>
        <pt x="311" y="483" on="1"/>
        <pt x="363" y="483" on="0"/>
        <pt x="439" y="444" on="0"/>
        <pt x="489" y="380" on="0"/>
        <pt x="514" y="295" on="0"/>
      </contour>
    </TTGlyph>
    <TTGlyph name="backslash" xMin="86" yMin="-20" xMax="414" yMax="703">
      <contour>
        <pt x="86" y="703" on="1"/>
        <pt x="103" y="698" on="0"/>
        <pt x="112" y="698" on="1"/>
        <pt x="121" y="698" on="0"/>
        <pt x="138" y="703" on="1"/>
        <pt x="414" y="-20" on="1"/>
        <pt x="397" y="-15" on="0"/>
        <pt x="388" y="-15" on="1"/>
        <pt x="379" y="-15" on="0"/>
        <pt x="362" y="-20" on="1"/>
        <pt x="86" y="703" on="1"/>
      </contour>
    </TTGlyph>
    <TTGlyph name="bar" xMin="141" yMin="-248" xMax="193" yMax="750">
      <contour>
        <pt x="193" y="750" on="1"/>
        <pt x="193" y="-248" on="1"/>
        <pt x="141" y="-248" on="1"/>
        <pt x="141" y="750" on="1"/>
      </contour>
    </TTGlyph>
    <TTGlyph name="braceleft" xMin="57" yMin="-118" xMax="276" yMax="683">
      <contour>
        <pt x="57" y="302" on="1"/>
        <pt x="93" y="302" on="0"/>
        <pt x="130" y="354" on="0"/>
        <pt x="130" y="396" on="1"/>
        <pt x="130" y="566" on="1"/>
        <pt x="130" y="633" on="0"/>
        <pt x="176" y="683" on="0"/>
        <pt x="218" y="683" on="1"/>
        <pt x="276" y="683" on="1"/>
        <pt x="276" y="646" on="1"/>
        <pt x="244" y="646" on="1"/>
        <pt x="218" y="646" on="0"/>
        <pt x="192" y="616" on="0"/>
        <pt x="192" y="566" on="1"/>
        <pt x="192" y="402" on="1"/>
        <pt x="192" y="351" on="0"/>
        <pt x="146" y="297" on="0"/>
        <pt x="104" y="282" on="1"/>
        <pt x="104" y="280" on="1"/>
        <pt x="146" y="265" on="0"/>
        <pt x="192" y="211" on="0"/>
        <pt x="192" y="160" on="1"/>
        <pt x="192" y="-1" on="1"/>
        <pt x="192" y="-51" on="0"/>
        <pt x="218" y="-81" on="0"/>
        <pt x="244" y="-81" on="1"/>
        <pt x="276" y="-81" on="1"/>
        <pt x="276" y="-118" on="1"/>
        <pt x="218" y="-118" on="1"/>
        <pt x="176" y="-118" on="0"/>
        <pt x="130" y="-69" on="0"/>
        <pt x="130" y="-1" on="1"/>
        <pt x="130" y="166" on="1"/>
        <pt x="130" y="208" on="0"/>
        <pt x="93" y="260" on="0"/>
        <pt x="57" y="260" on="1"/>
        <pt x="57" y="302" on="1"/>
      </contour>
    </TTGlyph>
    <TTGlyph name="braceright" xMin="57" yMin="-118" xMax="276" yMax="683">
      <contour>
        <pt x="276" y="260" on="1"/>
        <pt x="240" y="260" on="0"/>
        <pt x="203" y="208" on="0"/>
        <pt x="203" y="166" on="1"/>
        <pt x="203" y="-1" on="1"/>
        <pt x="203" y="-69" on="0"/>
        <pt x="157" y="-118" on="0"/>
        <pt x="115" y="-118" on="1"/>
        <pt x="57" y="-118" on="1"/>
        <pt x="57" y="-81" on="1"/>
        <pt x="89" y="-81" on="1"/>
        <pt x="115" y="-81" on="0"/>
        <pt x="141" y="-51" on="0"/>
        <pt x="141" y="-1" on="1"/>
        <pt x="141" y="160" on="1"/>
        <pt x="141" y="211" on="0"/>
        <pt x="187" y="265" on="0"/>
        <pt x="229" y="280" on="1"/>
        <pt x="229" y="282" on="1"/>
        <pt x="187" y="297" on="0"/>
        <pt x="141" y="351" on="0"/>
        <pt x="141" y="402" on="1"/>
        <pt x="141" y="566" on="1"/>
        <pt x="141" y="616" on="0"/>
        <pt x="115" y="646" on="0"/>
        <pt x="89" y="646" on="1"/>
        <pt x="57" y="646" on="1"/>
        <pt x="57" y="683" on="1"/>
        <pt x="115" y="683" on="1"/>
        <pt x="157" y="683" on="0"/>
        <pt x="203" y="633" on="0"/>
        <pt x="203" y="566" on="1"/>
        <pt x="203" y="396" on="1"/>
        <pt x="203" y="354" on="0"/>
        <pt x="240" y="302" on="0"/>
        <pt x="276" y="302" on="1"/>
        <pt x="276" y="260" on="1"/>
      </contour>
    </TTGlyph>
    <TTGlyph name="bracketleft" xMin="132" yMin="-118" xMax="295" yMax="683">
      <contour>
        <pt x="138" y="407" on="1"/>
        <pt x="138" y="547" on="0"/>
        <pt x="132" y="683" on="1"/>
        <pt x="155" y="680" on="0"/>
        <pt x="183" y="680" on="1"/>
        <pt x="195" y="680" on="0"/>
        <pt x="226" y="681" on="0"/>
        <pt x="257" y="682" on="0"/>
        <pt x="285" y="683" on="0"/>
        <pt x="295" y="683" on="1"/>
        <pt x="294" y="679" on="0"/>
        <pt x="293" y="673" on="0"/>
        <pt x="293" y="669" on="1"/>
        <pt x="293" y="667" on="0"/>
        <pt x="294" y="659" on="0"/>
        <pt x="295" y="654" on="1"/>
        <pt x="274" y="655" on="0"/>
        <pt x="227" y="656" on="0"/>
        <pt x="204" y="656" on="1"/>
        <pt x="200" y="593" on="0"/>
        <pt x="196" y="470" on="0"/>
        <pt x="196" y="407" on="1"/>
        <pt x="196" y="155" on="1"/>
        <pt x="196" y="92" on="0"/>
        <pt x="200" y="-28" on="0"/>
        <pt x="204" y="-91" on="1"/>
        <pt x="227" y="-91" on="0"/>
        <pt x="274" y="-90" on="0"/>
        <pt x="295" y="-89" on="1"/>
        <pt x="294" y="-94" on="0"/>
        <pt x="293" y="-102" on="0"/>
        <pt x="293" y="-104" on="1"/>
        <pt x="293" y="-108" on="0"/>
        <pt x="294" y="-114" on="0"/>
        <pt x="295" y="-118" on="1"/>
        <pt x="285" y="-118" on="0"/>
        <pt x="257" y="-117" on="0"/>
        <pt x="226" y="-116" on="0"/>
        <pt x="195" y="-115" on="0"/>
        <pt x="183" y="-115" on="1"/>
        <pt x="155" y="-115" on="0"/>
        <pt x="132" y="-118" on="1"/>
        <pt x="138" y="15" on="0"/>
        <pt x="138" y="155" on="1"/>
        <pt x="138" y="407" on="1"/>
      </contour>
    </TTGlyph>
    <TTGlyph name="bracketright" xMin="38" yMin="-118" xMax="201" yMax="683">
      <contour>
        <pt x="137" y="407" on="1"/>
        <pt x="137" y="470" on="0"/>
        <pt x="133" y="593" on="0"/>
        <pt x="129" y="656" on="1"/>
        <pt x="106" y="656" on="0"/>
        <pt x="59" y="655" on="0"/>
        <pt x="38" y="654" on="1"/>
        <pt x="39" y="659" on="0"/>
        <pt x="40" y="667" on="0"/>
        <pt x="40" y="669" on="1"/>
        <pt x="40" y="673" on="0"/>
        <pt x="39" y="679" on="0"/>
        <pt x="38" y="683" on="1"/>
        <pt x="48" y="683" on="0"/>
        <pt x="76" y="682" on="0"/>
        <pt x="107" y="681" on="0"/>
        <pt x="138" y="680" on="0"/>
        <pt x="150" y="680" on="1"/>
        <pt x="179" y="680" on="0"/>
        <pt x="201" y="683" on="1"/>
        <pt x="195" y="547" on="0"/>
        <pt x="195" y="407" on="1"/>
        <pt x="195" y="155" on="1"/>
        <pt x="195" y="15" on="0"/>
        <pt x="201" y="-118" on="1"/>
        <pt x="179" y="-115" on="0"/>
        <pt x="150" y="-115" on="1"/>
        <pt x="138" y="-115" on="0"/>
        <pt x="107" y="-116" on="0"/>
        <pt x="76" y="-117" on="0"/>
        <pt x="48" y="-118" on="0"/>
        <pt x="38" y="-118" on="1"/>
        <pt x="39" y="-114" on="0"/>
        <pt x="40" y="-108" on="0"/>
        <pt x="40" y="-104" on="1"/>
        <pt x="40" y="-102" on="0"/>
        <pt x="39" y="-94" on="0"/>
        <pt x="38" y="-89" on="1"/>
        <pt x="59" y="-90" on="0"/>
        <pt x="106" y="-91" on="0"/>
        <pt x="129" y="-91" on="1"/>
        <pt x="133" y="-28" on="0"/>
        <pt x="137" y="92" on="0"/>
        <pt x="137" y="155" on="1"/>
        <pt x="137" y="407" on="1"/>
      </contour>
    </TTGlyph>
</ttFont>
